<svg id="kity_svg_6" xmlns="http://www.w3.org/2000/svg" xmlns:xlink="http://www.w3.org/1999/xlink" version="1.1" width="633" height="576" style="background: rgb(251, 251, 251); visibility: visible;" viewBox="0 0 633 576"><defs id="kity_defs_7"><linearGradient id="kity_linearGradient_17" x1="0" y1="0" x2="0" y2="1"><stop id="kity_stop_18" offset="0" stop-color="rgb(255, 255, 255)"></stop><stop id="kity_stop_19" offset="1" stop-color="rgb(204, 204, 204)"></stop></linearGradient><marker id="kity_marker_2" orient="auto" refX="6" refY="0" viewBox="-7 -7 14 14" markerWidth="7" markerHeight="7" markerUnits="userSpaceOnUse"><path id="kity_path_3" fill="rgb(115, 161, 191)" stroke="none" d="M6,0A6,6,0,1,1,-6,0A6,6,0,1,1,6,0"></path></marker></defs><g id="kity_g_8"><g id="minder1" text-rendering="optimize-speed"><g id="minder_connect_group1"><path id="kity_path_31" fill="none" stroke="rgb(115, 161, 191)" stroke-width="1" d="M84.5,288.5A182,255,0,0,1,266.5,33.5"></path><path id="kity_path_33" fill="none" stroke="rgb(115, 161, 191)" stroke-width="1" d="M336.5,33.5C356.5,33.5,356.5,33.5,376.5,33.5"></path><path id="kity_path_35" fill="none" stroke="rgb(115, 161, 191)" stroke-width="1" d="M84.5,288.5A182,189,0,0,1,266.5,99.5"></path><path id="kity_path_37" fill="none" stroke="rgb(115, 161, 191)" stroke-width="1" d="M336.5,99.5C356.5,99.5,356.5,99.5,376.5,99.5"></path><path id="kity_path_39" fill="none" stroke="rgb(115, 161, 191)" stroke-width="1" d="M84.5,288.5A182,123,0,0,1,266.5,165.5"></path><path id="kity_path_41" fill="none" stroke="rgb(115, 161, 191)" stroke-width="1" d="M336.5,165.5C356.5,165.5,356.5,165.5,376.5,165.5"></path><path id="kity_path_43" fill="none" stroke="rgb(115, 161, 191)" stroke-width="1" d="M84.5,288.5A182,57,0,0,1,266.5,231.5"></path><path id="kity_path_45" fill="none" stroke="rgb(115, 161, 191)" stroke-width="1" d="M420.5,231.5C440.5,231.5,440.5,231.5,460.5,231.5"></path><path id="kity_path_47" fill="none" stroke="rgb(115, 161, 191)" stroke-width="1" d="M84.5,288.5A182,9,0,0,0,266.5,297.5"></path><path id="kity_path_49" fill="none" stroke="rgb(115, 161, 191)" stroke-width="1" d="M406.5,297.5C426.5,297.5,426.5,297.5,446.5,297.5"></path><path id="kity_path_51" fill="none" stroke="rgb(115, 161, 191)" stroke-width="1" d="M84.5,288.5A182,99,0,0,0,266.5,387.5"></path><path id="kity_path_53" fill="none" stroke="rgb(115, 161, 191)" stroke-width="1" d="M406.5,387.5C426.5,387.5,426.5,361.5,446.5,361.5"></path><path id="kity_path_55" fill="none" stroke="rgb(115, 161, 191)" stroke-width="1" d="M406.5,387.5C426.5,387.5,426.5,413.5,446.5,413.5"></path><path id="kity_path_57" fill="none" stroke="rgb(115, 161, 191)" stroke-width="1" d="M84.5,288.5A182,189,0,0,0,266.5,477.5"></path><path id="kity_path_59" fill="none" stroke="rgb(115, 161, 191)" stroke-width="1" d="M364.5,477.5C384.5,477.5,384.5,477.5,404.5,477.5"></path><path id="kity_path_61" fill="none" stroke="rgb(115, 161, 191)" stroke-width="1" d="M84.5,288.5A182,255,0,0,0,266.5,543.5"></path><path id="kity_path_63" fill="none" stroke="rgb(115, 161, 191)" stroke-width="1" d="M364.5,543.5C384.5,543.5,384.5,543.5,404.5,543.5"></path></g><g id="minder_node1"><path id="node_outline1" fill="rgb(115, 161, 191)" stroke="rgb(57, 80, 96)" d="M25.5,268.5h118a5,5,0,0,1,5,5v30a5,5,0,0,1,-5,5h-118a5,5,0,0,1,-5,-5v-30a5,5,0,0,1,5,-5z" stroke-width="3"></path><g id="node_text1" fill="white"><text id="kity_text_22" text-rendering="inherit" font-size="16" dy=".8em" y="280.5" x="44.5">实体与编码</text></g></g><g id="kity_g_12"><path id="kity_path_13" fill="none" stroke="none" d="M44.5,288.5h0v0h0z"></path></g><g id="kity_g_14"><path id="kity_path_15" fill="none" stroke="none" d="M44.5,288.5h0v0h0z"></path><path id="kity_path_16" fill="none" stroke="none"></path></g><g id="minder_node2"><g id="node_expander2" style="cursor: pointer;"><path id="kity_path_119" fill="white" stroke="gray" d="M267.5,33.5A6,6,0,1,1,255.5,33.5A6,6,0,1,1,267.5,33.5"></path><path id="kity_path_120" fill="none" stroke="gray" d="M257,33.5L266,33.5"></path></g><path id="node_outline3" fill="rgb(238, 243, 246)" stroke="rgb(115, 161, 191)" d="M271.5,20.5h62a3,3,0,0,1,3,3v20a3,3,0,0,1,-3,3h-62a3,3,0,0,1,-3,-3v-20a3,3,0,0,1,3,-3z" stroke-width="1"></path><g id="node_text3" fill="black"><text id="kity_text_67" text-rendering="inherit" font-size="14" dy=".8em" y="26.5" x="288.5">首部</text></g></g><g id="minder_node3"><g id="node_expander1" display="none" style="cursor: pointer;"><path id="kity_path_116" fill="white" stroke="gray" d="M376.5,33.5A6,6,0,1,1,364.5,33.5A6,6,0,1,1,376.5,33.5"></path><path id="kity_path_117" fill="none" stroke="gray"></path></g><path id="node_outline2" fill="none" stroke="none" d="M381.5,22.5h218a5,5,0,0,1,5,5v12a5,5,0,0,1,-5,5h-218a5,5,0,0,1,-5,-5v-12a5,5,0,0,1,5,-5z"></path><g id="node_text2" fill="black"><text id="kity_text_65" text-rendering="inherit" font-size="12" dy=".8em" y="27.5" x="386.5">&#xa0;HTTP/1.1定义了10个基本实体首部字段</text></g></g><g id="minder_node4"><g id="node_expander4" style="cursor: pointer;"><path id="kity_path_125" fill="white" stroke="gray" d="M267.5,99.5A6,6,0,1,1,255.5,99.5A6,6,0,1,1,267.5,99.5"></path><path id="kity_path_126" fill="none" stroke="gray" d="M257,99.5L266,99.5"></path></g><path id="node_outline5" fill="rgb(238, 243, 246)" stroke="rgb(115, 161, 191)" d="M271.5,86.5h62a3,3,0,0,1,3,3v20a3,3,0,0,1,-3,3h-62a3,3,0,0,1,-3,-3v-20a3,3,0,0,1,3,-3z" stroke-width="1"></path><g id="node_text5" fill="black"><text id="kity_text_71" text-rendering="inherit" font-size="14" dy=".8em" y="92.5" x="288.5">大小</text></g></g><g id="minder_node5"><g id="node_expander3" display="none" style="cursor: pointer;"><path id="kity_path_122" fill="white" stroke="gray" d="M376.5,99.5A6,6,0,1,1,364.5,99.5A6,6,0,1,1,376.5,99.5"></path><path id="kity_path_123" fill="none" stroke="gray"></path></g><path id="node_outline4" fill="none" stroke="none" d="M381.5,88.5h102a5,5,0,0,1,5,5v12a5,5,0,0,1,-5,5h-102a5,5,0,0,1,-5,-5v-12a5,5,0,0,1,5,-5z"></path><g id="node_text4" fill="black"><text id="kity_text_69" text-rendering="inherit" font-size="12" dy=".8em" y="93.5" x="386.5">Content-Length</text></g></g><g id="minder_node6"><g id="node_expander6" style="cursor: pointer;"><path id="kity_path_131" fill="white" stroke="gray" d="M267.5,165.5A6,6,0,1,1,255.5,165.5A6,6,0,1,1,267.5,165.5"></path><path id="kity_path_132" fill="none" stroke="gray" d="M257,165.5L266,165.5"></path></g><path id="node_outline7" fill="rgb(238, 243, 246)" stroke="rgb(115, 161, 191)" d="M271.5,152.5h62a3,3,0,0,1,3,3v20a3,3,0,0,1,-3,3h-62a3,3,0,0,1,-3,-3v-20a3,3,0,0,1,3,-3z" stroke-width="1"></path><g id="node_text7" fill="black"><text id="kity_text_75" text-rendering="inherit" font-size="14" dy=".8em" y="158.5" x="288.5">摘要</text></g></g><g id="minder_node7"><g id="node_expander5" display="none" style="cursor: pointer;"><path id="kity_path_128" fill="white" stroke="gray" d="M376.5,165.5A6,6,0,1,1,364.5,165.5A6,6,0,1,1,376.5,165.5"></path><path id="kity_path_129" fill="none" stroke="gray"></path></g><path id="node_outline6" fill="none" stroke="none" d="M381.5,154.5h89a5,5,0,0,1,5,5v12a5,5,0,0,1,-5,5h-89a5,5,0,0,1,-5,-5v-12a5,5,0,0,1,5,-5z"></path><g id="node_text6" fill="black"><text id="kity_text_73" text-rendering="inherit" font-size="12" dy=".8em" y="159.5" x="386.5">Content-MD5</text></g></g><g id="minder_node8"><g id="node_expander8" style="cursor: pointer;"><path id="kity_path_137" fill="white" stroke="gray" d="M267.5,231.5A6,6,0,1,1,255.5,231.5A6,6,0,1,1,267.5,231.5"></path><path id="kity_path_138" fill="none" stroke="gray" d="M257,231.5L266,231.5"></path></g><path id="node_outline9" fill="rgb(238, 243, 246)" stroke="rgb(115, 161, 191)" d="M271.5,218.5h146a3,3,0,0,1,3,3v20a3,3,0,0,1,-3,3h-146a3,3,0,0,1,-3,-3v-20a3,3,0,0,1,3,-3z" stroke-width="1"></path><g id="node_text9" fill="black"><text id="kity_text_79" text-rendering="inherit" font-size="14" dy=".8em" y="224.5" x="288.5">媒体类型和字符集</text></g></g><g id="minder_node9"><g id="node_expander7" display="none" style="cursor: pointer;"><path id="kity_path_134" fill="white" stroke="gray" d="M460.5,231.5A6,6,0,1,1,448.5,231.5A6,6,0,1,1,460.5,231.5"></path><path id="kity_path_135" fill="none" stroke="gray"></path></g><path id="node_outline8" fill="none" stroke="none" d="M465.5,220.5h90a5,5,0,0,1,5,5v12a5,5,0,0,1,-5,5h-90a5,5,0,0,1,-5,-5v-12a5,5,0,0,1,5,-5z"></path><g id="node_text8" fill="black"><text id="kity_text_77" text-rendering="inherit" font-size="12" dy=".8em" y="225.5" x="470.5">Content-Type</text></g></g><g id="minder_node10"><g id="node_expander10" style="cursor: pointer;"><path id="kity_path_143" fill="white" stroke="gray" d="M267.5,297.5A6,6,0,1,1,255.5,297.5A6,6,0,1,1,267.5,297.5"></path><path id="kity_path_144" fill="none" stroke="gray" d="M257,297.5L266,297.5"></path></g><path id="node_outline11" fill="rgb(238, 243, 246)" stroke="rgb(115, 161, 191)" d="M271.5,284.5h132a3,3,0,0,1,3,3v20a3,3,0,0,1,-3,3h-132a3,3,0,0,1,-3,-3v-20a3,3,0,0,1,3,-3z" stroke-width="1"></path><g id="node_text11" fill="black"><text id="kity_text_83" text-rendering="inherit" font-size="14" dy=".8em" y="290.5" x="288.5">传输和分块编码</text></g></g><g id="minder_node11"><g id="node_expander9" display="none" style="cursor: pointer;"><path id="kity_path_140" fill="white" stroke="gray" d="M446.5,297.5A6,6,0,1,1,434.5,297.5A6,6,0,1,1,446.5,297.5"></path><path id="kity_path_141" fill="none" stroke="gray"></path></g><path id="node_outline10" fill="none" stroke="none" d="M451.5,286.5h113a5,5,0,0,1,5,5v12a5,5,0,0,1,-5,5h-113a5,5,0,0,1,-5,-5v-12a5,5,0,0,1,5,-5z"></path><g id="node_text10" fill="black"><text id="kity_text_81" text-rendering="inherit" font-size="12" dy=".8em" y="291.5" x="456.5">Transfer-Encoding</text></g></g><g id="minder_node12"><g id="node_expander13" style="cursor: pointer;"><path id="kity_path_152" fill="white" stroke="gray" d="M267.5,387.5A6,6,0,1,1,255.5,387.5A6,6,0,1,1,267.5,387.5"></path><path id="kity_path_153" fill="none" stroke="gray" d="M257,387.5L266,387.5"></path></g><path id="node_outline14" fill="rgb(238, 243, 246)" stroke="rgb(115, 161, 191)" d="M271.5,374.5h132a3,3,0,0,1,3,3v20a3,3,0,0,1,-3,3h-132a3,3,0,0,1,-3,-3v-20a3,3,0,0,1,3,-3z" stroke-width="1"></path><g id="node_text14" fill="black"><text id="kity_text_89" text-rendering="inherit" font-size="14" dy=".8em" y="380.5" x="288.5">验证码和新鲜度</text></g></g><g id="minder_node13"><g id="node_expander11" display="none" style="cursor: pointer;"><path id="kity_path_146" fill="white" stroke="gray" d="M446.5,361.5A6,6,0,1,1,434.5,361.5A6,6,0,1,1,446.5,361.5"></path><path id="kity_path_147" fill="none" stroke="gray"></path></g><path id="node_outline12" fill="none" stroke="none" d="M451.5,350.5h149a5,5,0,0,1,5,5v12a5,5,0,0,1,-5,5h-149a5,5,0,0,1,-5,-5v-12a5,5,0,0,1,5,-5z"></path><g id="node_text12" fill="black"><text id="kity_text_85" text-rendering="inherit" font-size="12" dy=".8em" y="355.5" x="456.5">Expires、Cache-Control</text></g></g><g id="minder_node14"><g id="node_expander12" display="none" style="cursor: pointer;"><path id="kity_path_149" fill="white" stroke="gray" d="M446.5,413.5A6,6,0,1,1,434.5,413.5A6,6,0,1,1,446.5,413.5"></path><path id="kity_path_150" fill="none" stroke="gray"></path></g><path id="node_outline13" fill="none" stroke="none" d="M451.5,402.5h38a5,5,0,0,1,5,5v12a5,5,0,0,1,-5,5h-38a5,5,0,0,1,-5,-5v-12a5,5,0,0,1,5,-5z"></path><g id="node_text13" fill="black"><text id="kity_text_87" text-rendering="inherit" font-size="12" dy=".8em" y="407.5" x="456.5">ETag</text></g></g><g id="minder_node15"><g id="node_expander15" style="cursor: pointer;"><path id="kity_path_158" fill="white" stroke="gray" d="M267.5,477.5A6,6,0,1,1,255.5,477.5A6,6,0,1,1,267.5,477.5"></path><path id="kity_path_159" fill="none" stroke="gray" d="M257,477.5L266,477.5"></path></g><path id="node_outline16" fill="rgb(238, 243, 246)" stroke="rgb(115, 161, 191)" d="M271.5,464.5h90a3,3,0,0,1,3,3v20a3,3,0,0,1,-3,3h-90a3,3,0,0,1,-3,-3v-20a3,3,0,0,1,3,-3z" stroke-width="1"></path><g id="node_text16" fill="black"><text id="kity_text_93" text-rendering="inherit" font-size="14" dy=".8em" y="470.5" x="288.5">范围请求</text></g></g><g id="minder_node16"><g id="node_expander14" display="none" style="cursor: pointer;"><path id="kity_path_155" fill="white" stroke="gray" d="M404.5,477.5A6,6,0,1,1,392.5,477.5A6,6,0,1,1,404.5,477.5"></path><path id="kity_path_156" fill="none" stroke="gray"></path></g><path id="node_outline15" fill="none" stroke="none" d="M409.5,466.5h49a5,5,0,0,1,5,5v12a5,5,0,0,1,-5,5h-49a5,5,0,0,1,-5,-5v-12a5,5,0,0,1,5,-5z"></path><g id="node_text15" fill="black"><text id="kity_text_91" text-rendering="inherit" font-size="12" dy=".8em" y="471.5" x="414.5">Range</text></g></g><g id="minder_node17"><g id="node_expander17" style="cursor: pointer;"><path id="kity_path_164" fill="white" stroke="gray" d="M267.5,543.5A6,6,0,1,1,255.5,543.5A6,6,0,1,1,267.5,543.5"></path><path id="kity_path_165" fill="none" stroke="gray" d="M257,543.5L266,543.5"></path></g><path id="node_outline18" fill="rgb(238, 243, 246)" stroke="rgb(115, 161, 191)" d="M271.5,530.5h90a3,3,0,0,1,3,3v20a3,3,0,0,1,-3,3h-90a3,3,0,0,1,-3,-3v-20a3,3,0,0,1,3,-3z" stroke-width="1"></path><g id="node_text18" fill="black"><text id="kity_text_97" text-rendering="inherit" font-size="14" dy=".8em" y="536.5" x="288.5">差异编码</text></g></g><g id="minder_node18"><g id="node_expander16" display="none" style="cursor: pointer;"><path id="kity_path_161" fill="white" stroke="gray" d="M404.5,543.5A6,6,0,1,1,392.5,543.5A6,6,0,1,1,404.5,543.5"></path><path id="kity_path_162" fill="none" stroke="gray"></path></g><path id="node_outline17" fill="none" stroke="none" d="M409.5,532.5h199a5,5,0,0,1,5,5v12a5,5,0,0,1,-5,5h-199a5,5,0,0,1,-5,-5v-12a5,5,0,0,1,5,-5z"></path><g id="node_text17" fill="black"><text id="kity_text_95" text-rendering="inherit" font-size="12" dy=".8em" y="537.5" x="414.5">ETag、if-None-Match、A-IM、IM</text></g></g></g></g></svg>