<svg id="kity_svg_6" xmlns="http://www.w3.org/2000/svg" xmlns:xlink="http://www.w3.org/1999/xlink" version="1.1" width="836" height="605" style="background: rgb(251, 251, 251); visibility: visible;" viewBox="0 0 836 605"><defs id="kity_defs_7"><linearGradient id="kity_linearGradient_17" x1="0" y1="0" x2="0" y2="1"><stop id="kity_stop_18" offset="0" stop-color="rgb(255, 255, 255)"></stop><stop id="kity_stop_19" offset="1" stop-color="rgb(204, 204, 204)"></stop></linearGradient><marker id="kity_marker_2" orient="auto" refX="6" refY="0" viewBox="-7 -7 14 14" markerWidth="7" markerHeight="7" markerUnits="userSpaceOnUse"><path id="kity_path_3" fill="rgb(115, 161, 191)" stroke="none" d="M6,0A6,6,0,1,1,-6,0A6,6,0,1,1,6,0"></path></marker></defs><g id="kity_g_8"><g id="minder1" text-rendering="optimize-speed"><g id="minder_connect_group1"><path id="kity_path_31" fill="none" stroke="rgb(115, 161, 191)" stroke-width="1" d="M426.5,262.5A158,198,0,0,1,584.5,64.5"></path><path id="kity_path_33" fill="none" stroke="rgb(115, 161, 191)" stroke-width="1" d="M426.5,262.5A158,95,0,0,1,584.5,167.5"></path><path id="kity_path_35" fill="none" stroke="rgb(115, 161, 191)" stroke-width="1" d="M654.5,167.5C669.5,167.5,669.5,142.5,684.5,142.5L745.5,142.5"></path><path id="kity_path_37" fill="none" stroke="rgb(115, 161, 191)" stroke-width="1" d="M654.5,167.5C669.5,167.5,669.5,220.5,684.5,220.5L732.5,220.5"></path><path id="kity_path_39" fill="none" stroke="rgb(115, 161, 191)" stroke-width="1" d="M732.5,220.5C747.5,220.5,747.5,194.5,762.5,194.5L813.5,194.5"></path><path id="kity_path_41" fill="none" stroke="rgb(115, 161, 191)" stroke-width="1" d="M732.5,220.5C747.5,220.5,747.5,246.5,762.5,246.5L816.5,246.5"></path><path id="kity_path_43" fill="none" stroke="rgb(115, 161, 191)" stroke-width="1" d="M426.5,262.5A158,58,0,0,0,584.5,320.5"></path><path id="kity_path_45" fill="none" stroke="rgb(115, 161, 191)" stroke-width="1" d="M654.5,320.5C669.5,320.5,669.5,308.5,684.5,308.5L738.5,308.5"></path><path id="kity_path_47" fill="none" stroke="rgb(115, 161, 191)" stroke-width="1" d="M654.5,320.5C669.5,320.5,669.5,360.5,684.5,360.5L750.5,360.5"></path><path id="kity_path_49" fill="none" stroke="rgb(115, 161, 191)" stroke-width="1" d="M426.5,262.5A158,198,0,0,0,584.5,460.5"></path><path id="kity_path_51" fill="none" stroke="rgb(115, 161, 191)" stroke-width="1" d="M654.5,460.5C669.5,460.5,669.5,422.5,684.5,422.5L750.5,422.5"></path><path id="kity_path_53" fill="none" stroke="rgb(115, 161, 191)" stroke-width="1" d="M654.5,460.5C669.5,460.5,669.5,474.5,684.5,474.5L762.5,474.5"></path><path id="kity_path_55" fill="none" stroke="rgb(115, 161, 191)" stroke-width="1" d="M654.5,460.5C669.5,460.5,669.5,526.5,684.5,526.5L738.5,526.5"></path><path id="kity_path_57" fill="none" stroke="rgb(115, 161, 191)" stroke-width="1" d="M426.5,262.5A158,205,0,0,0,268.5,57.5"></path><path id="kity_path_59" fill="none" stroke="rgb(115, 161, 191)" stroke-width="1" d="M198.5,57.5C183.5,57.5,183.5,45.5,168.5,45.5L101.5,45.5"></path><path id="kity_path_61" fill="none" stroke="rgb(115, 161, 191)" stroke-width="1" d="M198.5,57.5C183.5,57.5,183.5,97.5,168.5,97.5L20.5,97.5"></path><path id="kity_path_63" fill="none" stroke="rgb(115, 161, 191)" stroke-width="1" d="M426.5,262.5A158,39,0,0,0,268.5,223.5"></path><path id="kity_path_65" fill="none" stroke="rgb(115, 161, 191)" stroke-width="1" d="M170.5,223.5C155.5,223.5,155.5,159.5,140.5,159.5L63.5,159.5"></path><path id="kity_path_67" fill="none" stroke="rgb(115, 161, 191)" stroke-width="1" d="M170.5,223.5C155.5,223.5,155.5,211.5,140.5,211.5L63.5,211.5"></path><path id="kity_path_69" fill="none" stroke="rgb(115, 161, 191)" stroke-width="1" d="M170.5,223.5C155.5,223.5,155.5,263.5,140.5,263.5L55.5,263.5"></path><path id="kity_path_71" fill="none" stroke="rgb(115, 161, 191)" stroke-width="1" d="M170.5,223.5C155.5,223.5,155.5,315.5,140.5,315.5L63.5,315.5"></path><path id="kity_path_73" fill="none" stroke="rgb(115, 161, 191)" stroke-width="1" d="M426.5,262.5A158,205,0,0,1,268.5,467.5"></path><path id="kity_path_75" fill="none" stroke="rgb(115, 161, 191)" stroke-width="1" d="M170.5,467.5C155.5,467.5,155.5,377.5,140.5,377.5L86.5,377.5"></path><path id="kity_path_77" fill="none" stroke="rgb(115, 161, 191)" stroke-width="1" d="M170.5,467.5C155.5,467.5,155.5,429.5,140.5,429.5L86.5,429.5"></path><path id="kity_path_79" fill="none" stroke="rgb(115, 161, 191)" stroke-width="1" d="M170.5,467.5C155.5,467.5,155.5,481.5,140.5,481.5L86.5,481.5"></path><path id="kity_path_81" fill="none" stroke="rgb(115, 161, 191)" stroke-width="1" d="M170.5,467.5C155.5,467.5,155.5,533.5,140.5,533.5L86.5,533.5"></path><path id="kity_path_83" fill="none" stroke="rgb(115, 161, 191)" stroke-width="1" d="M170.5,467.5C155.5,467.5,155.5,585.5,140.5,585.5L50.5,585.5"></path></g><g id="minder_node1"><path id="node_outline1" fill="rgb(115, 161, 191)" stroke="rgb(57, 80, 96)" d="M391.5,242.5h70a5,5,0,0,1,5,5v30a5,5,0,0,1,-5,5h-70a5,5,0,0,1,-5,-5v-30a5,5,0,0,1,5,-5z" stroke-width="3"></path><g id="node_text1" fill="white"><text id="kity_text_22" text-rendering="inherit" font-size="16" dy=".8em" y="254.5" x="410.5">概述</text></g></g><g id="kity_g_12"><path id="kity_path_13" fill="none" stroke="none" d="M410.5,262.5h0v0h0z"></path></g><g id="kity_g_14"><path id="kity_path_15" fill="none" stroke="none" d="M410.5,262.5h0v0h0z"></path><path id="kity_path_16" fill="none" stroke="none"></path></g><g id="minder_node2"><g id="node_expander1" display="none" style="cursor: pointer;"><path id="kity_path_166" fill="white" stroke="gray" d="M585.5,64.5A6,6,0,1,1,573.5,64.5A6,6,0,1,1,585.5,64.5"></path><path id="kity_path_167" fill="none" stroke="gray"></path></g><path id="node_outline2" fill="rgb(238, 243, 246)" stroke="rgb(115, 161, 191)" d="M589.5,51.5h132a3,3,0,0,1,3,3v20a3,3,0,0,1,-3,3h-132a3,3,0,0,1,-3,-3v-20a3,3,0,0,1,3,-3z" stroke-width="1"></path><g id="node_text2" fill="black"><text id="kity_text_85" text-rendering="inherit" font-size="14" dy=".8em" y="57.5" x="606.5">客户端与服务端</text></g></g><g id="minder_node3"><g id="node_expander6" style="cursor: pointer;"><path id="kity_path_181" fill="white" stroke="gray" d="M585.5,167.5A6,6,0,1,1,573.5,167.5A6,6,0,1,1,585.5,167.5"></path><path id="kity_path_182" fill="none" stroke="gray" d="M575,167.5L584,167.5"></path></g><path id="node_outline7" fill="rgb(238, 243, 246)" stroke="rgb(115, 161, 191)" d="M589.5,154.5h62a3,3,0,0,1,3,3v20a3,3,0,0,1,-3,3h-62a3,3,0,0,1,-3,-3v-20a3,3,0,0,1,3,-3z" stroke-width="1"></path><g id="node_text7" fill="black"><text id="kity_text_95" text-rendering="inherit" font-size="14" dy=".8em" y="160.5" x="606.5">资源</text></g></g><g id="minder_node4"><g id="node_expander2" display="none" style="cursor: pointer;"><path id="kity_path_169" fill="white" stroke="gray" d="M694.5,128.5A6,6,0,1,1,682.5,128.5A6,6,0,1,1,694.5,128.5"></path><path id="kity_path_170" fill="none" stroke="gray"></path></g><path id="node_outline3" fill="none" stroke="none" d="M699.5,117.5h41a5,5,0,0,1,5,5v12a5,5,0,0,1,-5,5h-41a5,5,0,0,1,-5,-5v-12a5,5,0,0,1,5,-5z"></path><g id="node_text3" fill="black"><text id="kity_text_87" text-rendering="inherit" font-size="12" dy=".8em" y="122.5" x="704.5">MIME</text></g></g><g id="minder_node5"><g id="node_expander5" style="cursor: pointer;"><path id="kity_path_178" fill="white" stroke="gray" d="M694.5,206.5A6,6,0,1,1,682.5,206.5A6,6,0,1,1,694.5,206.5"></path><path id="kity_path_179" fill="none" stroke="gray" d="M684,206.5L693,206.5"></path></g><path id="node_outline6" fill="none" stroke="none" d="M699.5,195.5h28a5,5,0,0,1,5,5v12a5,5,0,0,1,-5,5h-28a5,5,0,0,1,-5,-5v-12a5,5,0,0,1,5,-5z"></path><g id="node_text6" fill="black"><text id="kity_text_93" text-rendering="inherit" font-size="12" dy=".8em" y="200.5" x="704.5">URI</text></g></g><g id="minder_node6"><g id="node_expander3" display="none" style="cursor: pointer;"><path id="kity_path_172" fill="white" stroke="gray" d="M772.5,180.5A6,6,0,1,1,760.5,180.5A6,6,0,1,1,772.5,180.5"></path><path id="kity_path_173" fill="none" stroke="gray"></path></g><path id="node_outline4" fill="none" stroke="none" d="M777.5,169.5h31a5,5,0,0,1,5,5v12a5,5,0,0,1,-5,5h-31a5,5,0,0,1,-5,-5v-12a5,5,0,0,1,5,-5z"></path><g id="node_text4" fill="black"><text id="kity_text_89" text-rendering="inherit" font-size="12" dy=".8em" y="174.5" x="782.5">URL</text></g></g><g id="minder_node7"><g id="node_expander4" display="none" style="cursor: pointer;"><path id="kity_path_175" fill="white" stroke="gray" d="M772.5,232.5A6,6,0,1,1,760.5,232.5A6,6,0,1,1,772.5,232.5"></path><path id="kity_path_176" fill="none" stroke="gray"></path></g><path id="node_outline5" fill="none" stroke="none" d="M777.5,221.5h34a5,5,0,0,1,5,5v12a5,5,0,0,1,-5,5h-34a5,5,0,0,1,-5,-5v-12a5,5,0,0,1,5,-5z"></path><g id="node_text5" fill="black"><text id="kity_text_91" text-rendering="inherit" font-size="12" dy=".8em" y="226.5" x="782.5">URN</text></g></g><g id="minder_node8"><g id="node_expander9" style="cursor: pointer;"><path id="kity_path_190" fill="white" stroke="gray" d="M585.5,320.5A6,6,0,1,1,573.5,320.5A6,6,0,1,1,585.5,320.5"></path><path id="kity_path_191" fill="none" stroke="gray" d="M575,320.5L584,320.5"></path></g><path id="node_outline10" fill="rgb(238, 243, 246)" stroke="rgb(115, 161, 191)" d="M589.5,307.5h62a3,3,0,0,1,3,3v20a3,3,0,0,1,-3,3h-62a3,3,0,0,1,-3,-3v-20a3,3,0,0,1,3,-3z" stroke-width="1"></path><g id="node_text10" fill="black"><text id="kity_text_101" text-rendering="inherit" font-size="14" dy=".8em" y="313.5" x="606.5">事务</text></g></g><g id="minder_node9"><g id="node_expander7" display="none" style="cursor: pointer;"><path id="kity_path_184" fill="white" stroke="gray" d="M694.5,294.5A6,6,0,1,1,682.5,294.5A6,6,0,1,1,694.5,294.5"></path><path id="kity_path_185" fill="none" stroke="gray"></path></g><path id="node_outline8" fill="none" stroke="none" d="M699.5,283.5h34a5,5,0,0,1,5,5v12a5,5,0,0,1,-5,5h-34a5,5,0,0,1,-5,-5v-12a5,5,0,0,1,5,-5z"></path><g id="node_text8" fill="black"><text id="kity_text_97" text-rendering="inherit" font-size="12" dy=".8em" y="288.5" x="704.5">方法</text></g></g><g id="minder_node10"><g id="node_expander8" display="none" style="cursor: pointer;"><path id="kity_path_187" fill="white" stroke="gray" d="M694.5,346.5A6,6,0,1,1,682.5,346.5A6,6,0,1,1,694.5,346.5"></path><path id="kity_path_188" fill="none" stroke="gray"></path></g><path id="node_outline9" fill="none" stroke="none" d="M699.5,335.5h46a5,5,0,0,1,5,5v12a5,5,0,0,1,-5,5h-46a5,5,0,0,1,-5,-5v-12a5,5,0,0,1,5,-5z"></path><g id="node_text9" fill="black"><text id="kity_text_99" text-rendering="inherit" font-size="12" dy=".8em" y="340.5" x="704.5">状态法</text></g></g><g id="minder_node11"><g id="node_expander13" style="cursor: pointer;"><path id="kity_path_202" fill="white" stroke="gray" d="M585.5,460.5A6,6,0,1,1,573.5,460.5A6,6,0,1,1,585.5,460.5"></path><path id="kity_path_203" fill="none" stroke="gray" d="M575,460.5L584,460.5"></path></g><path id="node_outline14" fill="rgb(238, 243, 246)" stroke="rgb(115, 161, 191)" d="M589.5,447.5h62a3,3,0,0,1,3,3v20a3,3,0,0,1,-3,3h-62a3,3,0,0,1,-3,-3v-20a3,3,0,0,1,3,-3z" stroke-width="1"></path><g id="node_text14" fill="black"><text id="kity_text_109" text-rendering="inherit" font-size="14" dy=".8em" y="453.5" x="606.5">报文</text></g></g><g id="minder_node12"><g id="node_expander10" display="none" style="cursor: pointer;"><path id="kity_path_193" fill="white" stroke="gray" d="M694.5,408.5A6,6,0,1,1,682.5,408.5A6,6,0,1,1,694.5,408.5"></path><path id="kity_path_194" fill="none" stroke="gray"></path></g><path id="node_outline11" fill="none" stroke="none" d="M699.5,397.5h46a5,5,0,0,1,5,5v12a5,5,0,0,1,-5,5h-46a5,5,0,0,1,-5,-5v-12a5,5,0,0,1,5,-5z"></path><g id="node_text11" fill="black"><text id="kity_text_103" text-rendering="inherit" font-size="12" dy=".8em" y="402.5" x="704.5">起始行</text></g></g><g id="minder_node13"><g id="node_expander11" display="none" style="cursor: pointer;"><path id="kity_path_196" fill="white" stroke="gray" d="M694.5,460.5A6,6,0,1,1,682.5,460.5A6,6,0,1,1,694.5,460.5"></path><path id="kity_path_197" fill="none" stroke="gray"></path></g><path id="node_outline12" fill="none" stroke="none" d="M699.5,449.5h58a5,5,0,0,1,5,5v12a5,5,0,0,1,-5,5h-58a5,5,0,0,1,-5,-5v-12a5,5,0,0,1,5,-5z"></path><g id="node_text12" fill="black"><text id="kity_text_105" text-rendering="inherit" font-size="12" dy=".8em" y="454.5" x="704.5">首部字段</text></g></g><g id="minder_node14"><g id="node_expander12" display="none" style="cursor: pointer;"><path id="kity_path_199" fill="white" stroke="gray" d="M694.5,512.5A6,6,0,1,1,682.5,512.5A6,6,0,1,1,694.5,512.5"></path><path id="kity_path_200" fill="none" stroke="gray"></path></g><path id="node_outline13" fill="none" stroke="none" d="M699.5,501.5h34a5,5,0,0,1,5,5v12a5,5,0,0,1,-5,5h-34a5,5,0,0,1,-5,-5v-12a5,5,0,0,1,5,-5z"></path><g id="node_text13" fill="black"><text id="kity_text_107" text-rendering="inherit" font-size="12" dy=".8em" y="506.5" x="704.5">主体</text></g></g><g id="minder_node15"><g id="node_expander16" style="cursor: pointer;"><path id="kity_path_211" fill="white" stroke="gray" d="M279.5,57.5A6,6,0,1,1,267.5,57.5A6,6,0,1,1,279.5,57.5"></path><path id="kity_path_212" fill="none" stroke="gray" d="M269,57.5L278,57.5"></path></g><path id="node_outline17" fill="rgb(238, 243, 246)" stroke="rgb(115, 161, 191)" d="M201.5,44.5h62a3,3,0,0,1,3,3v20a3,3,0,0,1,-3,3h-62a3,3,0,0,1,-3,-3v-20a3,3,0,0,1,3,-3z" stroke-width="1"></path><g id="node_text17" fill="black"><text id="kity_text_115" text-rendering="inherit" font-size="14" dy=".8em" y="50.5" x="218.5">连接</text></g></g><g id="minder_node16"><g id="node_expander14" display="none" style="cursor: pointer;"><path id="kity_path_205" fill="white" stroke="gray" d="M170.5,31.5A6,6,0,1,1,158.5,31.5A6,6,0,1,1,170.5,31.5"></path><path id="kity_path_206" fill="none" stroke="gray"></path></g><path id="node_outline15" fill="none" stroke="none" d="M106.5,20.5h47a5,5,0,0,1,5,5v12a5,5,0,0,1,-5,5h-47a5,5,0,0,1,-5,-5v-12a5,5,0,0,1,5,-5z"></path><g id="node_text15" fill="black"><text id="kity_text_111" text-rendering="inherit" font-size="12" dy=".8em" y="25.5" x="111.5">TCP/IP</text></g></g><g id="minder_node17"><g id="node_expander15" display="none" style="cursor: pointer;"><path id="kity_path_208" fill="white" stroke="gray" d="M170.5,83.5A6,6,0,1,1,158.5,83.5A6,6,0,1,1,170.5,83.5"></path><path id="kity_path_209" fill="none" stroke="gray"></path></g><path id="node_outline16" fill="none" stroke="none" d="M25.5,72.5h128a5,5,0,0,1,5,5v12a5,5,0,0,1,-5,5h-128a5,5,0,0,1,-5,-5v-12a5,5,0,0,1,5,-5z"></path><g id="node_text16" fill="black"><text id="kity_text_113" text-rendering="inherit" font-size="12" dy=".8em" y="77.5" x="30.5">连接、IP地址及端口号</text></g></g><g id="minder_node18"><g id="node_expander21" style="cursor: pointer;"><path id="kity_path_226" fill="white" stroke="gray" d="M279.5,223.5A6,6,0,1,1,267.5,223.5A6,6,0,1,1,279.5,223.5"></path><path id="kity_path_227" fill="none" stroke="gray" d="M269,223.5L278,223.5"></path></g><path id="node_outline22" fill="rgb(238, 243, 246)" stroke="rgb(115, 161, 191)" d="M173.5,210.5h90a3,3,0,0,1,3,3v20a3,3,0,0,1,-3,3h-90a3,3,0,0,1,-3,-3v-20a3,3,0,0,1,3,-3z" stroke-width="1"></path><g id="node_text22" fill="black"><text id="kity_text_125" text-rendering="inherit" font-size="14" dy=".8em" y="216.5" x="190.5">协议版本</text></g></g><g id="minder_node19"><g id="node_expander17" display="none" style="cursor: pointer;"><path id="kity_path_214" fill="white" stroke="gray" d="M142.5,145.5A6,6,0,1,1,130.5,145.5A6,6,0,1,1,142.5,145.5"></path><path id="kity_path_215" fill="none" stroke="gray"></path></g><path id="node_outline18" fill="none" stroke="none" d="M68.5,134.5h57a5,5,0,0,1,5,5v12a5,5,0,0,1,-5,5h-57a5,5,0,0,1,-5,-5v-12a5,5,0,0,1,5,-5z"></path><g id="node_text18" fill="black"><text id="kity_text_117" text-rendering="inherit" font-size="12" dy=".8em" y="139.5" x="73.5">HTTP/0.9</text></g></g><g id="minder_node20"><g id="node_expander18" display="none" style="cursor: pointer;"><path id="kity_path_217" fill="white" stroke="gray" d="M142.5,197.5A6,6,0,1,1,130.5,197.5A6,6,0,1,1,142.5,197.5"></path><path id="kity_path_218" fill="none" stroke="gray"></path></g><path id="node_outline19" fill="none" stroke="none" d="M68.5,186.5h57a5,5,0,0,1,5,5v12a5,5,0,0,1,-5,5h-57a5,5,0,0,1,-5,-5v-12a5,5,0,0,1,5,-5z"></path><g id="node_text19" fill="black"><text id="kity_text_119" text-rendering="inherit" font-size="12" dy=".8em" y="191.5" x="73.5">HTTP/1.0</text></g></g><g id="minder_node21"><g id="node_expander19" display="none" style="cursor: pointer;"><path id="kity_path_220" fill="white" stroke="gray" d="M142.5,249.5A6,6,0,1,1,130.5,249.5A6,6,0,1,1,142.5,249.5"></path><path id="kity_path_221" fill="none" stroke="gray"></path></g><path id="node_outline20" fill="none" stroke="none" d="M60.5,238.5h65a5,5,0,0,1,5,5v12a5,5,0,0,1,-5,5h-65a5,5,0,0,1,-5,-5v-12a5,5,0,0,1,5,-5z"></path><g id="node_text20" fill="black"><text id="kity_text_121" text-rendering="inherit" font-size="12" dy=".8em" y="243.5" x="65.5">HTTP/1.0+</text></g></g><g id="minder_node22"><g id="node_expander20" display="none" style="cursor: pointer;"><path id="kity_path_223" fill="white" stroke="gray" d="M142.5,301.5A6,6,0,1,1,130.5,301.5A6,6,0,1,1,142.5,301.5"></path><path id="kity_path_224" fill="none" stroke="gray"></path></g><path id="node_outline21" fill="none" stroke="none" d="M68.5,290.5h57a5,5,0,0,1,5,5v12a5,5,0,0,1,-5,5h-57a5,5,0,0,1,-5,-5v-12a5,5,0,0,1,5,-5z"></path><g id="node_text21" fill="black"><text id="kity_text_123" text-rendering="inherit" font-size="12" dy=".8em" y="295.5" x="73.5">HTTP/1.1</text></g></g><g id="minder_node23"><g id="node_expander27" style="cursor: pointer;"><path id="kity_path_244" fill="white" stroke="gray" d="M279.5,467.5A6,6,0,1,1,267.5,467.5A6,6,0,1,1,279.5,467.5"></path><path id="kity_path_245" fill="none" stroke="gray" d="M269,467.5L278,467.5"></path></g><path id="node_outline28" fill="rgb(238, 243, 246)" stroke="rgb(115, 161, 191)" d="M173.5,454.5h90a3,3,0,0,1,3,3v20a3,3,0,0,1,-3,3h-90a3,3,0,0,1,-3,-3v-20a3,3,0,0,1,3,-3z" stroke-width="1"></path><g id="node_text28" fill="black"><text id="kity_text_137" text-rendering="inherit" font-size="14" dy=".8em" y="460.5" x="190.5">结构组件</text></g></g><g id="minder_node24"><g id="node_expander22" display="none" style="cursor: pointer;"><path id="kity_path_229" fill="white" stroke="gray" d="M142.5,363.5A6,6,0,1,1,130.5,363.5A6,6,0,1,1,142.5,363.5"></path><path id="kity_path_230" fill="none" stroke="gray"></path></g><path id="node_outline23" fill="none" stroke="none" d="M91.5,352.5h34a5,5,0,0,1,5,5v12a5,5,0,0,1,-5,5h-34a5,5,0,0,1,-5,-5v-12a5,5,0,0,1,5,-5z"></path><g id="node_text23" fill="black"><text id="kity_text_127" text-rendering="inherit" font-size="12" dy=".8em" y="357.5" x="96.5">代理</text></g></g><g id="minder_node25"><g id="node_expander23" display="none" style="cursor: pointer;"><path id="kity_path_232" fill="white" stroke="gray" d="M142.5,415.5A6,6,0,1,1,130.5,415.5A6,6,0,1,1,142.5,415.5"></path><path id="kity_path_233" fill="none" stroke="gray"></path></g><path id="node_outline24" fill="none" stroke="none" d="M91.5,404.5h34a5,5,0,0,1,5,5v12a5,5,0,0,1,-5,5h-34a5,5,0,0,1,-5,-5v-12a5,5,0,0,1,5,-5z"></path><g id="node_text24" fill="black"><text id="kity_text_129" text-rendering="inherit" font-size="12" dy=".8em" y="409.5" x="96.5">缓存</text></g></g><g id="minder_node26"><g id="node_expander24" display="none" style="cursor: pointer;"><path id="kity_path_235" fill="white" stroke="gray" d="M142.5,467.5A6,6,0,1,1,130.5,467.5A6,6,0,1,1,142.5,467.5"></path><path id="kity_path_236" fill="none" stroke="gray"></path></g><path id="node_outline25" fill="none" stroke="none" d="M91.5,456.5h34a5,5,0,0,1,5,5v12a5,5,0,0,1,-5,5h-34a5,5,0,0,1,-5,-5v-12a5,5,0,0,1,5,-5z"></path><g id="node_text25" fill="black"><text id="kity_text_131" text-rendering="inherit" font-size="12" dy=".8em" y="461.5" x="96.5">网关</text></g></g><g id="minder_node27"><g id="node_expander25" display="none" style="cursor: pointer;"><path id="kity_path_238" fill="white" stroke="gray" d="M142.5,519.5A6,6,0,1,1,130.5,519.5A6,6,0,1,1,142.5,519.5"></path><path id="kity_path_239" fill="none" stroke="gray"></path></g><path id="node_outline26" fill="none" stroke="none" d="M91.5,508.5h34a5,5,0,0,1,5,5v12a5,5,0,0,1,-5,5h-34a5,5,0,0,1,-5,-5v-12a5,5,0,0,1,5,-5z"></path><g id="node_text26" fill="black"><text id="kity_text_133" text-rendering="inherit" font-size="12" dy=".8em" y="513.5" x="96.5">隧道</text></g></g><g id="minder_node28"><g id="node_expander26" display="none" style="cursor: pointer;"><path id="kity_path_241" fill="white" stroke="gray" d="M142.5,571.5A6,6,0,1,1,130.5,571.5A6,6,0,1,1,142.5,571.5"></path><path id="kity_path_242" fill="none" stroke="gray"></path></g><path id="node_outline27" fill="none" stroke="none" d="M55.5,560.5h70a5,5,0,0,1,5,5v12a5,5,0,0,1,-5,5h-70a5,5,0,0,1,-5,-5v-12a5,5,0,0,1,5,-5z"></path><g id="node_text27" fill="black"><text id="kity_text_135" text-rendering="inherit" font-size="12" dy=".8em" y="565.5" x="60.5">Agent代理</text></g></g></g></g></svg>