<svg id="kity_svg_6" xmlns="http://www.w3.org/2000/svg" xmlns:xlink="http://www.w3.org/1999/xlink" version="1.1" width="858" height="1174" style="background: rgb(251, 251, 251); visibility: visible;" viewBox="0 0 858 1174"><defs id="kity_defs_7"><linearGradient id="kity_linearGradient_17" x1="0" y1="0" x2="0" y2="1"><stop id="kity_stop_18" offset="0" stop-color="rgb(255, 255, 255)"></stop><stop id="kity_stop_19" offset="1" stop-color="rgb(204, 204, 204)"></stop></linearGradient><marker id="kity_marker_2" orient="auto" refX="6" refY="0" viewBox="-7 -7 14 14" markerWidth="7" markerHeight="7" markerUnits="userSpaceOnUse"><path id="kity_path_3" fill="rgb(115, 161, 191)" stroke="none" d="M6,0A6,6,0,1,1,-6,0A6,6,0,1,1,6,0"></path></marker></defs><g id="kity_g_8"><g id="minder1" text-rendering="optimize-speed"><g id="minder_connect_group1"><path id="kity_path_31" fill="none" stroke="rgb(115, 161, 191)" stroke-width="1" d="M60.5,587.5A158,478,0,0,1,218.5,109.5"></path><path id="kity_path_33" fill="none" stroke="rgb(115, 161, 191)" stroke-width="1" d="M288.5,109.5C308.5,109.5,308.5,31.5,328.5,31.5"></path><path id="kity_path_35" fill="none" stroke="rgb(115, 161, 191)" stroke-width="1" d="M288.5,109.5C308.5,109.5,308.5,83.5,328.5,83.5"></path><path id="kity_path_37" fill="none" stroke="rgb(115, 161, 191)" stroke-width="1" d="M288.5,109.5C308.5,109.5,308.5,135.5,328.5,135.5"></path><path id="kity_path_39" fill="none" stroke="rgb(115, 161, 191)" stroke-width="1" d="M288.5,109.5C308.5,109.5,308.5,187.5,328.5,187.5"></path><path id="kity_path_41" fill="none" stroke="rgb(115, 161, 191)" stroke-width="1" d="M60.5,587.5A158,13,0,0,0,218.5,600.5"></path><path id="kity_path_43" fill="none" stroke="rgb(115, 161, 191)" stroke-width="1" d="M309.5,600.5C329.5,600.5,329.5,275.5,349.5,275.5"></path><path id="kity_path_45" fill="none" stroke="rgb(115, 161, 191)" stroke-width="1" d="M393.5,275.5C413.5,275.5,413.5,249.5,433.5,249.5"></path><path id="kity_path_47" fill="none" stroke="rgb(115, 161, 191)" stroke-width="1" d="M393.5,275.5C413.5,275.5,413.5,301.5,433.5,301.5"></path><path id="kity_path_49" fill="none" stroke="rgb(115, 161, 191)" stroke-width="1" d="M309.5,600.5C329.5,600.5,329.5,353.5,349.5,353.5"></path><path id="kity_path_51" fill="none" stroke="rgb(115, 161, 191)" stroke-width="1" d="M417.5,353.5C437.5,353.5,437.5,353.5,457.5,353.5"></path><path id="kity_path_53" fill="none" stroke="rgb(115, 161, 191)" stroke-width="1" d="M309.5,600.5C329.5,600.5,329.5,405.5,349.5,405.5"></path><path id="kity_path_55" fill="none" stroke="rgb(115, 161, 191)" stroke-width="1" d="M493.5,405.5C513.5,405.5,513.5,405.5,533.5,405.5"></path><path id="kity_path_57" fill="none" stroke="rgb(115, 161, 191)" stroke-width="1" d="M309.5,600.5C329.5,600.5,329.5,483.5,349.5,483.5"></path><path id="kity_path_59" fill="none" stroke="rgb(115, 161, 191)" stroke-width="1" d="M505.5,483.5C525.5,483.5,525.5,457.5,545.5,457.5"></path><path id="kity_path_61" fill="none" stroke="rgb(115, 161, 191)" stroke-width="1" d="M505.5,483.5C525.5,483.5,525.5,509.5,545.5,509.5"></path><path id="kity_path_63" fill="none" stroke="rgb(115, 161, 191)" stroke-width="1" d="M309.5,600.5C329.5,600.5,329.5,756.5,349.5,756.5"></path><path id="kity_path_65" fill="none" stroke="rgb(115, 161, 191)" stroke-width="1" d="M393.5,756.5C413.5,756.5,413.5,665.5,433.5,665.5"></path><path id="kity_path_67" fill="none" stroke="rgb(115, 161, 191)" stroke-width="1" d="M550.5,665.5C570.5,665.5,570.5,665.5,590.5,665.5"></path><path id="kity_path_69" fill="none" stroke="rgb(115, 161, 191)" stroke-width="1" d="M698.5,665.5C718.5,665.5,718.5,561.5,738.5,561.5"></path><path id="kity_path_71" fill="none" stroke="rgb(115, 161, 191)" stroke-width="1" d="M698.5,665.5C718.5,665.5,718.5,613.5,738.5,613.5"></path><path id="kity_path_73" fill="none" stroke="rgb(115, 161, 191)" stroke-width="1" d="M698.5,665.5C718.5,665.5,718.5,665.5,738.5,665.5"></path><path id="kity_path_75" fill="none" stroke="rgb(115, 161, 191)" stroke-width="1" d="M698.5,665.5C718.5,665.5,718.5,717.5,738.5,717.5"></path><path id="kity_path_77" fill="none" stroke="rgb(115, 161, 191)" stroke-width="1" d="M698.5,665.5C718.5,665.5,718.5,769.5,738.5,769.5"></path><path id="kity_path_79" fill="none" stroke="rgb(115, 161, 191)" stroke-width="1" d="M393.5,756.5C413.5,756.5,413.5,847.5,433.5,847.5"></path><path id="kity_path_81" fill="none" stroke="rgb(115, 161, 191)" stroke-width="1" d="M545.5,847.5C565.5,847.5,565.5,821.5,585.5,821.5"></path><path id="kity_path_83" fill="none" stroke="rgb(115, 161, 191)" stroke-width="1" d="M545.5,847.5C565.5,847.5,565.5,873.5,585.5,873.5"></path><path id="kity_path_85" fill="none" stroke="rgb(115, 161, 191)" stroke-width="1" d="M309.5,600.5C329.5,600.5,329.5,925.5,349.5,925.5"></path><path id="kity_path_87" fill="none" stroke="rgb(115, 161, 191)" stroke-width="1" d="M60.5,587.5A158,478,0,0,0,218.5,1065.5"></path><path id="kity_path_89" fill="none" stroke="rgb(115, 161, 191)" stroke-width="1" d="M316.5,1065.5C336.5,1065.5,336.5,987.5,356.5,987.5"></path><path id="kity_path_91" fill="none" stroke="rgb(115, 161, 191)" stroke-width="1" d="M426.5,987.5C446.5,987.5,446.5,987.5,466.5,987.5"></path><path id="kity_path_93" fill="none" stroke="rgb(115, 161, 191)" stroke-width="1" d="M316.5,1065.5C336.5,1065.5,336.5,1039.5,356.5,1039.5"></path><path id="kity_path_95" fill="none" stroke="rgb(115, 161, 191)" stroke-width="1" d="M316.5,1065.5C336.5,1065.5,336.5,1091.5,356.5,1091.5"></path><path id="kity_path_97" fill="none" stroke="rgb(115, 161, 191)" stroke-width="1" d="M424.5,1091.5C444.5,1091.5,444.5,1091.5,464.5,1091.5"></path><path id="kity_path_99" fill="none" stroke="rgb(115, 161, 191)" stroke-width="1" d="M316.5,1065.5C336.5,1065.5,336.5,1143.5,356.5,1143.5"></path><path id="kity_path_101" fill="none" stroke="rgb(115, 161, 191)" stroke-width="1" d="M409.5,1143.5C429.5,1143.5,429.5,1143.5,449.5,1143.5"></path></g><g id="minder_node1"><path id="node_outline1" fill="rgb(115, 161, 191)" stroke="rgb(57, 80, 96)" d="M25.5,567.5h70a5,5,0,0,1,5,5v30a5,5,0,0,1,-5,5h-70a5,5,0,0,1,-5,-5v-30a5,5,0,0,1,5,-5z" stroke-width="3"></path><g id="node_text1" fill="white"><text id="kity_text_22" text-rendering="inherit" font-size="16" dy=".8em" y="579.5" x="44.5">识别</text></g></g><g id="kity_g_12"><path id="kity_path_13" fill="none" stroke="none" d="M44.5,587.5h0v0h0z"></path></g><g id="kity_g_14"><path id="kity_path_15" fill="none" stroke="none" d="M44.5,587.5h0v0h0z"></path><path id="kity_path_16" fill="none" stroke="none"></path></g><g id="minder_node2"><g id="node_expander5" style="cursor: pointer;"><path id="kity_path_223" fill="white" stroke="gray" d="M219.5,109.5A6,6,0,1,1,207.5,109.5A6,6,0,1,1,219.5,109.5"></path><path id="kity_path_224" fill="none" stroke="gray" d="M209,109.5L218,109.5"></path></g><path id="node_outline6" fill="rgb(238, 243, 246)" stroke="rgb(115, 161, 191)" d="M223.5,96.5h62a3,3,0,0,1,3,3v20a3,3,0,0,1,-3,3h-62a3,3,0,0,1,-3,-3v-20a3,3,0,0,1,3,-3z" stroke-width="1"></path><g id="node_text6" fill="black"><text id="kity_text_111" text-rendering="inherit" font-size="14" dy=".8em" y="102.5" x="240.5">作用</text></g></g><g id="minder_node3"><g id="node_expander1" display="none" style="cursor: pointer;"><path id="kity_path_211" fill="white" stroke="gray" d="M328.5,31.5A6,6,0,1,1,316.5,31.5A6,6,0,1,1,328.5,31.5"></path><path id="kity_path_212" fill="none" stroke="gray"></path></g><path id="node_outline2" fill="none" stroke="none" d="M333.5,20.5h70a5,5,0,0,1,5,5v12a5,5,0,0,1,-5,5h-70a5,5,0,0,1,-5,-5v-12a5,5,0,0,1,5,-5z"></path><g id="node_text2" fill="black"><text id="kity_text_103" text-rendering="inherit" font-size="12" dy=".8em" y="25.5" x="338.5">个性化问候</text></g></g><g id="minder_node4"><g id="node_expander2" display="none" style="cursor: pointer;"><path id="kity_path_214" fill="white" stroke="gray" d="M328.5,83.5A6,6,0,1,1,316.5,83.5A6,6,0,1,1,328.5,83.5"></path><path id="kity_path_215" fill="none" stroke="gray"></path></g><path id="node_outline3" fill="none" stroke="none" d="M333.5,72.5h58a5,5,0,0,1,5,5v12a5,5,0,0,1,-5,5h-58a5,5,0,0,1,-5,-5v-12a5,5,0,0,1,5,-5z"></path><g id="node_text3" fill="black"><text id="kity_text_105" text-rendering="inherit" font-size="12" dy=".8em" y="77.5" x="338.5">信息存档</text></g></g><g id="minder_node5"><g id="node_expander3" display="none" style="cursor: pointer;"><path id="kity_path_217" fill="white" stroke="gray" d="M328.5,135.5A6,6,0,1,1,316.5,135.5A6,6,0,1,1,328.5,135.5"></path><path id="kity_path_218" fill="none" stroke="gray"></path></g><path id="node_outline4" fill="none" stroke="none" d="M333.5,124.5h34a5,5,0,0,1,5,5v12a5,5,0,0,1,-5,5h-34a5,5,0,0,1,-5,-5v-12a5,5,0,0,1,5,-5z"></path><g id="node_text4" fill="black"><text id="kity_text_107" text-rendering="inherit" font-size="12" dy=".8em" y="129.5" x="338.5">推荐</text></g></g><g id="minder_node6"><g id="node_expander4" display="none" style="cursor: pointer;"><path id="kity_path_220" fill="white" stroke="gray" d="M328.5,187.5A6,6,0,1,1,316.5,187.5A6,6,0,1,1,328.5,187.5"></path><path id="kity_path_221" fill="none" stroke="gray"></path></g><path id="node_outline5" fill="none" stroke="none" d="M333.5,176.5h58a5,5,0,0,1,5,5v12a5,5,0,0,1,-5,5h-58a5,5,0,0,1,-5,-5v-12a5,5,0,0,1,5,-5z"></path><g id="node_text5" fill="black"><text id="kity_text_109" text-rendering="inherit" font-size="12" dy=".8em" y="181.5" x="338.5">记录会话</text></g></g><g id="minder_node7"><g id="node_expander28" style="cursor: pointer;"><path id="kity_path_292" fill="white" stroke="gray" d="M219.5,600.5A6,6,0,1,1,207.5,600.5A6,6,0,1,1,219.5,600.5"></path><path id="kity_path_293" fill="none" stroke="gray" d="M209,600.5L218,600.5"></path></g><path id="node_outline29" fill="rgb(238, 243, 246)" stroke="rgb(115, 161, 191)" d="M223.5,587.5h83a3,3,0,0,1,3,3v20a3,3,0,0,1,-3,3h-83a3,3,0,0,1,-3,-3v-20a3,3,0,0,1,3,-3z" stroke-width="1"></path><g id="node_text29" fill="black"><text id="kity_text_157" text-rendering="inherit" font-size="14" dy=".8em" y="593.5" x="240.5">Cookie</text></g></g><g id="minder_node8"><g id="node_expander8" style="cursor: pointer;"><path id="kity_path_232" fill="white" stroke="gray" d="M349.5,275.5A6,6,0,1,1,337.5,275.5A6,6,0,1,1,349.5,275.5"></path><path id="kity_path_233" fill="none" stroke="gray" d="M339,275.5L348,275.5"></path></g><path id="node_outline9" fill="none" stroke="none" d="M354.5,264.5h34a5,5,0,0,1,5,5v12a5,5,0,0,1,-5,5h-34a5,5,0,0,1,-5,-5v-12a5,5,0,0,1,5,-5z"></path><g id="node_text9" fill="black"><text id="kity_text_117" text-rendering="inherit" font-size="12" dy=".8em" y="269.5" x="359.5">类型</text></g></g><g id="minder_node9"><g id="node_expander6" display="none" style="cursor: pointer;"><path id="kity_path_226" fill="white" stroke="gray" d="M433.5,249.5A6,6,0,1,1,421.5,249.5A6,6,0,1,1,433.5,249.5"></path><path id="kity_path_227" fill="none" stroke="gray"></path></g><path id="node_outline7" fill="none" stroke="none" d="M438.5,238.5h74a5,5,0,0,1,5,5v12a5,5,0,0,1,-5,5h-74a5,5,0,0,1,-5,-5v-12a5,5,0,0,1,5,-5z"></path><g id="node_text7" fill="black"><text id="kity_text_113" text-rendering="inherit" font-size="12" dy=".8em" y="243.5" x="443.5">会话cookie</text></g></g><g id="minder_node10"><g id="node_expander7" display="none" style="cursor: pointer;"><path id="kity_path_229" fill="white" stroke="gray" d="M433.5,301.5A6,6,0,1,1,421.5,301.5A6,6,0,1,1,433.5,301.5"></path><path id="kity_path_230" fill="none" stroke="gray"></path></g><path id="node_outline8" fill="none" stroke="none" d="M438.5,290.5h74a5,5,0,0,1,5,5v12a5,5,0,0,1,-5,5h-74a5,5,0,0,1,-5,-5v-12a5,5,0,0,1,5,-5z"></path><g id="node_text8" fill="black"><text id="kity_text_115" text-rendering="inherit" font-size="12" dy=".8em" y="295.5" x="443.5">持久cookie</text></g></g><g id="minder_node11"><g id="node_expander10" style="cursor: pointer;"><path id="kity_path_238" fill="white" stroke="gray" d="M349.5,353.5A6,6,0,1,1,337.5,353.5A6,6,0,1,1,349.5,353.5"></path><path id="kity_path_239" fill="none" stroke="gray" d="M339,353.5L348,353.5"></path></g><path id="node_outline11" fill="none" stroke="none" d="M354.5,342.5h58a5,5,0,0,1,5,5v12a5,5,0,0,1,-5,5h-58a5,5,0,0,1,-5,-5v-12a5,5,0,0,1,5,-5z"></path><g id="node_text11" fill="black"><text id="kity_text_121" text-rendering="inherit" font-size="12" dy=".8em" y="347.5" x="359.5">如何工作</text></g></g><g id="minder_node12"><g id="node_expander9" display="none" style="cursor: pointer;"><path id="kity_path_235" fill="white" stroke="gray" d="M457.5,353.5A6,6,0,1,1,445.5,353.5A6,6,0,1,1,457.5,353.5"></path><path id="kity_path_236" fill="none" stroke="gray"></path></g><path id="node_outline10" fill="none" stroke="none" d="M462.5,342.5h200a5,5,0,0,1,5,5v12a5,5,0,0,1,-5,5h-200a5,5,0,0,1,-5,-5v-12a5,5,0,0,1,5,-5z"></path><g id="node_text10" fill="black"><text id="kity_text_119" text-rendering="inherit" font-size="12" dy=".8em" y="347.5" x="467.5">服务器给客户端的贴纸：嗨，我叫...</text></g></g><g id="minder_node13"><g id="node_expander12" style="cursor: pointer;"><path id="kity_path_244" fill="white" stroke="gray" d="M349.5,405.5A6,6,0,1,1,337.5,405.5A6,6,0,1,1,349.5,405.5"></path><path id="kity_path_245" fill="none" stroke="gray" d="M339,405.5L348,405.5"></path></g><path id="node_outline13" fill="none" stroke="none" d="M354.5,394.5h134a5,5,0,0,1,5,5v12a5,5,0,0,1,-5,5h-134a5,5,0,0,1,-5,-5v-12a5,5,0,0,1,5,-5z"></path><g id="node_text13" fill="black"><text id="kity_text_125" text-rendering="inherit" font-size="12" dy=".8em" y="399.5" x="359.5">cookie罐：客户端状态</text></g></g><g id="minder_node14"><g id="node_expander11" display="none" style="cursor: pointer;"><path id="kity_path_241" fill="white" stroke="gray" d="M533.5,405.5A6,6,0,1,1,521.5,405.5A6,6,0,1,1,533.5,405.5"></path><path id="kity_path_242" fill="none" stroke="gray"></path></g><path id="node_outline12" fill="none" stroke="none" d="M538.5,394.5h108a5,5,0,0,1,5,5v12a5,5,0,0,1,-5,5h-108a5,5,0,0,1,-5,-5v-12a5,5,0,0,1,5,-5z"></path><g id="node_text12" fill="black"><text id="kity_text_123" text-rendering="inherit" font-size="12" dy=".8em" y="399.5" x="543.5">HTTP状态管理机制</text></g></g><g id="minder_node15"><g id="node_expander15" style="cursor: pointer;"><path id="kity_path_253" fill="white" stroke="gray" d="M349.5,483.5A6,6,0,1,1,337.5,483.5A6,6,0,1,1,349.5,483.5"></path><path id="kity_path_254" fill="none" stroke="gray" d="M339,483.5L348,483.5"></path></g><path id="node_outline16" fill="none" stroke="none" d="M354.5,472.5h146a5,5,0,0,1,5,5v12a5,5,0,0,1,-5,5h-146a5,5,0,0,1,-5,-5v-12a5,5,0,0,1,5,-5z"></path><g id="node_text16" fill="black"><text id="kity_text_131" text-rendering="inherit" font-size="12" dy=".8em" y="477.5" x="359.5">不同站点使用不同cookie</text></g></g><g id="minder_node16"><g id="node_expander13" display="none" style="cursor: pointer;"><path id="kity_path_247" fill="white" stroke="gray" d="M545.5,457.5A6,6,0,1,1,533.5,457.5A6,6,0,1,1,545.5,457.5"></path><path id="kity_path_248" fill="none" stroke="gray"></path></g><path id="node_outline14" fill="none" stroke="none" d="M550.5,446.5h86a5,5,0,0,1,5,5v12a5,5,0,0,1,-5,5h-86a5,5,0,0,1,-5,-5v-12a5,5,0,0,1,5,-5z"></path><g id="node_text14" fill="black"><text id="kity_text_127" text-rendering="inherit" font-size="12" dy=".8em" y="451.5" x="555.5">cookie域属性</text></g></g><g id="minder_node17"><g id="node_expander14" display="none" style="cursor: pointer;"><path id="kity_path_250" fill="white" stroke="gray" d="M545.5,509.5A6,6,0,1,1,533.5,509.5A6,6,0,1,1,545.5,509.5"></path><path id="kity_path_251" fill="none" stroke="gray"></path></g><path id="node_outline15" fill="none" stroke="none" d="M550.5,498.5h98a5,5,0,0,1,5,5v12a5,5,0,0,1,-5,5h-98a5,5,0,0,1,-5,-5v-12a5,5,0,0,1,5,-5z"></path><g id="node_text15" fill="black"><text id="kity_text_129" text-rendering="inherit" font-size="12" dy=".8em" y="503.5" x="555.5">cookie路径属性</text></g></g><g id="minder_node18"><g id="node_expander26" style="cursor: pointer;"><path id="kity_path_286" fill="white" stroke="gray" d="M349.5,756.5A6,6,0,1,1,337.5,756.5A6,6,0,1,1,349.5,756.5"></path><path id="kity_path_287" fill="none" stroke="gray" d="M339,756.5L348,756.5"></path></g><path id="node_outline27" fill="none" stroke="none" d="M354.5,745.5h34a5,5,0,0,1,5,5v12a5,5,0,0,1,-5,5h-34a5,5,0,0,1,-5,-5v-12a5,5,0,0,1,5,-5z"></path><g id="node_text27" fill="black"><text id="kity_text_153" text-rendering="inherit" font-size="12" dy=".8em" y="750.5" x="359.5">成分</text></g></g><g id="minder_node19"><g id="node_expander22" style="cursor: pointer;"><path id="kity_path_274" fill="white" stroke="gray" d="M433.5,665.5A6,6,0,1,1,421.5,665.5A6,6,0,1,1,433.5,665.5"></path><path id="kity_path_275" fill="none" stroke="gray" d="M423,665.5L432,665.5"></path></g><path id="node_outline23" fill="none" stroke="none" d="M438.5,654.5h107a5,5,0,0,1,5,5v12a5,5,0,0,1,-5,5h-107a5,5,0,0,1,-5,-5v-12a5,5,0,0,1,5,-5z"></path><g id="node_text23" fill="black"><text id="kity_text_145" text-rendering="inherit" font-size="12" dy=".8em" y="659.5" x="443.5">版本0(Netscape)</text></g></g><g id="minder_node20"><g id="node_expander21" style="cursor: pointer;"><path id="kity_path_271" fill="white" stroke="gray" d="M590.5,665.5A6,6,0,1,1,578.5,665.5A6,6,0,1,1,590.5,665.5"></path><path id="kity_path_272" fill="none" stroke="gray" d="M580,665.5L589,665.5"></path></g><path id="node_outline22" fill="none" stroke="none" d="M595.5,654.5h98a5,5,0,0,1,5,5v12a5,5,0,0,1,-5,5h-98a5,5,0,0,1,-5,-5v-12a5,5,0,0,1,5,-5z"></path><g id="node_text22" fill="black"><text id="kity_text_143" text-rendering="inherit" font-size="12" dy=".8em" y="659.5" x="600.5">Set-Cookie首部</text></g></g><g id="minder_node21"><g id="node_expander16" display="none" style="cursor: pointer;"><path id="kity_path_256" fill="white" stroke="gray" d="M738.5,561.5A6,6,0,1,1,726.5,561.5A6,6,0,1,1,738.5,561.5"></path><path id="kity_path_257" fill="none" stroke="gray"></path></g><path id="node_outline17" fill="none" stroke="none" d="M743.5,550.5h90a5,5,0,0,1,5,5v12a5,5,0,0,1,-5,5h-90a5,5,0,0,1,-5,-5v-12a5,5,0,0,1,5,-5z"></path><g id="node_text17" fill="black"><text id="kity_text_133" text-rendering="inherit" font-size="12" dy=".8em" y="555.5" x="748.5">NAME=VALUE</text></g></g><g id="minder_node22"><g id="node_expander17" display="none" style="cursor: pointer;"><path id="kity_path_259" fill="white" stroke="gray" d="M738.5,613.5A6,6,0,1,1,726.5,613.5A6,6,0,1,1,738.5,613.5"></path><path id="kity_path_260" fill="none" stroke="gray"></path></g><path id="node_outline18" fill="none" stroke="none" d="M743.5,602.5h49a5,5,0,0,1,5,5v12a5,5,0,0,1,-5,5h-49a5,5,0,0,1,-5,-5v-12a5,5,0,0,1,5,-5z"></path><g id="node_text18" fill="black"><text id="kity_text_135" text-rendering="inherit" font-size="12" dy=".8em" y="607.5" x="748.5">Expires</text></g></g><g id="minder_node23"><g id="node_expander18" display="none" style="cursor: pointer;"><path id="kity_path_262" fill="white" stroke="gray" d="M738.5,665.5A6,6,0,1,1,726.5,665.5A6,6,0,1,1,738.5,665.5"></path><path id="kity_path_263" fill="none" stroke="gray"></path></g><path id="node_outline19" fill="none" stroke="none" d="M743.5,654.5h56a5,5,0,0,1,5,5v12a5,5,0,0,1,-5,5h-56a5,5,0,0,1,-5,-5v-12a5,5,0,0,1,5,-5z"></path><g id="node_text19" fill="black"><text id="kity_text_137" text-rendering="inherit" font-size="12" dy=".8em" y="659.5" x="748.5">Domain</text></g></g><g id="minder_node24"><g id="node_expander19" display="none" style="cursor: pointer;"><path id="kity_path_265" fill="white" stroke="gray" d="M738.5,717.5A6,6,0,1,1,726.5,717.5A6,6,0,1,1,738.5,717.5"></path><path id="kity_path_266" fill="none" stroke="gray"></path></g><path id="node_outline20" fill="none" stroke="none" d="M743.5,706.5h37a5,5,0,0,1,5,5v12a5,5,0,0,1,-5,5h-37a5,5,0,0,1,-5,-5v-12a5,5,0,0,1,5,-5z"></path><g id="node_text20" fill="black"><text id="kity_text_139" text-rendering="inherit" font-size="12" dy=".8em" y="711.5" x="748.5">Path</text></g></g><g id="minder_node25"><g id="node_expander20" display="none" style="cursor: pointer;"><path id="kity_path_268" fill="white" stroke="gray" d="M738.5,769.5A6,6,0,1,1,726.5,769.5A6,6,0,1,1,738.5,769.5"></path><path id="kity_path_269" fill="none" stroke="gray"></path></g><path id="node_outline21" fill="none" stroke="none" d="M743.5,758.5h50a5,5,0,0,1,5,5v12a5,5,0,0,1,-5,5h-50a5,5,0,0,1,-5,-5v-12a5,5,0,0,1,5,-5z"></path><g id="node_text21" fill="black"><text id="kity_text_141" text-rendering="inherit" font-size="12" dy=".8em" y="763.5" x="748.5">Secure</text></g></g><g id="minder_node26"><g id="node_expander25" style="cursor: pointer;"><path id="kity_path_283" fill="white" stroke="gray" d="M433.5,847.5A6,6,0,1,1,421.5,847.5A6,6,0,1,1,433.5,847.5"></path><path id="kity_path_284" fill="none" stroke="gray" d="M423,847.5L432,847.5"></path></g><path id="node_outline26" fill="none" stroke="none" d="M438.5,836.5h102a5,5,0,0,1,5,5v12a5,5,0,0,1,-5,5h-102a5,5,0,0,1,-5,-5v-12a5,5,0,0,1,5,-5z"></path><g id="node_text26" fill="black"><text id="kity_text_151" text-rendering="inherit" font-size="12" dy=".8em" y="841.5" x="443.5">版本1(RFC 2965)</text></g></g><g id="minder_node27"><g id="node_expander23" display="none" style="cursor: pointer;"><path id="kity_path_277" fill="white" stroke="gray" d="M585.5,821.5A6,6,0,1,1,573.5,821.5A6,6,0,1,1,585.5,821.5"></path><path id="kity_path_278" fill="none" stroke="gray"></path></g><path id="node_outline24" fill="none" stroke="none" d="M590.5,810.5h104a5,5,0,0,1,5,5v12a5,5,0,0,1,-5,5h-104a5,5,0,0,1,-5,-5v-12a5,5,0,0,1,5,-5z"></path><g id="node_text24" fill="black"><text id="kity_text_147" text-rendering="inherit" font-size="12" dy=".8em" y="815.5" x="595.5">Set-Cookie2首部</text></g></g><g id="minder_node28"><g id="node_expander24" display="none" style="cursor: pointer;"><path id="kity_path_280" fill="white" stroke="gray" d="M585.5,873.5A6,6,0,1,1,573.5,873.5A6,6,0,1,1,585.5,873.5"></path><path id="kity_path_281" fill="none" stroke="gray"></path></g><path id="node_outline25" fill="none" stroke="none" d="M590.5,862.5h76a5,5,0,0,1,5,5v12a5,5,0,0,1,-5,5h-76a5,5,0,0,1,-5,-5v-12a5,5,0,0,1,5,-5z"></path><g id="node_text25" fill="black"><text id="kity_text_149" text-rendering="inherit" font-size="12" dy=".8em" y="867.5" x="595.5">Cookie首部</text></g></g><g id="minder_node29"><g id="node_expander27" display="none" style="cursor: pointer;"><path id="kity_path_289" fill="white" stroke="gray" d="M349.5,925.5A6,6,0,1,1,337.5,925.5A6,6,0,1,1,349.5,925.5"></path><path id="kity_path_290" fill="none" stroke="gray"></path></g><path id="node_outline28" fill="none" stroke="none" d="M354.5,914.5h142a5,5,0,0,1,5,5v12a5,5,0,0,1,-5,5h-142a5,5,0,0,1,-5,-5v-12a5,5,0,0,1,5,-5z"></path><g id="node_text28" fill="black"><text id="kity_text_155" text-rendering="inherit" font-size="12" dy=".8em" y="919.5" x="359.5">会话跟踪、缓存、安全性</text></g></g><g id="minder_node30"><g id="node_expander36" style="cursor: pointer;"><path id="kity_path_316" fill="white" stroke="gray" d="M219.5,1065.5A6,6,0,1,1,207.5,1065.5A6,6,0,1,1,219.5,1065.5"></path><path id="kity_path_317" fill="none" stroke="gray" d="M209,1065.5L218,1065.5"></path></g><path id="node_outline37" fill="rgb(238, 243, 246)" stroke="rgb(115, 161, 191)" d="M223.5,1052.5h90a3,3,0,0,1,3,3v20a3,3,0,0,1,-3,3h-90a3,3,0,0,1,-3,-3v-20a3,3,0,0,1,3,-3z" stroke-width="1"></path><g id="node_text37" fill="black"><text id="kity_text_173" text-rendering="inherit" font-size="14" dy=".8em" y="1058.5" x="240.5">其他方法</text></g></g><g id="minder_node31"><g id="node_expander30" style="cursor: pointer;"><path id="kity_path_298" fill="white" stroke="gray" d="M356.5,987.5A6,6,0,1,1,344.5,987.5A6,6,0,1,1,356.5,987.5"></path><path id="kity_path_299" fill="none" stroke="gray" d="M346,987.5L355,987.5"></path></g><path id="node_outline31" fill="none" stroke="none" d="M361.5,976.5h60a5,5,0,0,1,5,5v12a5,5,0,0,1,-5,5h-60a5,5,0,0,1,-5,-5v-12a5,5,0,0,1,5,-5z"></path><g id="node_text31" fill="black"><text id="kity_text_161" text-rendering="inherit" font-size="12" dy=".8em" y="981.5" x="366.5">HTTP首部</text></g></g><g id="minder_node32"><g id="node_expander29" display="none" style="cursor: pointer;"><path id="kity_path_295" fill="white" stroke="gray" d="M466.5,987.5A6,6,0,1,1,454.5,987.5A6,6,0,1,1,466.5,987.5"></path><path id="kity_path_296" fill="none" stroke="gray"></path></g><path id="node_outline30" fill="none" stroke="none" d="M471.5,976.5h289a5,5,0,0,1,5,5v12a5,5,0,0,1,-5,5h-289a5,5,0,0,1,-5,-5v-12a5,5,0,0,1,5,-5z"></path><g id="node_text30" fill="black"><text id="kity_text_159" text-rendering="inherit" font-size="12" dy=".8em" y="981.5" x="476.5">From/User-Agent/Referer/Authorization/Client-IP</text></g></g><g id="minder_node33"><g id="node_expander31" display="none" style="cursor: pointer;"><path id="kity_path_301" fill="white" stroke="gray" d="M356.5,1039.5A6,6,0,1,1,344.5,1039.5A6,6,0,1,1,356.5,1039.5"></path><path id="kity_path_302" fill="none" stroke="gray"></path></g><path id="node_outline32" fill="none" stroke="none" d="M361.5,1028.5h80a5,5,0,0,1,5,5v12a5,5,0,0,1,-5,5h-80a5,5,0,0,1,-5,-5v-12a5,5,0,0,1,5,-5z"></path><g id="node_text32" fill="black"><text id="kity_text_163" text-rendering="inherit" font-size="12" dy=".8em" y="1033.5" x="366.5">客户端IP地址</text></g></g><g id="minder_node34"><g id="node_expander33" style="cursor: pointer;"><path id="kity_path_307" fill="white" stroke="gray" d="M356.5,1091.5A6,6,0,1,1,344.5,1091.5A6,6,0,1,1,356.5,1091.5"></path><path id="kity_path_308" fill="none" stroke="gray" d="M346,1091.5L355,1091.5"></path></g><path id="node_outline34" fill="none" stroke="none" d="M361.5,1080.5h58a5,5,0,0,1,5,5v12a5,5,0,0,1,-5,5h-58a5,5,0,0,1,-5,-5v-12a5,5,0,0,1,5,-5z"></path><g id="node_text34" fill="black"><text id="kity_text_167" text-rendering="inherit" font-size="12" dy=".8em" y="1085.5" x="366.5">用户登录</text></g></g><g id="minder_node35"><g id="node_expander32" display="none" style="cursor: pointer;"><path id="kity_path_304" fill="white" stroke="gray" d="M464.5,1091.5A6,6,0,1,1,452.5,1091.5A6,6,0,1,1,464.5,1091.5"></path><path id="kity_path_305" fill="none" stroke="gray"></path></g><path id="node_outline33" fill="none" stroke="none" d="M469.5,1080.5h134a5,5,0,0,1,5,5v12a5,5,0,0,1,-5,5h-134a5,5,0,0,1,-5,-5v-12a5,5,0,0,1,5,-5z"></path><g id="node_text33" fill="black"><text id="kity_text_165" text-rendering="inherit" font-size="12" dy=".8em" y="1085.5" x="474.5">Authorization首部验证</text></g></g><g id="minder_node36"><g id="node_expander35" style="cursor: pointer;"><path id="kity_path_313" fill="white" stroke="gray" d="M356.5,1143.5A6,6,0,1,1,344.5,1143.5A6,6,0,1,1,356.5,1143.5"></path><path id="kity_path_314" fill="none" stroke="gray" d="M346,1143.5L355,1143.5"></path></g><path id="node_outline36" fill="none" stroke="none" d="M361.5,1132.5h43a5,5,0,0,1,5,5v12a5,5,0,0,1,-5,5h-43a5,5,0,0,1,-5,-5v-12a5,5,0,0,1,5,-5z"></path><g id="node_text36" fill="black"><text id="kity_text_171" text-rendering="inherit" font-size="12" dy=".8em" y="1137.5" x="366.5">胖URL</text></g></g><g id="minder_node37"><g id="node_expander34" display="none" style="cursor: pointer;"><path id="kity_path_310" fill="white" stroke="gray" d="M449.5,1143.5A6,6,0,1,1,437.5,1143.5A6,6,0,1,1,449.5,1143.5"></path><path id="kity_path_311" fill="none" stroke="gray"></path></g><path id="node_outline35" fill="none" stroke="none" d="M454.5,1132.5h127a5,5,0,0,1,5,5v12a5,5,0,0,1,-5,5h-127a5,5,0,0,1,-5,-5v-12a5,5,0,0,1,5,-5z"></path><g id="node_text35" fill="black"><text id="kity_text_169" text-rendering="inherit" font-size="12" dy=".8em" y="1137.5" x="459.5">URL后附加用户标识码</text></g></g></g></g></svg>