<svg id="kity_svg_6" xmlns="http://www.w3.org/2000/svg" xmlns:xlink="http://www.w3.org/1999/xlink" version="1.1" width="1198" height="956" style="background: rgb(251, 251, 251); visibility: visible;" viewBox="0 0 1198 956"><defs id="kity_defs_7"><linearGradient id="kity_linearGradient_17" x1="0" y1="0" x2="0" y2="1"><stop id="kity_stop_18" offset="0" stop-color="rgb(255, 255, 255)"></stop><stop id="kity_stop_19" offset="1" stop-color="rgb(204, 204, 204)"></stop></linearGradient><marker id="kity_marker_2" orient="auto" refX="6" refY="0" viewBox="-7 -7 14 14" markerWidth="7" markerHeight="7" markerUnits="userSpaceOnUse"><path id="kity_path_3" fill="rgb(115, 161, 191)" stroke="none" d="M6,0A6,6,0,1,1,-6,0A6,6,0,1,1,6,0"></path></marker></defs><g id="kity_g_8"><g id="minder1" text-rendering="optimize-speed"><g id="minder_connect_group1"><path id="kity_path_31" fill="none" stroke="rgb(115, 161, 191)" stroke-width="1" d="M60.5,367.5A158,258,0,0,1,218.5,109.5"></path><path id="kity_path_33" fill="none" stroke="rgb(115, 161, 191)" stroke-width="1" d="M316.5,109.5C336.5,109.5,336.5,31.5,356.5,31.5"></path><path id="kity_path_35" fill="none" stroke="rgb(115, 161, 191)" stroke-width="1" d="M400.5,31.5C420.5,31.5,420.5,31.5,440.5,31.5"></path><path id="kity_path_37" fill="none" stroke="rgb(115, 161, 191)" stroke-width="1" d="M494.5,31.5C514.5,31.5,514.5,31.5,534.5,31.5"></path><path id="kity_path_39" fill="none" stroke="rgb(115, 161, 191)" stroke-width="1" d="M736.5,31.5C756.5,31.5,756.5,31.5,776.5,31.5"></path><path id="kity_path_41" fill="none" stroke="rgb(115, 161, 191)" stroke-width="1" d="M939.5,31.5C959.5,31.5,959.5,31.5,979.5,31.5"></path><path id="kity_path_43" fill="none" stroke="rgb(115, 161, 191)" stroke-width="1" d="M316.5,109.5C336.5,109.5,336.5,83.5,356.5,83.5"></path><path id="kity_path_45" fill="none" stroke="rgb(115, 161, 191)" stroke-width="1" d="M445.5,83.5C465.5,83.5,465.5,83.5,485.5,83.5"></path><path id="kity_path_47" fill="none" stroke="rgb(115, 161, 191)" stroke-width="1" d="M316.5,109.5C336.5,109.5,336.5,135.5,356.5,135.5"></path><path id="kity_path_49" fill="none" stroke="rgb(115, 161, 191)" stroke-width="1" d="M424.5,135.5C444.5,135.5,444.5,135.5,464.5,135.5"></path><path id="kity_path_51" fill="none" stroke="rgb(115, 161, 191)" stroke-width="1" d="M316.5,109.5C336.5,109.5,336.5,187.5,356.5,187.5"></path><path id="kity_path_53" fill="none" stroke="rgb(115, 161, 191)" stroke-width="1" d="M424.5,187.5C444.5,187.5,444.5,187.5,464.5,187.5"></path><path id="kity_path_55" fill="none" stroke="rgb(115, 161, 191)" stroke-width="1" d="M60.5,367.5A158,259,0,0,0,218.5,626.5"></path><path id="kity_path_57" fill="none" stroke="rgb(115, 161, 191)" stroke-width="1" d="M316.5,626.5C336.5,626.5,336.5,327.5,356.5,327.5"></path><path id="kity_path_59" fill="none" stroke="rgb(115, 161, 191)" stroke-width="1" d="M460.5,327.5C480.5,327.5,480.5,249.5,500.5,249.5"></path><path id="kity_path_61" fill="none" stroke="rgb(115, 161, 191)" stroke-width="1" d="M460.5,327.5C480.5,327.5,480.5,301.5,500.5,301.5"></path><path id="kity_path_63" fill="none" stroke="rgb(115, 161, 191)" stroke-width="1" d="M568.5,301.5C588.5,301.5,588.5,301.5,608.5,301.5"></path><path id="kity_path_65" fill="none" stroke="rgb(115, 161, 191)" stroke-width="1" d="M460.5,327.5C480.5,327.5,480.5,353.5,500.5,353.5"></path><path id="kity_path_67" fill="none" stroke="rgb(115, 161, 191)" stroke-width="1" d="M460.5,327.5C480.5,327.5,480.5,405.5,500.5,405.5"></path><path id="kity_path_69" fill="none" stroke="rgb(115, 161, 191)" stroke-width="1" d="M568.5,405.5C588.5,405.5,588.5,405.5,608.5,405.5"></path><path id="kity_path_71" fill="none" stroke="rgb(115, 161, 191)" stroke-width="1" d="M316.5,626.5C336.5,626.5,336.5,652.5,356.5,652.5"></path><path id="kity_path_73" fill="none" stroke="rgb(115, 161, 191)" stroke-width="1" d="M424.5,652.5C444.5,652.5,444.5,535.5,464.5,535.5"></path><path id="kity_path_75" fill="none" stroke="rgb(115, 161, 191)" stroke-width="1" d="M532.5,535.5C552.5,535.5,552.5,457.5,572.5,457.5"></path><path id="kity_path_77" fill="none" stroke="rgb(115, 161, 191)" stroke-width="1" d="M532.5,535.5C552.5,535.5,552.5,509.5,572.5,509.5"></path><path id="kity_path_79" fill="none" stroke="rgb(115, 161, 191)" stroke-width="1" d="M532.5,535.5C552.5,535.5,552.5,561.5,572.5,561.5"></path><path id="kity_path_81" fill="none" stroke="rgb(115, 161, 191)" stroke-width="1" d="M532.5,535.5C552.5,535.5,552.5,613.5,572.5,613.5"></path><path id="kity_path_83" fill="none" stroke="rgb(115, 161, 191)" stroke-width="1" d="M424.5,652.5C444.5,652.5,444.5,691.5,464.5,691.5"></path><path id="kity_path_85" fill="none" stroke="rgb(115, 161, 191)" stroke-width="1" d="M593.5,691.5C613.5,691.5,613.5,665.5,633.5,665.5"></path><path id="kity_path_87" fill="none" stroke="rgb(115, 161, 191)" stroke-width="1" d="M593.5,691.5C613.5,691.5,613.5,717.5,633.5,717.5"></path><path id="kity_path_89" fill="none" stroke="rgb(115, 161, 191)" stroke-width="1" d="M424.5,652.5C444.5,652.5,444.5,769.5,464.5,769.5"></path><path id="kity_path_91" fill="none" stroke="rgb(115, 161, 191)" stroke-width="1" d="M316.5,626.5C336.5,626.5,336.5,847.5,356.5,847.5"></path><path id="kity_path_93" fill="none" stroke="rgb(115, 161, 191)" stroke-width="1" d="M448.5,847.5C468.5,847.5,468.5,821.5,488.5,821.5"></path><path id="kity_path_95" fill="none" stroke="rgb(115, 161, 191)" stroke-width="1" d="M448.5,847.5C468.5,847.5,468.5,873.5,488.5,873.5"></path><path id="kity_path_97" fill="none" stroke="rgb(115, 161, 191)" stroke-width="1" d="M316.5,626.5C336.5,626.5,336.5,925.5,356.5,925.5"></path><path id="kity_path_99" fill="none" stroke="rgb(115, 161, 191)" stroke-width="1" d="M412.5,925.5C432.5,925.5,432.5,925.5,452.5,925.5"></path></g><g id="minder_node1"><path id="node_outline1" fill="rgb(115, 161, 191)" stroke="rgb(57, 80, 96)" d="M25.5,347.5h70a5,5,0,0,1,5,5v30a5,5,0,0,1,-5,5h-70a5,5,0,0,1,-5,-5v-30a5,5,0,0,1,5,-5z" stroke-width="3"></path><g id="node_text1" fill="white"><text id="kity_text_22" text-rendering="inherit" font-size="16" dy=".8em" y="359.5" x="44.5">认证</text></g></g><g id="kity_g_12"><path id="kity_path_13" fill="none" stroke="none" d="M44.5,367.5h0v0h0z"></path></g><g id="kity_g_14"><path id="kity_path_15" fill="none" stroke="none" d="M44.5,367.5h0v0h0z"></path><path id="kity_path_16" fill="none" stroke="none"></path></g><g id="minder_node2"><g id="node_expander12" style="cursor: pointer;"><path id="kity_path_239" fill="white" stroke="gray" d="M219.5,109.5A6,6,0,1,1,207.5,109.5A6,6,0,1,1,219.5,109.5"></path><path id="kity_path_240" fill="none" stroke="gray" d="M209,109.5L218,109.5"></path></g><path id="node_outline13" fill="rgb(238, 243, 246)" stroke="rgb(115, 161, 191)" d="M223.5,96.5h90a3,3,0,0,1,3,3v20a3,3,0,0,1,-3,3h-90a3,3,0,0,1,-3,-3v-20a3,3,0,0,1,3,-3z" stroke-width="1"></path><g id="node_text13" fill="black"><text id="kity_text_123" text-rendering="inherit" font-size="14" dy=".8em" y="102.5" x="240.5">基本认证</text></g></g><g id="minder_node3"><g id="node_expander5" style="cursor: pointer;"><path id="kity_path_218" fill="white" stroke="gray" d="M356.5,31.5A6,6,0,1,1,344.5,31.5A6,6,0,1,1,356.5,31.5"></path><path id="kity_path_219" fill="none" stroke="gray" d="M346,31.5L355,31.5"></path></g><path id="node_outline6" fill="none" stroke="none" d="M361.5,20.5h34a5,5,0,0,1,5,5v12a5,5,0,0,1,-5,5h-34a5,5,0,0,1,-5,-5v-12a5,5,0,0,1,5,-5z"></path><g id="node_text6" fill="black"><text id="kity_text_109" text-rendering="inherit" font-size="12" dy=".8em" y="25.5" x="366.5">步骤</text></g></g><g id="minder_node4"><g id="node_expander4" style="cursor: pointer;"><path id="kity_path_215" fill="white" stroke="gray" d="M440.5,31.5A6,6,0,1,1,428.5,31.5A6,6,0,1,1,440.5,31.5"></path><path id="kity_path_216" fill="none" stroke="gray" d="M430,31.5L439,31.5"></path></g><path id="node_outline5" fill="none" stroke="none" d="M445.5,20.5h44a5,5,0,0,1,5,5v12a5,5,0,0,1,-5,5h-44a5,5,0,0,1,-5,-5v-12a5,5,0,0,1,5,-5z"></path><g id="node_text5" fill="black"><text id="kity_text_107" text-rendering="inherit" font-size="12" dy=".8em" y="25.5" x="450.5">1.请求</text></g></g><g id="minder_node5"><g id="node_expander3" style="cursor: pointer;"><path id="kity_path_212" fill="white" stroke="gray" d="M534.5,31.5A6,6,0,1,1,522.5,31.5A6,6,0,1,1,534.5,31.5"></path><path id="kity_path_213" fill="none" stroke="gray" d="M524,31.5L533,31.5"></path></g><path id="node_outline4" fill="none" stroke="none" d="M539.5,20.5h192a5,5,0,0,1,5,5v12a5,5,0,0,1,-5,5h-192a5,5,0,0,1,-5,-5v-12a5,5,0,0,1,5,-5z"></path><g id="node_text4" fill="black"><text id="kity_text_105" text-rendering="inherit" font-size="12" dy=".8em" y="25.5" x="544.5">2.质询(WWW-Authenticate首部)</text></g></g><g id="minder_node6"><g id="node_expander2" style="cursor: pointer;"><path id="kity_path_209" fill="white" stroke="gray" d="M776.5,31.5A6,6,0,1,1,764.5,31.5A6,6,0,1,1,776.5,31.5"></path><path id="kity_path_210" fill="none" stroke="gray" d="M766,31.5L775,31.5"></path></g><path id="node_outline3" fill="none" stroke="none" d="M781.5,20.5h153a5,5,0,0,1,5,5v12a5,5,0,0,1,-5,5h-153a5,5,0,0,1,-5,-5v-12a5,5,0,0,1,5,-5z"></path><g id="node_text3" fill="black"><text id="kity_text_103" text-rendering="inherit" font-size="12" dy=".8em" y="25.5" x="786.5">3.授权(Authorization首部)</text></g></g><g id="minder_node7"><g id="node_expander1" display="none" style="cursor: pointer;"><path id="kity_path_206" fill="white" stroke="gray" d="M979.5,31.5A6,6,0,1,1,967.5,31.5A6,6,0,1,1,979.5,31.5"></path><path id="kity_path_207" fill="none" stroke="gray"></path></g><path id="node_outline2" fill="none" stroke="none" d="M984.5,20.5h189a5,5,0,0,1,5,5v12a5,5,0,0,1,-5,5h-189a5,5,0,0,1,-5,-5v-12a5,5,0,0,1,5,-5z"></path><g id="node_text2" fill="black"><text id="kity_text_101" text-rendering="inherit" font-size="12" dy=".8em" y="25.5" x="989.5">4.成功(Authentication-Info首部)</text></g></g><g id="minder_node8"><g id="node_expander7" style="cursor: pointer;"><path id="kity_path_224" fill="white" stroke="gray" d="M356.5,83.5A6,6,0,1,1,344.5,83.5A6,6,0,1,1,356.5,83.5"></path><path id="kity_path_225" fill="none" stroke="gray" d="M346,83.5L355,83.5"></path></g><path id="node_outline8" fill="none" stroke="none" d="M361.5,72.5h79a5,5,0,0,1,5,5v12a5,5,0,0,1,-5,5h-79a5,5,0,0,1,-5,-5v-12a5,5,0,0,1,5,-5z"></path><g id="node_text8" fill="black"><text id="kity_text_113" text-rendering="inherit" font-size="12" dy=".8em" y="77.5" x="366.5">Base-64编码</text></g></g><g id="minder_node9"><g id="node_expander6" display="none" style="cursor: pointer;"><path id="kity_path_221" fill="white" stroke="gray" d="M485.5,83.5A6,6,0,1,1,473.5,83.5A6,6,0,1,1,485.5,83.5"></path><path id="kity_path_222" fill="none" stroke="gray"></path></g><path id="node_outline7" fill="none" stroke="none" d="M490.5,72.5h215a5,5,0,0,1,5,5v12a5,5,0,0,1,-5,5h-215a5,5,0,0,1,-5,-5v-12a5,5,0,0,1,5,-5z"></path><g id="node_text7" fill="black"><text id="kity_text_111" text-rendering="inherit" font-size="12" dy=".8em" y="77.5" x="495.5">将一个8位字节序列划分为一些6位的块</text></g></g><g id="minder_node10"><g id="node_expander9" style="cursor: pointer;"><path id="kity_path_230" fill="white" stroke="gray" d="M356.5,135.5A6,6,0,1,1,344.5,135.5A6,6,0,1,1,356.5,135.5"></path><path id="kity_path_231" fill="none" stroke="gray" d="M346,135.5L355,135.5"></path></g><path id="node_outline10" fill="none" stroke="none" d="M361.5,124.5h58a5,5,0,0,1,5,5v12a5,5,0,0,1,-5,5h-58a5,5,0,0,1,-5,-5v-12a5,5,0,0,1,5,-5z"></path><g id="node_text10" fill="black"><text id="kity_text_117" text-rendering="inherit" font-size="12" dy=".8em" y="129.5" x="366.5">代理认证</text></g></g><g id="minder_node11"><g id="node_expander8" display="none" style="cursor: pointer;"><path id="kity_path_227" fill="white" stroke="gray" d="M464.5,135.5A6,6,0,1,1,452.5,135.5A6,6,0,1,1,464.5,135.5"></path><path id="kity_path_228" fill="none" stroke="gray"></path></g><path id="node_outline9" fill="none" stroke="none" d="M469.5,124.5h286a5,5,0,0,1,5,5v12a5,5,0,0,1,-5,5h-286a5,5,0,0,1,-5,-5v-12a5,5,0,0,1,5,-5z"></path><g id="node_text9" fill="black"><text id="kity_text_115" text-rendering="inherit" font-size="12" dy=".8em" y="129.5" x="474.5">步骤与服务器认证步骤相同，首部与状态码有所不同</text></g></g><g id="minder_node12"><g id="node_expander11" style="cursor: pointer;"><path id="kity_path_236" fill="white" stroke="gray" d="M356.5,187.5A6,6,0,1,1,344.5,187.5A6,6,0,1,1,356.5,187.5"></path><path id="kity_path_237" fill="none" stroke="gray" d="M346,187.5L355,187.5"></path></g><path id="node_outline12" fill="none" stroke="none" d="M361.5,176.5h58a5,5,0,0,1,5,5v12a5,5,0,0,1,-5,5h-58a5,5,0,0,1,-5,-5v-12a5,5,0,0,1,5,-5z"></path><g id="node_text12" fill="black"><text id="kity_text_121" text-rendering="inherit" font-size="12" dy=".8em" y="181.5" x="366.5">安全缺陷</text></g></g><g id="minder_node13"><g id="node_expander10" display="none" style="cursor: pointer;"><path id="kity_path_233" fill="white" stroke="gray" d="M464.5,187.5A6,6,0,1,1,452.5,187.5A6,6,0,1,1,464.5,187.5"></path><path id="kity_path_234" fill="none" stroke="gray"></path></g><path id="node_outline11" fill="none" stroke="none" d="M469.5,176.5h260a5,5,0,0,1,5,5v12a5,5,0,0,1,-5,5h-260a5,5,0,0,1,-5,-5v-12a5,5,0,0,1,5,-5z"></path><g id="node_text11" fill="black"><text id="kity_text_119" text-rendering="inherit" font-size="12" dy=".8em" y="181.5" x="474.5">用户名密码易被破解/不良使用习惯/假冒服务器</text></g></g><g id="minder_node14"><g id="node_expander35" style="cursor: pointer;"><path id="kity_path_308" fill="white" stroke="gray" d="M219.5,626.5A6,6,0,1,1,207.5,626.5A6,6,0,1,1,219.5,626.5"></path><path id="kity_path_309" fill="none" stroke="gray" d="M209,626.5L218,626.5"></path></g><path id="node_outline36" fill="rgb(238, 243, 246)" stroke="rgb(115, 161, 191)" d="M223.5,613.5h90a3,3,0,0,1,3,3v20a3,3,0,0,1,-3,3h-90a3,3,0,0,1,-3,-3v-20a3,3,0,0,1,3,-3z" stroke-width="1"></path><g id="node_text36" fill="black"><text id="kity_text_169" text-rendering="inherit" font-size="14" dy=".8em" y="619.5" x="240.5">摘要认证</text></g></g><g id="minder_node15"><g id="node_expander19" style="cursor: pointer;"><path id="kity_path_260" fill="white" stroke="gray" d="M356.5,327.5A6,6,0,1,1,344.5,327.5A6,6,0,1,1,356.5,327.5"></path><path id="kity_path_261" fill="none" stroke="gray" d="M346,327.5L355,327.5"></path></g><path id="node_outline20" fill="none" stroke="none" d="M361.5,316.5h94a5,5,0,0,1,5,5v12a5,5,0,0,1,-5,5h-94a5,5,0,0,1,-5,-5v-12a5,5,0,0,1,5,-5z"></path><g id="node_text20" fill="black"><text id="kity_text_137" text-rendering="inherit" font-size="12" dy=".8em" y="321.5" x="366.5">改进的认证方法</text></g></g><g id="minder_node16"><g id="node_expander13" display="none" style="cursor: pointer;"><path id="kity_path_242" fill="white" stroke="gray" d="M500.5,249.5A6,6,0,1,1,488.5,249.5A6,6,0,1,1,500.5,249.5"></path><path id="kity_path_243" fill="none" stroke="gray"></path></g><path id="node_outline14" fill="none" stroke="none" d="M505.5,238.5h58a5,5,0,0,1,5,5v12a5,5,0,0,1,-5,5h-58a5,5,0,0,1,-5,-5v-12a5,5,0,0,1,5,-5z"></path><g id="node_text14" fill="black"><text id="kity_text_125" text-rendering="inherit" font-size="12" dy=".8em" y="243.5" x="510.5">保护密码</text></g></g><g id="minder_node17"><g id="node_expander15" style="cursor: pointer;"><path id="kity_path_248" fill="white" stroke="gray" d="M500.5,301.5A6,6,0,1,1,488.5,301.5A6,6,0,1,1,500.5,301.5"></path><path id="kity_path_249" fill="none" stroke="gray" d="M490,301.5L499,301.5"></path></g><path id="node_outline16" fill="none" stroke="none" d="M505.5,290.5h58a5,5,0,0,1,5,5v12a5,5,0,0,1,-5,5h-58a5,5,0,0,1,-5,-5v-12a5,5,0,0,1,5,-5z"></path><g id="node_text16" fill="black"><text id="kity_text_129" text-rendering="inherit" font-size="12" dy=".8em" y="295.5" x="510.5">单向摘要</text></g></g><g id="minder_node18"><g id="node_expander14" display="none" style="cursor: pointer;"><path id="kity_path_245" fill="white" stroke="gray" d="M608.5,301.5A6,6,0,1,1,596.5,301.5A6,6,0,1,1,608.5,301.5"></path><path id="kity_path_246" fill="none" stroke="gray"></path></g><path id="node_outline15" fill="none" stroke="none" d="M613.5,290.5h37a5,5,0,0,1,5,5v12a5,5,0,0,1,-5,5h-37a5,5,0,0,1,-5,-5v-12a5,5,0,0,1,5,-5z"></path><g id="node_text15" fill="black"><text id="kity_text_127" text-rendering="inherit" font-size="12" dy=".8em" y="295.5" x="618.5">MD5</text></g></g><g id="minder_node19"><g id="node_expander16" display="none" style="cursor: pointer;"><path id="kity_path_251" fill="white" stroke="gray" d="M500.5,353.5A6,6,0,1,1,488.5,353.5A6,6,0,1,1,500.5,353.5"></path><path id="kity_path_252" fill="none" stroke="gray"></path></g><path id="node_outline17" fill="none" stroke="none" d="M505.5,342.5h70a5,5,0,0,1,5,5v12a5,5,0,0,1,-5,5h-70a5,5,0,0,1,-5,-5v-12a5,5,0,0,1,5,-5z"></path><g id="node_text17" fill="black"><text id="kity_text_131" text-rendering="inherit" font-size="12" dy=".8em" y="347.5" x="510.5">使用随机数</text></g></g><g id="minder_node20"><g id="node_expander18" style="cursor: pointer;"><path id="kity_path_257" fill="white" stroke="gray" d="M500.5,405.5A6,6,0,1,1,488.5,405.5A6,6,0,1,1,500.5,405.5"></path><path id="kity_path_258" fill="none" stroke="gray" d="M490,405.5L499,405.5"></path></g><path id="node_outline19" fill="none" stroke="none" d="M505.5,394.5h58a5,5,0,0,1,5,5v12a5,5,0,0,1,-5,5h-58a5,5,0,0,1,-5,-5v-12a5,5,0,0,1,5,-5z"></path><g id="node_text19" fill="black"><text id="kity_text_135" text-rendering="inherit" font-size="12" dy=".8em" y="399.5" x="510.5">握手机制</text></g></g><g id="minder_node21"><g id="node_expander17" display="none" style="cursor: pointer;"><path id="kity_path_254" fill="white" stroke="gray" d="M608.5,405.5A6,6,0,1,1,596.5,405.5A6,6,0,1,1,608.5,405.5"></path><path id="kity_path_255" fill="none" stroke="gray"></path></g><path id="node_outline18" fill="none" stroke="none" d="M613.5,394.5h106a5,5,0,0,1,5,5v12a5,5,0,0,1,-5,5h-106a5,5,0,0,1,-5,-5v-12a5,5,0,0,1,5,-5z"></path><g id="node_text18" fill="black"><text id="kity_text_133" text-rendering="inherit" font-size="12" dy=".8em" y="399.5" x="618.5">传递算法、随机数</text></g></g><g id="minder_node22"><g id="node_expander29" style="cursor: pointer;"><path id="kity_path_290" fill="white" stroke="gray" d="M356.5,652.5A6,6,0,1,1,344.5,652.5A6,6,0,1,1,356.5,652.5"></path><path id="kity_path_291" fill="none" stroke="gray" d="M346,652.5L355,652.5"></path></g><path id="node_outline30" fill="none" stroke="none" d="M361.5,641.5h58a5,5,0,0,1,5,5v12a5,5,0,0,1,-5,5h-58a5,5,0,0,1,-5,-5v-12a5,5,0,0,1,5,-5z"></path><g id="node_text30" fill="black"><text id="kity_text_157" text-rendering="inherit" font-size="12" dy=".8em" y="646.5" x="366.5">摘要计算</text></g></g><g id="minder_node23"><g id="node_expander24" style="cursor: pointer;"><path id="kity_path_275" fill="white" stroke="gray" d="M464.5,535.5A6,6,0,1,1,452.5,535.5A6,6,0,1,1,464.5,535.5"></path><path id="kity_path_276" fill="none" stroke="gray" d="M454,535.5L463,535.5"></path></g><path id="node_outline25" fill="none" stroke="none" d="M469.5,524.5h58a5,5,0,0,1,5,5v12a5,5,0,0,1,-5,5h-58a5,5,0,0,1,-5,-5v-12a5,5,0,0,1,5,-5z"></path><g id="node_text25" fill="black"><text id="kity_text_147" text-rendering="inherit" font-size="12" dy=".8em" y="529.5" x="474.5">输入数据</text></g></g><g id="minder_node24"><g id="node_expander20" display="none" style="cursor: pointer;"><path id="kity_path_263" fill="white" stroke="gray" d="M572.5,457.5A6,6,0,1,1,560.5,457.5A6,6,0,1,1,572.5,457.5"></path><path id="kity_path_264" fill="none" stroke="gray"></path></g><path id="node_outline21" fill="none" stroke="none" d="M577.5,446.5h107a5,5,0,0,1,5,5v12a5,5,0,0,1,-5,5h-107a5,5,0,0,1,-5,-5v-12a5,5,0,0,1,5,-5z"></path><g id="node_text21" fill="black"><text id="kity_text_139" text-rendering="inherit" font-size="12" dy=".8em" y="451.5" x="582.5">单项散列函数H(d)</text></g></g><g id="minder_node25"><g id="node_expander21" display="none" style="cursor: pointer;"><path id="kity_path_266" fill="white" stroke="gray" d="M572.5,509.5A6,6,0,1,1,560.5,509.5A6,6,0,1,1,572.5,509.5"></path><path id="kity_path_267" fill="none" stroke="gray"></path></g><path id="node_outline22" fill="none" stroke="none" d="M577.5,498.5h153a5,5,0,0,1,5,5v12a5,5,0,0,1,-5,5h-153a5,5,0,0,1,-5,-5v-12a5,5,0,0,1,5,-5z"></path><g id="node_text22" fill="black"><text id="kity_text_141" text-rendering="inherit" font-size="12" dy=".8em" y="503.5" x="582.5">摘要KD(s,d) &#xa0;s-密码 d-数据</text></g></g><g id="minder_node26"><g id="node_expander22" display="none" style="cursor: pointer;"><path id="kity_path_269" fill="white" stroke="gray" d="M572.5,561.5A6,6,0,1,1,560.5,561.5A6,6,0,1,1,572.5,561.5"></path><path id="kity_path_270" fill="none" stroke="gray"></path></g><path id="node_outline23" fill="none" stroke="none" d="M577.5,550.5h130a5,5,0,0,1,5,5v12a5,5,0,0,1,-5,5h-130a5,5,0,0,1,-5,-5v-12a5,5,0,0,1,5,-5z"></path><g id="node_text23" fill="black"><text id="kity_text_143" text-rendering="inherit" font-size="12" dy=".8em" y="555.5" x="582.5">与安全性有关数据(A1)</text></g></g><g id="minder_node27"><g id="node_expander23" display="none" style="cursor: pointer;"><path id="kity_path_272" fill="white" stroke="gray" d="M572.5,613.5A6,6,0,1,1,560.5,613.5A6,6,0,1,1,572.5,613.5"></path><path id="kity_path_273" fill="none" stroke="gray"></path></g><path id="node_outline24" fill="none" stroke="none" d="M577.5,602.5h118a5,5,0,0,1,5,5v12a5,5,0,0,1,-5,5h-118a5,5,0,0,1,-5,-5v-12a5,5,0,0,1,5,-5z"></path><g id="node_text24" fill="black"><text id="kity_text_145" text-rendering="inherit" font-size="12" dy=".8em" y="607.5" x="582.5">与报文有关数据(A2)</text></g></g><g id="minder_node28"><g id="node_expander27" style="cursor: pointer;"><path id="kity_path_284" fill="white" stroke="gray" d="M464.5,691.5A6,6,0,1,1,452.5,691.5A6,6,0,1,1,464.5,691.5"></path><path id="kity_path_285" fill="none" stroke="gray" d="M454,691.5L463,691.5"></path></g><path id="node_outline28" fill="none" stroke="none" d="M469.5,680.5h119a5,5,0,0,1,5,5v12a5,5,0,0,1,-5,5h-119a5,5,0,0,1,-5,-5v-12a5,5,0,0,1,5,-5z"></path><g id="node_text28" fill="black"><text id="kity_text_153" text-rendering="inherit" font-size="12" dy=".8em" y="685.5" x="474.5">摘要算法(RFC 2617)</text></g></g><g id="minder_node29"><g id="node_expander25" display="none" style="cursor: pointer;"><path id="kity_path_278" fill="white" stroke="gray" d="M633.5,665.5A6,6,0,1,1,621.5,665.5A6,6,0,1,1,633.5,665.5"></path><path id="kity_path_279" fill="none" stroke="gray"></path></g><path id="node_outline26" fill="none" stroke="none" d="M638.5,654.5h202a5,5,0,0,1,5,5v12a5,5,0,0,1,-5,5h-202a5,5,0,0,1,-5,-5v-12a5,5,0,0,1,5,-5z"></path><g id="node_text26" fill="black"><text id="kity_text_149" text-rendering="inherit" font-size="12" dy=".8em" y="659.5" x="643.5">新：当qop为auth或auth-int时使用</text></g></g><g id="minder_node30"><g id="node_expander26" display="none" style="cursor: pointer;"><path id="kity_path_281" fill="white" stroke="gray" d="M633.5,717.5A6,6,0,1,1,621.5,717.5A6,6,0,1,1,633.5,717.5"></path><path id="kity_path_282" fill="none" stroke="gray"></path></g><path id="node_outline27" fill="none" stroke="none" d="M638.5,706.5h142a5,5,0,0,1,5,5v12a5,5,0,0,1,-5,5h-142a5,5,0,0,1,-5,-5v-12a5,5,0,0,1,5,-5z"></path><g id="node_text27" fill="black"><text id="kity_text_151" text-rendering="inherit" font-size="12" dy=".8em" y="711.5" x="643.5">老：没有qop选项时使用</text></g></g><g id="minder_node31"><g id="node_expander28" display="none" style="cursor: pointer;"><path id="kity_path_287" fill="white" stroke="gray" d="M464.5,769.5A6,6,0,1,1,452.5,769.5A6,6,0,1,1,464.5,769.5"></path><path id="kity_path_288" fill="none" stroke="gray"></path></g><path id="node_outline29" fill="none" stroke="none" d="M469.5,758.5h178a5,5,0,0,1,5,5v12a5,5,0,0,1,-5,5h-178a5,5,0,0,1,-5,-5v-12a5,5,0,0,1,5,-5z"></path><g id="node_text29" fill="black"><text id="kity_text_155" text-rendering="inherit" font-size="12" dy=".8em" y="763.5" x="474.5">认证会话、预授权、随机数选择</text></g></g><g id="minder_node32"><g id="node_expander32" style="cursor: pointer;"><path id="kity_path_299" fill="white" stroke="gray" d="M356.5,847.5A6,6,0,1,1,344.5,847.5A6,6,0,1,1,356.5,847.5"></path><path id="kity_path_300" fill="none" stroke="gray" d="M346,847.5L355,847.5"></path></g><path id="node_outline33" fill="none" stroke="none" d="M361.5,836.5h82a5,5,0,0,1,5,5v12a5,5,0,0,1,-5,5h-82a5,5,0,0,1,-5,-5v-12a5,5,0,0,1,5,-5z"></path><g id="node_text33" fill="black"><text id="kity_text_163" text-rendering="inherit" font-size="12" dy=".8em" y="841.5" x="366.5">增强保护质量</text></g></g><g id="minder_node33"><g id="node_expander30" display="none" style="cursor: pointer;"><path id="kity_path_293" fill="white" stroke="gray" d="M488.5,821.5A6,6,0,1,1,476.5,821.5A6,6,0,1,1,488.5,821.5"></path><path id="kity_path_294" fill="none" stroke="gray"></path></g><path id="node_outline31" fill="none" stroke="none" d="M493.5,810.5h70a5,5,0,0,1,5,5v12a5,5,0,0,1,-5,5h-70a5,5,0,0,1,-5,-5v-12a5,5,0,0,1,5,-5z"></path><g id="node_text31" fill="black"><text id="kity_text_159" text-rendering="inherit" font-size="12" dy=".8em" y="815.5" x="498.5">报文完整性</text></g></g><g id="minder_node34"><g id="node_expander31" display="none" style="cursor: pointer;"><path id="kity_path_296" fill="white" stroke="gray" d="M488.5,873.5A6,6,0,1,1,476.5,873.5A6,6,0,1,1,488.5,873.5"></path><path id="kity_path_297" fill="none" stroke="gray"></path></g><path id="node_outline32" fill="none" stroke="none" d="M493.5,862.5h82a5,5,0,0,1,5,5v12a5,5,0,0,1,-5,5h-82a5,5,0,0,1,-5,-5v-12a5,5,0,0,1,5,-5z"></path><g id="node_text32" fill="black"><text id="kity_text_161" text-rendering="inherit" font-size="12" dy=".8em" y="867.5" x="498.5">摘要认证首部</text></g></g><g id="minder_node35"><g id="node_expander34" style="cursor: pointer;"><path id="kity_path_305" fill="white" stroke="gray" d="M356.5,925.5A6,6,0,1,1,344.5,925.5A6,6,0,1,1,356.5,925.5"></path><path id="kity_path_306" fill="none" stroke="gray" d="M346,925.5L355,925.5"></path></g><path id="node_outline35" fill="none" stroke="none" d="M361.5,914.5h46a5,5,0,0,1,5,5v12a5,5,0,0,1,-5,5h-46a5,5,0,0,1,-5,-5v-12a5,5,0,0,1,5,-5z"></path><g id="node_text35" fill="black"><text id="kity_text_167" text-rendering="inherit" font-size="12" dy=".8em" y="919.5" x="366.5">安全性</text></g></g><g id="minder_node36"><g id="node_expander33" display="none" style="cursor: pointer;"><path id="kity_path_302" fill="white" stroke="gray" d="M452.5,925.5A6,6,0,1,1,440.5,925.5A6,6,0,1,1,452.5,925.5"></path><path id="kity_path_303" fill="none" stroke="gray"></path></g><path id="node_outline34" fill="none" stroke="none" d="M457.5,914.5h418a5,5,0,0,1,5,5v12a5,5,0,0,1,-5,5h-418a5,5,0,0,1,-5,-5v-12a5,5,0,0,1,5,-5z"></path><g id="node_text34" fill="black"><text id="kity_text_165" text-rendering="inherit" font-size="12" dy=".8em" y="919.5" x="462.5">首部篡改、重放攻击、字典攻击、恶意代理攻击、中间人攻击、选择明文攻击</text></g></g></g></g></svg>