<!DOCTYPE svg PUBLIC "-//W3C//DTD SVG 20010904//EN" "http://www.w3.org/TR/2001/REC-SVG-20010904/DTD/svg10.dtd">
<svg version="1.0" xmlns="http://www.w3.org/2000/svg" width="120px" height="122px" viewBox="0 0 1200 1220" preserveAspectRatio="xMidYMid meet">
<g id="layer101" fill="#ec1010" stroke="none">
 <path d="M7 1213 c-4 -3 -7 -66 -7 -140 0 -126 1 -133 20 -133 15 0 20 -7 20 -25 0 -33 48 -84 86 -91 47 -9 69 19 78 95 4 33 11 61 15 61 5 0 14 -35 21 -77 14 -80 34 -113 70 -113 27 0 25 -16 -11 -107 -58 -143 -58 -150 -3 -216 l24 -28 -35 -30 c-25 -23 -37 -44 -46 -85 l-13 -56 -26 59 c-28 60 -76 101 -106 89 -10 -4 -14 2 -14 19 0 37 1 40 12 37 19 -5 57 28 83 72 30 50 28 66 -16 164 -25 56 -31 62 -58 62 -36 0 -51 -22 -51 -74 0 -32 -3 -36 -25 -36 l-25 0 0 -145 0 -145 24 0 c23 0 25 -3 28 -77 4 -111 0 -130 -28 -137 -22 -6 -24 -11 -24 -66 0 -84 10 -90 172 -90 l128 0 0 25 c0 22 4 25 34 25 18 0 54 -3 80 -6 36 -5 46 -11 46 -25 0 -16 8 -19 45 -19 38 0 45 3 45 20 0 17 7 20 44 20 36 0 46 -4 51 -20 6 -19 15 -20 281 -20 l274 0 0 34 c0 27 -5 35 -24 40 -21 5 -23 10 -19 51 7 55 -9 96 -45 117 -15 8 -92 26 -171 38 -141 23 -144 23 -178 5 -19 -10 -50 -41 -70 -67 l-35 -49 -72 77 c-76 82 -97 91 -167 70 -26 -7 -27 -7 -30 44 -3 42 -1 53 16 64 18 12 21 29 27 202 3 104 7 196 7 205 1 14 9 16 45 12 56 -7 61 3 71 125 4 52 11 90 15 85 11 -11 103 -331 102 -357 0 -12 -8 -57 -18 -101 l-18 -80 -7 50 c-4 28 -8 76 -8 108 -1 71 -26 103 -72 93 -37 -7 -74 -34 -88 -64 -13 -28 23 -296 45 -329 16 -26 73 -39 102 -24 17 9 28 7 56 -10 40 -23 70 -19 87 14 18 32 37 224 49 481 6 126 13 232 15 235 13 12 35 -28 50 -92 23 -96 37 -117 78 -117 18 0 38 5 45 12 6 6 14 9 17 6 3 -3 10 -79 15 -169 11 -185 31 -314 51 -334 8 -7 40 -16 72 -20 l57 -6 0 49 c0 35 -4 52 -15 56 -22 8 -22 226 0 226 13 0 15 34 13 268 l-3 267 -413 3 c-277 1 -411 -1 -407 -8 4 -6 -20 -10 -65 -10 -39 0 -80 -5 -91 -10 -16 -9 -19 -7 -19 10 0 19 -6 20 -93 20 -52 0 -97 -3 -100 -7z"/>
 <path d="M859 791 c-20 -16 -24 -32 -35 -157 -18 -191 -18 -189 14 -224 35 -39 80 -48 112 -22 22 18 25 31 37 166 14 165 11 180 -47 230 -37 31 -50 32 -81 7z"/>
 </g>

</svg>