<svg id="kity_svg_6" xmlns="http://www.w3.org/2000/svg" xmlns:xlink="http://www.w3.org/1999/xlink" version="1.1" width="778" height="1620" style="background: rgb(251, 251, 251); visibility: visible;" viewBox="0 0 778 1620"><defs id="kity_defs_7"><linearGradient id="kity_linearGradient_17" x1="0" y1="0" x2="0" y2="1"><stop id="kity_stop_18" offset="0" stop-color="rgb(255, 255, 255)"></stop><stop id="kity_stop_19" offset="1" stop-color="rgb(204, 204, 204)"></stop></linearGradient><marker id="kity_marker_2" orient="auto" refX="6" refY="0" viewBox="-7 -7 14 14" markerWidth="7" markerHeight="7" markerUnits="userSpaceOnUse"><path id="kity_path_3" fill="rgb(115, 161, 191)" stroke="none" d="M6,0A6,6,0,1,1,-6,0A6,6,0,1,1,6,0"></path></marker></defs><g id="kity_g_8"><g id="minder1" text-rendering="optimize-speed"><g id="minder_connect_group1"><path id="kity_path_31" fill="none" stroke="rgb(115, 161, 191)" stroke-width="1" d="M60.5,810.5A158,701,0,0,1,218.5,109.5"></path><path id="kity_path_33" fill="none" stroke="rgb(115, 161, 191)" stroke-width="1" d="M344.5,109.5C364.5,109.5,364.5,31.5,384.5,31.5"></path><path id="kity_path_35" fill="none" stroke="rgb(115, 161, 191)" stroke-width="1" d="M344.5,109.5C364.5,109.5,364.5,83.5,384.5,83.5"></path><path id="kity_path_37" fill="none" stroke="rgb(115, 161, 191)" stroke-width="1" d="M344.5,109.5C364.5,109.5,364.5,135.5,384.5,135.5"></path><path id="kity_path_39" fill="none" stroke="rgb(115, 161, 191)" stroke-width="1" d="M344.5,109.5C364.5,109.5,364.5,187.5,384.5,187.5"></path><path id="kity_path_41" fill="none" stroke="rgb(115, 161, 191)" stroke-width="1" d="M60.5,810.5A158,431,0,0,1,218.5,379.5"></path><path id="kity_path_43" fill="none" stroke="rgb(115, 161, 191)" stroke-width="1" d="M316.5,379.5C336.5,379.5,336.5,301.5,356.5,301.5"></path><path id="kity_path_45" fill="none" stroke="rgb(115, 161, 191)" stroke-width="1" d="M412.5,301.5C432.5,301.5,432.5,249.5,452.5,249.5"></path><path id="kity_path_47" fill="none" stroke="rgb(115, 161, 191)" stroke-width="1" d="M412.5,301.5C432.5,301.5,432.5,301.5,452.5,301.5"></path><path id="kity_path_49" fill="none" stroke="rgb(115, 161, 191)" stroke-width="1" d="M412.5,301.5C432.5,301.5,432.5,353.5,452.5,353.5"></path><path id="kity_path_51" fill="none" stroke="rgb(115, 161, 191)" stroke-width="1" d="M316.5,379.5C336.5,379.5,336.5,405.5,356.5,405.5"></path><path id="kity_path_53" fill="none" stroke="rgb(115, 161, 191)" stroke-width="1" d="M316.5,379.5C336.5,379.5,336.5,457.5,356.5,457.5"></path><path id="kity_path_55" fill="none" stroke="rgb(115, 161, 191)" stroke-width="1" d="M472.5,457.5C492.5,457.5,492.5,457.5,512.5,457.5"></path><path id="kity_path_57" fill="none" stroke="rgb(115, 161, 191)" stroke-width="1" d="M60.5,810.5A158,213,0,0,1,218.5,597.5"></path><path id="kity_path_59" fill="none" stroke="rgb(115, 161, 191)" stroke-width="1" d="M316.5,597.5C336.5,597.5,336.5,519.5,356.5,519.5"></path><path id="kity_path_61" fill="none" stroke="rgb(115, 161, 191)" stroke-width="1" d="M316.5,597.5C336.5,597.5,336.5,571.5,356.5,571.5"></path><path id="kity_path_63" fill="none" stroke="rgb(115, 161, 191)" stroke-width="1" d="M316.5,597.5C336.5,597.5,336.5,623.5,356.5,623.5"></path><path id="kity_path_65" fill="none" stroke="rgb(115, 161, 191)" stroke-width="1" d="M436.5,623.5C456.5,623.5,456.5,623.5,476.5,623.5"></path><path id="kity_path_67" fill="none" stroke="rgb(115, 161, 191)" stroke-width="1" d="M316.5,597.5C336.5,597.5,336.5,675.5,356.5,675.5"></path><path id="kity_path_69" fill="none" stroke="rgb(115, 161, 191)" stroke-width="1" d="M60.5,810.5A158,83,0,0,0,218.5,893.5"></path><path id="kity_path_71" fill="none" stroke="rgb(115, 161, 191)" stroke-width="1" d="M316.5,893.5C336.5,893.5,336.5,737.5,356.5,737.5"></path><path id="kity_path_73" fill="none" stroke="rgb(115, 161, 191)" stroke-width="1" d="M400.5,737.5C420.5,737.5,420.5,737.5,440.5,737.5"></path><path id="kity_path_75" fill="none" stroke="rgb(115, 161, 191)" stroke-width="1" d="M316.5,893.5C336.5,893.5,336.5,789.5,356.5,789.5"></path><path id="kity_path_77" fill="none" stroke="rgb(115, 161, 191)" stroke-width="1" d="M400.5,789.5C420.5,789.5,420.5,789.5,440.5,789.5"></path><path id="kity_path_79" fill="none" stroke="rgb(115, 161, 191)" stroke-width="1" d="M316.5,893.5C336.5,893.5,336.5,841.5,356.5,841.5"></path><path id="kity_path_81" fill="none" stroke="rgb(115, 161, 191)" stroke-width="1" d="M400.5,841.5C420.5,841.5,420.5,841.5,440.5,841.5"></path><path id="kity_path_83" fill="none" stroke="rgb(115, 161, 191)" stroke-width="1" d="M316.5,893.5C336.5,893.5,336.5,893.5,356.5,893.5"></path><path id="kity_path_85" fill="none" stroke="rgb(115, 161, 191)" stroke-width="1" d="M436.5,893.5C456.5,893.5,456.5,893.5,476.5,893.5"></path><path id="kity_path_87" fill="none" stroke="rgb(115, 161, 191)" stroke-width="1" d="M316.5,893.5C336.5,893.5,336.5,945.5,356.5,945.5"></path><path id="kity_path_89" fill="none" stroke="rgb(115, 161, 191)" stroke-width="1" d="M424.5,945.5C444.5,945.5,444.5,945.5,464.5,945.5"></path><path id="kity_path_91" fill="none" stroke="rgb(115, 161, 191)" stroke-width="1" d="M316.5,893.5C336.5,893.5,336.5,997.5,356.5,997.5"></path><path id="kity_path_93" fill="none" stroke="rgb(115, 161, 191)" stroke-width="1" d="M400.5,997.5C420.5,997.5,420.5,997.5,440.5,997.5"></path><path id="kity_path_95" fill="none" stroke="rgb(115, 161, 191)" stroke-width="1" d="M316.5,893.5C336.5,893.5,336.5,1049.5,356.5,1049.5"></path><path id="kity_path_97" fill="none" stroke="rgb(115, 161, 191)" stroke-width="1" d="M400.5,1049.5C420.5,1049.5,420.5,1049.5,440.5,1049.5"></path><path id="kity_path_99" fill="none" stroke="rgb(115, 161, 191)" stroke-width="1" d="M60.5,810.5A158,392,0,0,0,218.5,1202.5"></path><path id="kity_path_101" fill="none" stroke="rgb(115, 161, 191)" stroke-width="1" d="M330.5,1202.5C350.5,1202.5,350.5,1111.5,370.5,1111.5"></path><path id="kity_path_103" fill="none" stroke="rgb(115, 161, 191)" stroke-width="1" d="M330.5,1202.5C350.5,1202.5,350.5,1163.5,370.5,1163.5"></path><path id="kity_path_105" fill="none" stroke="rgb(115, 161, 191)" stroke-width="1" d="M330.5,1202.5C350.5,1202.5,350.5,1293.5,370.5,1293.5"></path><path id="kity_path_107" fill="none" stroke="rgb(115, 161, 191)" stroke-width="1" d="M426.5,1293.5C446.5,1293.5,446.5,1215.5,466.5,1215.5"></path><path id="kity_path_109" fill="none" stroke="rgb(115, 161, 191)" stroke-width="1" d="M426.5,1293.5C446.5,1293.5,446.5,1267.5,466.5,1267.5"></path><path id="kity_path_111" fill="none" stroke="rgb(115, 161, 191)" stroke-width="1" d="M426.5,1293.5C446.5,1293.5,446.5,1319.5,466.5,1319.5"></path><path id="kity_path_113" fill="none" stroke="rgb(115, 161, 191)" stroke-width="1" d="M426.5,1293.5C446.5,1293.5,446.5,1371.5,466.5,1371.5"></path><path id="kity_path_115" fill="none" stroke="rgb(115, 161, 191)" stroke-width="1" d="M60.5,810.5A158,701,0,0,0,218.5,1511.5"></path><path id="kity_path_117" fill="none" stroke="rgb(115, 161, 191)" stroke-width="1" d="M372.5,1511.5C392.5,1511.5,392.5,1433.5,412.5,1433.5"></path><path id="kity_path_119" fill="none" stroke="rgb(115, 161, 191)" stroke-width="1" d="M372.5,1511.5C392.5,1511.5,392.5,1485.5,412.5,1485.5"></path><path id="kity_path_121" fill="none" stroke="rgb(115, 161, 191)" stroke-width="1" d="M372.5,1511.5C392.5,1511.5,392.5,1537.5,412.5,1537.5"></path><path id="kity_path_123" fill="none" stroke="rgb(115, 161, 191)" stroke-width="1" d="M372.5,1511.5C392.5,1511.5,392.5,1589.5,412.5,1589.5"></path></g><g id="minder_node1"><path id="node_outline1" fill="rgb(115, 161, 191)" stroke="rgb(57, 80, 96)" d="M25.5,790.5h70a5,5,0,0,1,5,5v30a5,5,0,0,1,-5,5h-70a5,5,0,0,1,-5,-5v-30a5,5,0,0,1,5,-5z" stroke-width="3"></path><g id="node_text1" fill="white"><text id="kity_text_22" text-rendering="inherit" font-size="16" dy=".8em" y="802.5" x="44.5">缓存</text></g></g><g id="kity_g_12"><path id="kity_path_13" fill="none" stroke="none" d="M44.5,810.5h0v0h0z"></path></g><g id="kity_g_14"><path id="kity_path_15" fill="none" stroke="none" d="M44.5,810.5h0v0h0z"></path><path id="kity_path_16" fill="none" stroke="none"></path></g><g id="minder_node2"><g id="node_expander5" style="cursor: pointer;"><path id="kity_path_278" fill="white" stroke="gray" d="M219.5,109.5A6,6,0,1,1,207.5,109.5A6,6,0,1,1,219.5,109.5"></path><path id="kity_path_279" fill="none" stroke="gray" d="M209,109.5L218,109.5"></path></g><path id="node_outline6" fill="rgb(238, 243, 246)" stroke="rgb(115, 161, 191)" d="M223.5,96.5h118a3,3,0,0,1,3,3v20a3,3,0,0,1,-3,3h-118a3,3,0,0,1,-3,-3v-20a3,3,0,0,1,3,-3z" stroke-width="1"></path><g id="node_text6" fill="black"><text id="kity_text_133" text-rendering="inherit" font-size="14" dy=".8em" y="102.5" x="240.5">可处理的问题</text></g></g><g id="minder_node3"><g id="node_expander1" display="none" style="cursor: pointer;"><path id="kity_path_266" fill="white" stroke="gray" d="M384.5,31.5A6,6,0,1,1,372.5,31.5A6,6,0,1,1,384.5,31.5"></path><path id="kity_path_267" fill="none" stroke="gray"></path></g><path id="node_outline2" fill="none" stroke="none" d="M389.5,20.5h94a5,5,0,0,1,5,5v12a5,5,0,0,1,-5,5h-94a5,5,0,0,1,-5,-5v-12a5,5,0,0,1,5,-5z"></path><g id="node_text2" fill="black"><text id="kity_text_125" text-rendering="inherit" font-size="12" dy=".8em" y="25.5" x="394.5">冗余的数据传输</text></g></g><g id="minder_node4"><g id="node_expander2" display="none" style="cursor: pointer;"><path id="kity_path_269" fill="white" stroke="gray" d="M384.5,83.5A6,6,0,1,1,372.5,83.5A6,6,0,1,1,384.5,83.5"></path><path id="kity_path_270" fill="none" stroke="gray"></path></g><path id="node_outline3" fill="none" stroke="none" d="M389.5,72.5h58a5,5,0,0,1,5,5v12a5,5,0,0,1,-5,5h-58a5,5,0,0,1,-5,-5v-12a5,5,0,0,1,5,-5z"></path><g id="node_text3" fill="black"><text id="kity_text_127" text-rendering="inherit" font-size="12" dy=".8em" y="77.5" x="394.5">带宽瓶颈</text></g></g><g id="minder_node5"><g id="node_expander3" display="none" style="cursor: pointer;"><path id="kity_path_272" fill="white" stroke="gray" d="M384.5,135.5A6,6,0,1,1,372.5,135.5A6,6,0,1,1,384.5,135.5"></path><path id="kity_path_273" fill="none" stroke="gray"></path></g><path id="node_outline4" fill="none" stroke="none" d="M389.5,124.5h58a5,5,0,0,1,5,5v12a5,5,0,0,1,-5,5h-58a5,5,0,0,1,-5,-5v-12a5,5,0,0,1,5,-5z"></path><g id="node_text4" fill="black"><text id="kity_text_129" text-rendering="inherit" font-size="12" dy=".8em" y="129.5" x="394.5">瞬间拥塞</text></g></g><g id="minder_node6"><g id="node_expander4" display="none" style="cursor: pointer;"><path id="kity_path_275" fill="white" stroke="gray" d="M384.5,187.5A6,6,0,1,1,372.5,187.5A6,6,0,1,1,384.5,187.5"></path><path id="kity_path_276" fill="none" stroke="gray"></path></g><path id="node_outline5" fill="none" stroke="none" d="M389.5,176.5h58a5,5,0,0,1,5,5v12a5,5,0,0,1,-5,5h-58a5,5,0,0,1,-5,-5v-12a5,5,0,0,1,5,-5z"></path><g id="node_text5" fill="black"><text id="kity_text_131" text-rendering="inherit" font-size="12" dy=".8em" y="181.5" x="394.5">距离时延</text></g></g><g id="minder_node7"><g id="node_expander13" style="cursor: pointer;"><path id="kity_path_302" fill="white" stroke="gray" d="M219.5,379.5A6,6,0,1,1,207.5,379.5A6,6,0,1,1,219.5,379.5"></path><path id="kity_path_303" fill="none" stroke="gray" d="M209,379.5L218,379.5"></path></g><path id="node_outline14" fill="rgb(238, 243, 246)" stroke="rgb(115, 161, 191)" d="M223.5,366.5h90a3,3,0,0,1,3,3v20a3,3,0,0,1,-3,3h-90a3,3,0,0,1,-3,-3v-20a3,3,0,0,1,3,-3z" stroke-width="1"></path><g id="node_text14" fill="black"><text id="kity_text_149" text-rendering="inherit" font-size="14" dy=".8em" y="372.5" x="240.5">缓存请求</text></g></g><g id="minder_node8"><g id="node_expander9" style="cursor: pointer;"><path id="kity_path_290" fill="white" stroke="gray" d="M356.5,301.5A6,6,0,1,1,344.5,301.5A6,6,0,1,1,356.5,301.5"></path><path id="kity_path_291" fill="none" stroke="gray" d="M346,301.5L355,301.5"></path></g><path id="node_outline10" fill="none" stroke="none" d="M361.5,290.5h46a5,5,0,0,1,5,5v12a5,5,0,0,1,-5,5h-46a5,5,0,0,1,-5,-5v-12a5,5,0,0,1,5,-5z"></path><g id="node_text10" fill="black"><text id="kity_text_141" text-rendering="inherit" font-size="12" dy=".8em" y="295.5" x="366.5">再验证</text></g></g><g id="minder_node9"><g id="node_expander6" display="none" style="cursor: pointer;"><path id="kity_path_281" fill="white" stroke="gray" d="M452.5,249.5A6,6,0,1,1,440.5,249.5A6,6,0,1,1,452.5,249.5"></path><path id="kity_path_282" fill="none" stroke="gray"></path></g><path id="node_outline7" fill="none" stroke="none" d="M457.5,238.5h58a5,5,0,0,1,5,5v12a5,5,0,0,1,-5,5h-58a5,5,0,0,1,-5,-5v-12a5,5,0,0,1,5,-5z"></path><g id="node_text7" fill="black"><text id="kity_text_135" text-rendering="inherit" font-size="12" dy=".8em" y="243.5" x="462.5">缓存命中</text></g></g><g id="minder_node10"><g id="node_expander7" display="none" style="cursor: pointer;"><path id="kity_path_284" fill="white" stroke="gray" d="M452.5,301.5A6,6,0,1,1,440.5,301.5A6,6,0,1,1,452.5,301.5"></path><path id="kity_path_285" fill="none" stroke="gray"></path></g><path id="node_outline8" fill="none" stroke="none" d="M457.5,290.5h70a5,5,0,0,1,5,5v12a5,5,0,0,1,-5,5h-70a5,5,0,0,1,-5,-5v-12a5,5,0,0,1,5,-5z"></path><g id="node_text8" fill="black"><text id="kity_text_137" text-rendering="inherit" font-size="12" dy=".8em" y="295.5" x="462.5">缓存未命中</text></g></g><g id="minder_node11"><g id="node_expander8" display="none" style="cursor: pointer;"><path id="kity_path_287" fill="white" stroke="gray" d="M452.5,353.5A6,6,0,1,1,440.5,353.5A6,6,0,1,1,452.5,353.5"></path><path id="kity_path_288" fill="none" stroke="gray"></path></g><path id="node_outline9" fill="none" stroke="none" d="M457.5,342.5h94a5,5,0,0,1,5,5v12a5,5,0,0,1,-5,5h-94a5,5,0,0,1,-5,-5v-12a5,5,0,0,1,5,-5z"></path><g id="node_text9" fill="black"><text id="kity_text_139" text-rendering="inherit" font-size="12" dy=".8em" y="347.5" x="462.5">缓存再验证命中</text></g></g><g id="minder_node12"><g id="node_expander10" display="none" style="cursor: pointer;"><path id="kity_path_293" fill="white" stroke="gray" d="M356.5,405.5A6,6,0,1,1,344.5,405.5A6,6,0,1,1,356.5,405.5"></path><path id="kity_path_294" fill="none" stroke="gray"></path></g><path id="node_outline11" fill="none" stroke="none" d="M361.5,394.5h70a5,5,0,0,1,5,5v12a5,5,0,0,1,-5,5h-70a5,5,0,0,1,-5,-5v-12a5,5,0,0,1,5,-5z"></path><g id="node_text11" fill="black"><text id="kity_text_143" text-rendering="inherit" font-size="12" dy=".8em" y="399.5" x="366.5">字节命中率</text></g></g><g id="minder_node13"><g id="node_expander12" style="cursor: pointer;"><path id="kity_path_299" fill="white" stroke="gray" d="M356.5,457.5A6,6,0,1,1,344.5,457.5A6,6,0,1,1,356.5,457.5"></path><path id="kity_path_300" fill="none" stroke="gray" d="M346,457.5L355,457.5"></path></g><path id="node_outline13" fill="none" stroke="none" d="M361.5,446.5h106a5,5,0,0,1,5,5v12a5,5,0,0,1,-5,5h-106a5,5,0,0,1,-5,-5v-12a5,5,0,0,1,5,-5z"></path><g id="node_text13" fill="black"><text id="kity_text_147" text-rendering="inherit" font-size="12" dy=".8em" y="451.5" x="366.5">区别命中与未命中</text></g></g><g id="minder_node14"><g id="node_expander11" display="none" style="cursor: pointer;"><path id="kity_path_296" fill="white" stroke="gray" d="M512.5,457.5A6,6,0,1,1,500.5,457.5A6,6,0,1,1,512.5,457.5"></path><path id="kity_path_297" fill="none" stroke="gray"></path></g><path id="node_outline12" fill="none" stroke="none" d="M517.5,446.5h179a5,5,0,0,1,5,5v12a5,5,0,0,1,-5,5h-179a5,5,0,0,1,-5,-5v-12a5,5,0,0,1,5,-5z"></path><g id="node_text12" fill="black"><text id="kity_text_145" text-rendering="inherit" font-size="12" dy=".8em" y="451.5" x="522.5">Date首部、VIa首部、Age首部</text></g></g><g id="minder_node15"><g id="node_expander19" style="cursor: pointer;"><path id="kity_path_320" fill="white" stroke="gray" d="M219.5,597.5A6,6,0,1,1,207.5,597.5A6,6,0,1,1,219.5,597.5"></path><path id="kity_path_321" fill="none" stroke="gray" d="M209,597.5L218,597.5"></path></g><path id="node_outline20" fill="rgb(238, 243, 246)" stroke="rgb(115, 161, 191)" d="M223.5,584.5h90a3,3,0,0,1,3,3v20a3,3,0,0,1,-3,3h-90a3,3,0,0,1,-3,-3v-20a3,3,0,0,1,3,-3z" stroke-width="1"></path><g id="node_text20" fill="black"><text id="kity_text_161" text-rendering="inherit" font-size="14" dy=".8em" y="590.5" x="240.5">拓扑结构</text></g></g><g id="minder_node16"><g id="node_expander14" display="none" style="cursor: pointer;"><path id="kity_path_305" fill="white" stroke="gray" d="M356.5,519.5A6,6,0,1,1,344.5,519.5A6,6,0,1,1,356.5,519.5"></path><path id="kity_path_306" fill="none" stroke="gray"></path></g><path id="node_outline15" fill="none" stroke="none" d="M361.5,508.5h58a5,5,0,0,1,5,5v12a5,5,0,0,1,-5,5h-58a5,5,0,0,1,-5,-5v-12a5,5,0,0,1,5,-5z"></path><g id="node_text15" fill="black"><text id="kity_text_151" text-rendering="inherit" font-size="12" dy=".8em" y="513.5" x="366.5">私有缓存</text></g></g><g id="minder_node17"><g id="node_expander15" display="none" style="cursor: pointer;"><path id="kity_path_308" fill="white" stroke="gray" d="M356.5,571.5A6,6,0,1,1,344.5,571.5A6,6,0,1,1,356.5,571.5"></path><path id="kity_path_309" fill="none" stroke="gray"></path></g><path id="node_outline16" fill="none" stroke="none" d="M361.5,560.5h82a5,5,0,0,1,5,5v12a5,5,0,0,1,-5,5h-82a5,5,0,0,1,-5,-5v-12a5,5,0,0,1,5,-5z"></path><g id="node_text16" fill="black"><text id="kity_text_153" text-rendering="inherit" font-size="12" dy=".8em" y="565.5" x="366.5">公有代理缓存</text></g></g><g id="minder_node18"><g id="node_expander17" style="cursor: pointer;"><path id="kity_path_314" fill="white" stroke="gray" d="M356.5,623.5A6,6,0,1,1,344.5,623.5A6,6,0,1,1,356.5,623.5"></path><path id="kity_path_315" fill="none" stroke="gray" d="M346,623.5L355,623.5"></path></g><path id="node_outline18" fill="none" stroke="none" d="M361.5,612.5h70a5,5,0,0,1,5,5v12a5,5,0,0,1,-5,5h-70a5,5,0,0,1,-5,-5v-12a5,5,0,0,1,5,-5z"></path><g id="node_text18" fill="black"><text id="kity_text_157" text-rendering="inherit" font-size="12" dy=".8em" y="617.5" x="366.5">层次化缓存</text></g></g><g id="minder_node19"><g id="node_expander16" display="none" style="cursor: pointer;"><path id="kity_path_311" fill="white" stroke="gray" d="M476.5,623.5A6,6,0,1,1,464.5,623.5A6,6,0,1,1,476.5,623.5"></path><path id="kity_path_312" fill="none" stroke="gray"></path></g><path id="node_outline17" fill="none" stroke="none" d="M481.5,612.5h236a5,5,0,0,1,5,5v12a5,5,0,0,1,-5,5h-236a5,5,0,0,1,-5,-5v-12a5,5,0,0,1,5,-5z"></path><g id="node_text17" fill="black"><text id="kity_text_155" text-rendering="inherit" font-size="12" dy=".8em" y="617.5" x="486.5">一级缓存-&gt;地区性网络-&gt;二级缓存-&gt;广域网</text></g></g><g id="minder_node20"><g id="node_expander18" display="none" style="cursor: pointer;"><path id="kity_path_317" fill="white" stroke="gray" d="M356.5,675.5A6,6,0,1,1,344.5,675.5A6,6,0,1,1,356.5,675.5"></path><path id="kity_path_318" fill="none" stroke="gray"></path></g><path id="node_outline19" fill="none" stroke="none" d="M361.5,664.5h118a5,5,0,0,1,5,5v12a5,5,0,0,1,-5,5h-118a5,5,0,0,1,-5,-5v-12a5,5,0,0,1,5,-5z"></path><g id="node_text19" fill="black"><text id="kity_text_159" text-rendering="inherit" font-size="12" dy=".8em" y="669.5" x="366.5">网状缓存、内容路由</text></g></g><g id="minder_node21"><g id="node_expander34" style="cursor: pointer;"><path id="kity_path_365" fill="white" stroke="gray" d="M219.5,893.5A6,6,0,1,1,207.5,893.5A6,6,0,1,1,219.5,893.5"></path><path id="kity_path_366" fill="none" stroke="gray" d="M209,893.5L218,893.5"></path></g><path id="node_outline35" fill="rgb(238, 243, 246)" stroke="rgb(115, 161, 191)" d="M223.5,880.5h90a3,3,0,0,1,3,3v20a3,3,0,0,1,-3,3h-90a3,3,0,0,1,-3,-3v-20a3,3,0,0,1,3,-3z" stroke-width="1"></path><g id="node_text35" fill="black"><text id="kity_text_191" text-rendering="inherit" font-size="14" dy=".8em" y="886.5" x="240.5">处理步骤</text></g></g><g id="minder_node22"><g id="node_expander21" style="cursor: pointer;"><path id="kity_path_326" fill="white" stroke="gray" d="M356.5,737.5A6,6,0,1,1,344.5,737.5A6,6,0,1,1,356.5,737.5"></path><path id="kity_path_327" fill="none" stroke="gray" d="M346,737.5L355,737.5"></path></g><path id="node_outline22" fill="none" stroke="none" d="M361.5,726.5h34a5,5,0,0,1,5,5v12a5,5,0,0,1,-5,5h-34a5,5,0,0,1,-5,-5v-12a5,5,0,0,1,5,-5z"></path><g id="node_text22" fill="black"><text id="kity_text_165" text-rendering="inherit" font-size="12" dy=".8em" y="731.5" x="366.5">接收</text></g></g><g id="minder_node23"><g id="node_expander20" display="none" style="cursor: pointer;"><path id="kity_path_323" fill="white" stroke="gray" d="M440.5,737.5A6,6,0,1,1,428.5,737.5A6,6,0,1,1,440.5,737.5"></path><path id="kity_path_324" fill="none" stroke="gray"></path></g><path id="node_outline21" fill="none" stroke="none" d="M445.5,726.5h82a5,5,0,0,1,5,5v12a5,5,0,0,1,-5,5h-82a5,5,0,0,1,-5,-5v-12a5,5,0,0,1,5,-5z"></path><g id="node_text21" fill="black"><text id="kity_text_163" text-rendering="inherit" font-size="12" dy=".8em" y="731.5" x="450.5">读取请求报文</text></g></g><g id="minder_node24"><g id="node_expander23" style="cursor: pointer;"><path id="kity_path_332" fill="white" stroke="gray" d="M356.5,789.5A6,6,0,1,1,344.5,789.5A6,6,0,1,1,356.5,789.5"></path><path id="kity_path_333" fill="none" stroke="gray" d="M346,789.5L355,789.5"></path></g><path id="node_outline24" fill="none" stroke="none" d="M361.5,778.5h34a5,5,0,0,1,5,5v12a5,5,0,0,1,-5,5h-34a5,5,0,0,1,-5,-5v-12a5,5,0,0,1,5,-5z"></path><g id="node_text24" fill="black"><text id="kity_text_169" text-rendering="inherit" font-size="12" dy=".8em" y="783.5" x="366.5">解析</text></g></g><g id="minder_node25"><g id="node_expander22" display="none" style="cursor: pointer;"><path id="kity_path_329" fill="white" stroke="gray" d="M440.5,789.5A6,6,0,1,1,428.5,789.5A6,6,0,1,1,440.5,789.5"></path><path id="kity_path_330" fill="none" stroke="gray"></path></g><path id="node_outline23" fill="none" stroke="none" d="M445.5,778.5h151a5,5,0,0,1,5,5v12a5,5,0,0,1,-5,5h-151a5,5,0,0,1,-5,-5v-12a5,5,0,0,1,5,-5z"></path><g id="node_text23" fill="black"><text id="kity_text_167" text-rendering="inherit" font-size="12" dy=".8em" y="783.5" x="450.5">解析报文，提取URL和首部</text></g></g><g id="minder_node26"><g id="node_expander25" style="cursor: pointer;"><path id="kity_path_338" fill="white" stroke="gray" d="M356.5,841.5A6,6,0,1,1,344.5,841.5A6,6,0,1,1,356.5,841.5"></path><path id="kity_path_339" fill="none" stroke="gray" d="M346,841.5L355,841.5"></path></g><path id="node_outline26" fill="none" stroke="none" d="M361.5,830.5h34a5,5,0,0,1,5,5v12a5,5,0,0,1,-5,5h-34a5,5,0,0,1,-5,-5v-12a5,5,0,0,1,5,-5z"></path><g id="node_text26" fill="black"><text id="kity_text_173" text-rendering="inherit" font-size="12" dy=".8em" y="835.5" x="366.5">查询</text></g></g><g id="minder_node27"><g id="node_expander24" display="none" style="cursor: pointer;"><path id="kity_path_335" fill="white" stroke="gray" d="M440.5,841.5A6,6,0,1,1,428.5,841.5A6,6,0,1,1,440.5,841.5"></path><path id="kity_path_336" fill="none" stroke="gray"></path></g><path id="node_outline25" fill="none" stroke="none" d="M445.5,830.5h250a5,5,0,0,1,5,5v12a5,5,0,0,1,-5,5h-250a5,5,0,0,1,-5,-5v-12a5,5,0,0,1,5,-5z"></path><g id="node_text25" fill="black"><text id="kity_text_171" text-rendering="inherit" font-size="12" dy=".8em" y="835.5" x="450.5">查询本地是否有副本可用，没有则获取并保存</text></g></g><g id="minder_node28"><g id="node_expander27" style="cursor: pointer;"><path id="kity_path_344" fill="white" stroke="gray" d="M356.5,893.5A6,6,0,1,1,344.5,893.5A6,6,0,1,1,356.5,893.5"></path><path id="kity_path_345" fill="none" stroke="gray" d="M346,893.5L355,893.5"></path></g><path id="node_outline28" fill="none" stroke="none" d="M361.5,882.5h70a5,5,0,0,1,5,5v12a5,5,0,0,1,-5,5h-70a5,5,0,0,1,-5,-5v-12a5,5,0,0,1,5,-5z"></path><g id="node_text28" fill="black"><text id="kity_text_177" text-rendering="inherit" font-size="12" dy=".8em" y="887.5" x="366.5">新鲜度检测</text></g></g><g id="minder_node29"><g id="node_expander26" display="none" style="cursor: pointer;"><path id="kity_path_341" fill="white" stroke="gray" d="M476.5,893.5A6,6,0,1,1,464.5,893.5A6,6,0,1,1,476.5,893.5"></path><path id="kity_path_342" fill="none" stroke="gray"></path></g><path id="node_outline27" fill="none" stroke="none" d="M481.5,882.5h272a5,5,0,0,1,5,5v12a5,5,0,0,1,-5,5h-272a5,5,0,0,1,-5,-5v-12a5,5,0,0,1,5,-5z"></path><g id="node_text27" fill="black"><text id="kity_text_175" text-rendering="inherit" font-size="12" dy=".8em" y="887.5" x="486.5">检测副本是否新鲜，不是则询问server是否有更新</text></g></g><g id="minder_node30"><g id="node_expander29" style="cursor: pointer;"><path id="kity_path_350" fill="white" stroke="gray" d="M356.5,945.5A6,6,0,1,1,344.5,945.5A6,6,0,1,1,356.5,945.5"></path><path id="kity_path_351" fill="none" stroke="gray" d="M346,945.5L355,945.5"></path></g><path id="node_outline30" fill="none" stroke="none" d="M361.5,934.5h58a5,5,0,0,1,5,5v12a5,5,0,0,1,-5,5h-58a5,5,0,0,1,-5,-5v-12a5,5,0,0,1,5,-5z"></path><g id="node_text30" fill="black"><text id="kity_text_181" text-rendering="inherit" font-size="12" dy=".8em" y="939.5" x="366.5">创建响应</text></g></g><g id="minder_node31"><g id="node_expander28" display="none" style="cursor: pointer;"><path id="kity_path_347" fill="white" stroke="gray" d="M464.5,945.5A6,6,0,1,1,452.5,945.5A6,6,0,1,1,464.5,945.5"></path><path id="kity_path_348" fill="none" stroke="gray"></path></g><path id="node_outline29" fill="none" stroke="none" d="M469.5,934.5h214a5,5,0,0,1,5,5v12a5,5,0,0,1,-5,5h-214a5,5,0,0,1,-5,-5v-12a5,5,0,0,1,5,-5z"></path><g id="node_text29" fill="black"><text id="kity_text_179" text-rendering="inherit" font-size="12" dy=".8em" y="939.5" x="474.5">使用新首部与已缓存主体构建响应报文</text></g></g><g id="minder_node32"><g id="node_expander31" style="cursor: pointer;"><path id="kity_path_356" fill="white" stroke="gray" d="M356.5,997.5A6,6,0,1,1,344.5,997.5A6,6,0,1,1,356.5,997.5"></path><path id="kity_path_357" fill="none" stroke="gray" d="M346,997.5L355,997.5"></path></g><path id="node_outline32" fill="none" stroke="none" d="M361.5,986.5h34a5,5,0,0,1,5,5v12a5,5,0,0,1,-5,5h-34a5,5,0,0,1,-5,-5v-12a5,5,0,0,1,5,-5z"></path><g id="node_text32" fill="black"><text id="kity_text_185" text-rendering="inherit" font-size="12" dy=".8em" y="991.5" x="366.5">发送</text></g></g><g id="minder_node33"><g id="node_expander30" display="none" style="cursor: pointer;"><path id="kity_path_353" fill="white" stroke="gray" d="M440.5,997.5A6,6,0,1,1,428.5,997.5A6,6,0,1,1,440.5,997.5"></path><path id="kity_path_354" fill="none" stroke="gray"></path></g><path id="node_outline31" fill="none" stroke="none" d="M445.5,986.5h126a5,5,0,0,1,5,5v12a5,5,0,0,1,-5,5h-126a5,5,0,0,1,-5,-5v-12a5,5,0,0,1,5,-5z"></path><g id="node_text31" fill="black"><text id="kity_text_183" text-rendering="inherit" font-size="12" dy=".8em" y="991.5" x="450.5">向client发送响应报文</text></g></g><g id="minder_node34"><g id="node_expander33" style="cursor: pointer;"><path id="kity_path_362" fill="white" stroke="gray" d="M356.5,1049.5A6,6,0,1,1,344.5,1049.5A6,6,0,1,1,356.5,1049.5"></path><path id="kity_path_363" fill="none" stroke="gray" d="M346,1049.5L355,1049.5"></path></g><path id="node_outline34" fill="none" stroke="none" d="M361.5,1038.5h34a5,5,0,0,1,5,5v12a5,5,0,0,1,-5,5h-34a5,5,0,0,1,-5,-5v-12a5,5,0,0,1,5,-5z"></path><g id="node_text34" fill="black"><text id="kity_text_189" text-rendering="inherit" font-size="12" dy=".8em" y="1043.5" x="366.5">日志</text></g></g><g id="minder_node35"><g id="node_expander32" display="none" style="cursor: pointer;"><path id="kity_path_359" fill="white" stroke="gray" d="M440.5,1049.5A6,6,0,1,1,428.5,1049.5A6,6,0,1,1,440.5,1049.5"></path><path id="kity_path_360" fill="none" stroke="gray"></path></g><path id="node_outline33" fill="none" stroke="none" d="M445.5,1038.5h154a5,5,0,0,1,5,5v12a5,5,0,0,1,-5,5h-154a5,5,0,0,1,-5,-5v-12a5,5,0,0,1,5,-5z"></path><g id="node_text33" fill="black"><text id="kity_text_187" text-rendering="inherit" font-size="12" dy=".8em" y="1043.5" x="450.5">创建日志文件保存事务信息</text></g></g><g id="minder_node36"><g id="node_expander42" style="cursor: pointer;"><path id="kity_path_389" fill="white" stroke="gray" d="M219.5,1202.5A6,6,0,1,1,207.5,1202.5A6,6,0,1,1,219.5,1202.5"></path><path id="kity_path_390" fill="none" stroke="gray" d="M209,1202.5L218,1202.5"></path></g><path id="node_outline43" fill="rgb(238, 243, 246)" stroke="rgb(115, 161, 191)" d="M223.5,1189.5h104a3,3,0,0,1,3,3v20a3,3,0,0,1,-3,3h-104a3,3,0,0,1,-3,-3v-20a3,3,0,0,1,3,-3z" stroke-width="1"></path><g id="node_text43" fill="black"><text id="kity_text_207" text-rendering="inherit" font-size="14" dy=".8em" y="1195.5" x="240.5">保持新鲜度</text></g></g><g id="minder_node37"><g id="node_expander35" display="none" style="cursor: pointer;"><path id="kity_path_368" fill="white" stroke="gray" d="M370.5,1111.5A6,6,0,1,1,358.5,1111.5A6,6,0,1,1,370.5,1111.5"></path><path id="kity_path_369" fill="none" stroke="gray"></path></g><path id="node_outline36" fill="none" stroke="none" d="M375.5,1100.5h197a5,5,0,0,1,5,5v12a5,5,0,0,1,-5,5h-197a5,5,0,0,1,-5,-5v-12a5,5,0,0,1,5,-5z"></path><g id="node_text36" fill="black"><text id="kity_text_193" text-rendering="inherit" font-size="12" dy=".8em" y="1105.5" x="380.5">Cache-Control首部和Expires首部</text></g></g><g id="minder_node38"><g id="node_expander36" display="none" style="cursor: pointer;"><path id="kity_path_371" fill="white" stroke="gray" d="M370.5,1163.5A6,6,0,1,1,358.5,1163.5A6,6,0,1,1,370.5,1163.5"></path><path id="kity_path_372" fill="none" stroke="gray"></path></g><path id="node_outline37" fill="none" stroke="none" d="M375.5,1152.5h118a5,5,0,0,1,5,5v12a5,5,0,0,1,-5,5h-118a5,5,0,0,1,-5,-5v-12a5,5,0,0,1,5,-5z"></path><g id="node_text37" fill="black"><text id="kity_text_195" text-rendering="inherit" font-size="12" dy=".8em" y="1157.5" x="380.5">过期日期与使用日期</text></g></g><g id="minder_node39"><g id="node_expander41" style="cursor: pointer;"><path id="kity_path_386" fill="white" stroke="gray" d="M370.5,1293.5A6,6,0,1,1,358.5,1293.5A6,6,0,1,1,370.5,1293.5"></path><path id="kity_path_387" fill="none" stroke="gray" d="M360,1293.5L369,1293.5"></path></g><path id="node_outline42" fill="none" stroke="none" d="M375.5,1282.5h46a5,5,0,0,1,5,5v12a5,5,0,0,1,-5,5h-46a5,5,0,0,1,-5,-5v-12a5,5,0,0,1,5,-5z"></path><g id="node_text42" fill="black"><text id="kity_text_205" text-rendering="inherit" font-size="12" dy=".8em" y="1287.5" x="380.5">再验证</text></g></g><g id="minder_node40"><g id="node_expander37" display="none" style="cursor: pointer;"><path id="kity_path_374" fill="white" stroke="gray" d="M466.5,1215.5A6,6,0,1,1,454.5,1215.5A6,6,0,1,1,466.5,1215.5"></path><path id="kity_path_375" fill="none" stroke="gray"></path></g><path id="node_outline38" fill="none" stroke="none" d="M471.5,1204.5h82a5,5,0,0,1,5,5v12a5,5,0,0,1,-5,5h-82a5,5,0,0,1,-5,-5v-12a5,5,0,0,1,5,-5z"></path><g id="node_text38" fill="black"><text id="kity_text_197" text-rendering="inherit" font-size="12" dy=".8em" y="1209.5" x="476.5">服务器再验证</text></g></g><g id="minder_node41"><g id="node_expander38" display="none" style="cursor: pointer;"><path id="kity_path_377" fill="white" stroke="gray" d="M466.5,1267.5A6,6,0,1,1,454.5,1267.5A6,6,0,1,1,466.5,1267.5"></path><path id="kity_path_378" fill="none" stroke="gray"></path></g><path id="node_outline39" fill="none" stroke="none" d="M471.5,1256.5h94a5,5,0,0,1,5,5v12a5,5,0,0,1,-5,5h-94a5,5,0,0,1,-5,-5v-12a5,5,0,0,1,5,-5z"></path><g id="node_text39" fill="black"><text id="kity_text_199" text-rendering="inherit" font-size="12" dy=".8em" y="1261.5" x="476.5">条件方法再验证</text></g></g><g id="minder_node42"><g id="node_expander39" display="none" style="cursor: pointer;"><path id="kity_path_380" fill="white" stroke="gray" d="M466.5,1319.5A6,6,0,1,1,454.5,1319.5A6,6,0,1,1,466.5,1319.5"></path><path id="kity_path_381" fill="none" stroke="gray"></path></g><path id="node_outline40" fill="none" stroke="none" d="M471.5,1308.5h176a5,5,0,0,1,5,5v12a5,5,0,0,1,-5,5h-176a5,5,0,0,1,-5,-5v-12a5,5,0,0,1,5,-5z"></path><g id="node_text40" fill="black"><text id="kity_text_201" text-rendering="inherit" font-size="12" dy=".8em" y="1313.5" x="476.5">If-Modified-Since:Date再验证</text></g></g><g id="minder_node43"><g id="node_expander40" display="none" style="cursor: pointer;"><path id="kity_path_383" fill="white" stroke="gray" d="M466.5,1371.5A6,6,0,1,1,454.5,1371.5A6,6,0,1,1,466.5,1371.5"></path><path id="kity_path_384" fill="none" stroke="gray"></path></g><path id="node_outline41" fill="none" stroke="none" d="M471.5,1360.5h131a5,5,0,0,1,5,5v12a5,5,0,0,1,-5,5h-131a5,5,0,0,1,-5,-5v-12a5,5,0,0,1,5,-5z"></path><g id="node_text41" fill="black"><text id="kity_text_203" text-rendering="inherit" font-size="12" dy=".8em" y="1365.5" x="476.5">If-None-Match再验证</text></g></g><g id="minder_node44"><g id="node_expander47" style="cursor: pointer;"><path id="kity_path_404" fill="white" stroke="gray" d="M219.5,1511.5A6,6,0,1,1,207.5,1511.5A6,6,0,1,1,219.5,1511.5"></path><path id="kity_path_405" fill="none" stroke="gray" d="M209,1511.5L218,1511.5"></path></g><path id="node_outline48" fill="rgb(238, 243, 246)" stroke="rgb(115, 161, 191)" d="M223.5,1498.5h146a3,3,0,0,1,3,3v20a3,3,0,0,1,-3,3h-146a3,3,0,0,1,-3,-3v-20a3,3,0,0,1,3,-3z" stroke-width="1"></path><g id="node_text48" fill="black"><text id="kity_text_217" text-rendering="inherit" font-size="14" dy=".8em" y="1504.5" x="240.5">控制缓存保存时间</text></g></g><g id="minder_node45"><g id="node_expander43" display="none" style="cursor: pointer;"><path id="kity_path_392" fill="white" stroke="gray" d="M412.5,1433.5A6,6,0,1,1,400.5,1433.5A6,6,0,1,1,412.5,1433.5"></path><path id="kity_path_393" fill="none" stroke="gray"></path></g><path id="node_outline44" fill="none" stroke="none" d="M417.5,1422.5h175a5,5,0,0,1,5,5v12a5,5,0,0,1,-5,5h-175a5,5,0,0,1,-5,-5v-12a5,5,0,0,1,5,-5z"></path><g id="node_text44" fill="black"><text id="kity_text_209" text-rendering="inherit" font-size="12" dy=".8em" y="1427.5" x="422.5">no-store与no-cache响应首部</text></g></g><g id="minder_node46"><g id="node_expander44" display="none" style="cursor: pointer;"><path id="kity_path_395" fill="white" stroke="gray" d="M412.5,1485.5A6,6,0,1,1,400.5,1485.5A6,6,0,1,1,412.5,1485.5"></path><path id="kity_path_396" fill="none" stroke="gray"></path></g><path id="node_outline45" fill="none" stroke="none" d="M417.5,1474.5h111a5,5,0,0,1,5,5v12a5,5,0,0,1,-5,5h-111a5,5,0,0,1,-5,-5v-12a5,5,0,0,1,5,-5z"></path><g id="node_text45" fill="black"><text id="kity_text_211" text-rendering="inherit" font-size="12" dy=".8em" y="1479.5" x="422.5">max-age响应首部</text></g></g><g id="minder_node47"><g id="node_expander45" display="none" style="cursor: pointer;"><path id="kity_path_398" fill="white" stroke="gray" d="M412.5,1537.5A6,6,0,1,1,400.5,1537.5A6,6,0,1,1,412.5,1537.5"></path><path id="kity_path_399" fill="none" stroke="gray"></path></g><path id="node_outline46" fill="none" stroke="none" d="M417.5,1526.5h98a5,5,0,0,1,5,5v12a5,5,0,0,1,-5,5h-98a5,5,0,0,1,-5,-5v-12a5,5,0,0,1,5,-5z"></path><g id="node_text46" fill="black"><text id="kity_text_213" text-rendering="inherit" font-size="12" dy=".8em" y="1531.5" x="422.5">expires响应首部</text></g></g><g id="minder_node48"><g id="node_expander46" display="none" style="cursor: pointer;"><path id="kity_path_401" fill="white" stroke="gray" d="M412.5,1589.5A6,6,0,1,1,400.5,1589.5A6,6,0,1,1,412.5,1589.5"></path><path id="kity_path_402" fill="none" stroke="gray"></path></g><path id="node_outline47" fill="none" stroke="none" d="M417.5,1578.5h149a5,5,0,0,1,5,5v12a5,5,0,0,1,-5,5h-149a5,5,0,0,1,-5,-5v-12a5,5,0,0,1,5,-5z"></path><g id="node_text47" fill="black"><text id="kity_text_215" text-rendering="inherit" font-size="12" dy=".8em" y="1583.5" x="422.5">must-revalidate响应首部</text></g></g></g></g></svg>