<svg id="kity_svg_6" xmlns="http://www.w3.org/2000/svg" xmlns:xlink="http://www.w3.org/1999/xlink" version="1.1" width="816" height="904" style="background: rgb(251, 251, 251); visibility: visible;" viewBox="0 0 816 904"><defs id="kity_defs_7"><linearGradient id="kity_linearGradient_17" x1="0" y1="0" x2="0" y2="1"><stop id="kity_stop_18" offset="0" stop-color="rgb(255, 255, 255)"></stop><stop id="kity_stop_19" offset="1" stop-color="rgb(204, 204, 204)"></stop></linearGradient><marker id="kity_marker_2" orient="auto" refX="6" refY="0" viewBox="-7 -7 14 14" markerWidth="7" markerHeight="7" markerUnits="userSpaceOnUse"><path id="kity_path_3" fill="rgb(115, 161, 191)" stroke="none" d="M6,0A6,6,0,1,1,-6,0A6,6,0,1,1,6,0"></path></marker></defs><g id="kity_g_8"><g id="minder1" text-rendering="optimize-speed"><g id="minder_connect_group1"><path id="kity_path_31" fill="none" stroke="rgb(115, 161, 191)" stroke-width="1" d="M60.5,465.5A158,200,0,0,1,218.5,265.5"></path><path id="kity_path_33" fill="none" stroke="rgb(115, 161, 191)" stroke-width="1" d="M316.5,265.5C336.5,265.5,336.5,83.5,356.5,83.5"></path><path id="kity_path_35" fill="none" stroke="rgb(115, 161, 191)" stroke-width="1" d="M472.5,83.5C492.5,83.5,492.5,31.5,512.5,31.5"></path><path id="kity_path_37" fill="none" stroke="rgb(115, 161, 191)" stroke-width="1" d="M472.5,83.5C492.5,83.5,492.5,83.5,512.5,83.5"></path><path id="kity_path_39" fill="none" stroke="rgb(115, 161, 191)" stroke-width="1" d="M472.5,83.5C492.5,83.5,492.5,135.5,512.5,135.5"></path><path id="kity_path_41" fill="none" stroke="rgb(115, 161, 191)" stroke-width="1" d="M316.5,265.5C336.5,265.5,336.5,265.5,356.5,265.5"></path><path id="kity_path_43" fill="none" stroke="rgb(115, 161, 191)" stroke-width="1" d="M508.5,265.5C528.5,265.5,528.5,187.5,548.5,187.5"></path><path id="kity_path_45" fill="none" stroke="rgb(115, 161, 191)" stroke-width="1" d="M508.5,265.5C528.5,265.5,528.5,239.5,548.5,239.5"></path><path id="kity_path_47" fill="none" stroke="rgb(115, 161, 191)" stroke-width="1" d="M508.5,265.5C528.5,265.5,528.5,291.5,548.5,291.5"></path><path id="kity_path_49" fill="none" stroke="rgb(115, 161, 191)" stroke-width="1" d="M508.5,265.5C528.5,265.5,528.5,343.5,548.5,343.5"></path><path id="kity_path_51" fill="none" stroke="rgb(115, 161, 191)" stroke-width="1" d="M316.5,265.5C336.5,265.5,336.5,395.5,356.5,395.5"></path><path id="kity_path_53" fill="none" stroke="rgb(115, 161, 191)" stroke-width="1" d="M424.5,395.5C444.5,395.5,444.5,395.5,464.5,395.5"></path><path id="kity_path_55" fill="none" stroke="rgb(115, 161, 191)" stroke-width="1" d="M599.5,395.5C619.5,395.5,619.5,395.5,639.5,395.5"></path><path id="kity_path_57" fill="none" stroke="rgb(115, 161, 191)" stroke-width="1" d="M316.5,265.5C336.5,265.5,336.5,447.5,356.5,447.5"></path><path id="kity_path_59" fill="none" stroke="rgb(115, 161, 191)" stroke-width="1" d="M424.5,447.5C444.5,447.5,444.5,447.5,464.5,447.5"></path><path id="kity_path_61" fill="none" stroke="rgb(115, 161, 191)" stroke-width="1" d="M60.5,465.5A158,200,0,0,0,218.5,665.5"></path><path id="kity_path_63" fill="none" stroke="rgb(115, 161, 191)" stroke-width="1" d="M297.5,665.5C317.5,665.5,317.5,509.5,337.5,509.5"></path><path id="kity_path_65" fill="none" stroke="rgb(115, 161, 191)" stroke-width="1" d="M297.5,665.5C317.5,665.5,317.5,639.5,337.5,639.5"></path><path id="kity_path_67" fill="none" stroke="rgb(115, 161, 191)" stroke-width="1" d="M398.5,639.5C418.5,639.5,418.5,561.5,438.5,561.5"></path><path id="kity_path_69" fill="none" stroke="rgb(115, 161, 191)" stroke-width="1" d="M398.5,639.5C418.5,639.5,418.5,613.5,438.5,613.5"></path><path id="kity_path_71" fill="none" stroke="rgb(115, 161, 191)" stroke-width="1" d="M398.5,639.5C418.5,639.5,418.5,665.5,438.5,665.5"></path><path id="kity_path_73" fill="none" stroke="rgb(115, 161, 191)" stroke-width="1" d="M398.5,639.5C418.5,639.5,418.5,717.5,438.5,717.5"></path><path id="kity_path_75" fill="none" stroke="rgb(115, 161, 191)" stroke-width="1" d="M297.5,665.5C317.5,665.5,317.5,821.5,337.5,821.5"></path><path id="kity_path_77" fill="none" stroke="rgb(115, 161, 191)" stroke-width="1" d="M417.5,821.5C437.5,821.5,437.5,769.5,457.5,769.5"></path><path id="kity_path_79" fill="none" stroke="rgb(115, 161, 191)" stroke-width="1" d="M417.5,821.5C437.5,821.5,437.5,821.5,457.5,821.5"></path><path id="kity_path_81" fill="none" stroke="rgb(115, 161, 191)" stroke-width="1" d="M417.5,821.5C437.5,821.5,437.5,873.5,457.5,873.5"></path></g><g id="minder_node1"><path id="node_outline1" fill="rgb(115, 161, 191)" stroke="rgb(57, 80, 96)" d="M25.5,445.5h70a5,5,0,0,1,5,5v30a5,5,0,0,1,-5,5h-70a5,5,0,0,1,-5,-5v-30a5,5,0,0,1,5,-5z" stroke-width="3"></path><g id="node_text1" fill="white"><text id="kity_text_22" text-rendering="inherit" font-size="16" dy=".8em" y="457.5" x="44.5">安全</text></g></g><g id="kity_g_12"><path id="kity_path_13" fill="none" stroke="none" d="M44.5,465.5h0v0h0z"></path></g><g id="kity_g_14"><path id="kity_path_15" fill="none" stroke="none" d="M44.5,465.5h0v0h0z"></path><path id="kity_path_16" fill="none" stroke="none"></path></g><g id="minder_node2"><g id="node_expander15" style="cursor: pointer;"><path id="kity_path_203" fill="white" stroke="gray" d="M219.5,265.5A6,6,0,1,1,207.5,265.5A6,6,0,1,1,219.5,265.5"></path><path id="kity_path_204" fill="none" stroke="gray" d="M209,265.5L218,265.5"></path></g><path id="node_outline16" fill="rgb(238, 243, 246)" stroke="rgb(115, 161, 191)" d="M223.5,252.5h90a3,3,0,0,1,3,3v20a3,3,0,0,1,-3,3h-90a3,3,0,0,1,-3,-3v-20a3,3,0,0,1,3,-3z" stroke-width="1"></path><g id="node_text16" fill="black"><text id="kity_text_111" text-rendering="inherit" font-size="14" dy=".8em" y="258.5" x="240.5">数字加密</text></g></g><g id="minder_node3"><g id="node_expander4" style="cursor: pointer;"><path id="kity_path_170" fill="white" stroke="gray" d="M356.5,83.5A6,6,0,1,1,344.5,83.5A6,6,0,1,1,356.5,83.5"></path><path id="kity_path_171" fill="none" stroke="gray" d="M346,83.5L355,83.5"></path></g><path id="node_outline5" fill="none" stroke="none" d="M361.5,72.5h106a5,5,0,0,1,5,5v12a5,5,0,0,1,-5,5h-106a5,5,0,0,1,-5,-5v-12a5,5,0,0,1,5,-5z"></path><g id="node_text5" fill="black"><text id="kity_text_89" text-rendering="inherit" font-size="12" dy=".8em" y="77.5" x="366.5">对称密钥加密技术</text></g></g><g id="minder_node4"><g id="node_expander1" display="none" style="cursor: pointer;"><path id="kity_path_161" fill="white" stroke="gray" d="M512.5,31.5A6,6,0,1,1,500.5,31.5A6,6,0,1,1,512.5,31.5"></path><path id="kity_path_162" fill="none" stroke="gray"></path></g><path id="node_outline2" fill="none" stroke="none" d="M517.5,20.5h135a5,5,0,0,1,5,5v12a5,5,0,0,1,-5,5h-135a5,5,0,0,1,-5,-5v-12a5,5,0,0,1,5,-5z"></path><g id="node_text2" fill="black"><text id="kity_text_83" text-rendering="inherit" font-size="12" dy=".8em" y="25.5" x="522.5">编/解码使用相同的密钥</text></g></g><g id="minder_node5"><g id="node_expander2" display="none" style="cursor: pointer;"><path id="kity_path_164" fill="white" stroke="gray" d="M512.5,83.5A6,6,0,1,1,500.5,83.5A6,6,0,1,1,512.5,83.5"></path><path id="kity_path_165" fill="none" stroke="gray"></path></g><path id="node_outline3" fill="none" stroke="none" d="M517.5,72.5h206a5,5,0,0,1,5,5v12a5,5,0,0,1,-5,5h-206a5,5,0,0,1,-5,-5v-12a5,5,0,0,1,5,-5z"></path><g id="node_text3" fill="black"><text id="kity_text_85" text-rendering="inherit" font-size="12" dy=".8em" y="77.5" x="522.5">算法：DES、Triple-DES、RC2、RC4</text></g></g><g id="minder_node6"><g id="node_expander3" display="none" style="cursor: pointer;"><path id="kity_path_167" fill="white" stroke="gray" d="M512.5,135.5A6,6,0,1,1,500.5,135.5A6,6,0,1,1,512.5,135.5"></path><path id="kity_path_168" fill="none" stroke="gray"></path></g><path id="node_outline4" fill="none" stroke="none" d="M517.5,124.5h118a5,5,0,0,1,5,5v12a5,5,0,0,1,-5,5h-118a5,5,0,0,1,-5,-5v-12a5,5,0,0,1,5,-5z"></path><g id="node_text4" fill="black"><text id="kity_text_87" text-rendering="inherit" font-size="12" dy=".8em" y="129.5" x="522.5">密钥长度与枚举攻击</text></g></g><g id="minder_node7"><g id="node_expander9" style="cursor: pointer;"><path id="kity_path_185" fill="white" stroke="gray" d="M356.5,265.5A6,6,0,1,1,344.5,265.5A6,6,0,1,1,356.5,265.5"></path><path id="kity_path_186" fill="none" stroke="gray" d="M346,265.5L355,265.5"></path></g><path id="node_outline10" fill="none" stroke="none" d="M361.5,254.5h142a5,5,0,0,1,5,5v12a5,5,0,0,1,-5,5h-142a5,5,0,0,1,-5,-5v-12a5,5,0,0,1,5,-5z"></path><g id="node_text10" fill="black"><text id="kity_text_99" text-rendering="inherit" font-size="12" dy=".8em" y="259.5" x="366.5">非对称公开密钥加密技术</text></g></g><g id="minder_node8"><g id="node_expander5" display="none" style="cursor: pointer;"><path id="kity_path_173" fill="white" stroke="gray" d="M548.5,187.5A6,6,0,1,1,536.5,187.5A6,6,0,1,1,548.5,187.5"></path><path id="kity_path_174" fill="none" stroke="gray"></path></g><path id="node_outline6" fill="none" stroke="none" d="M553.5,176.5h106a5,5,0,0,1,5,5v12a5,5,0,0,1,-5,5h-106a5,5,0,0,1,-5,-5v-12a5,5,0,0,1,5,-5z"></path><g id="node_text6" fill="black"><text id="kity_text_91" text-rendering="inherit" font-size="12" dy=".8em" y="181.5" x="558.5">编码密钥众所周知</text></g></g><g id="minder_node9"><g id="node_expander6" display="none" style="cursor: pointer;"><path id="kity_path_176" fill="white" stroke="gray" d="M548.5,239.5A6,6,0,1,1,536.5,239.5A6,6,0,1,1,548.5,239.5"></path><path id="kity_path_177" fill="none" stroke="gray"></path></g><path id="node_outline7" fill="none" stroke="none" d="M553.5,228.5h130a5,5,0,0,1,5,5v12a5,5,0,0,1,-5,5h-130a5,5,0,0,1,-5,-5v-12a5,5,0,0,1,5,-5z"></path><g id="node_text7" fill="black"><text id="kity_text_93" text-rendering="inherit" font-size="12" dy=".8em" y="233.5" x="558.5">解码密钥只有主机知道</text></g></g><g id="minder_node10"><g id="node_expander7" display="none" style="cursor: pointer;"><path id="kity_path_179" fill="white" stroke="gray" d="M548.5,291.5A6,6,0,1,1,536.5,291.5A6,6,0,1,1,548.5,291.5"></path><path id="kity_path_180" fill="none" stroke="gray"></path></g><path id="node_outline8" fill="none" stroke="none" d="M553.5,280.5h68a5,5,0,0,1,5,5v12a5,5,0,0,1,-5,5h-68a5,5,0,0,1,-5,-5v-12a5,5,0,0,1,5,-5z"></path><g id="node_text8" fill="black"><text id="kity_text_95" text-rendering="inherit" font-size="12" dy=".8em" y="285.5" x="558.5">算法：RSA</text></g></g><g id="minder_node11"><g id="node_expander8" display="none" style="cursor: pointer;"><path id="kity_path_182" fill="white" stroke="gray" d="M548.5,343.5A6,6,0,1,1,536.5,343.5A6,6,0,1,1,548.5,343.5"></path><path id="kity_path_183" fill="none" stroke="gray"></path></g><path id="node_outline9" fill="none" stroke="none" d="M553.5,332.5h190a5,5,0,0,1,5,5v12a5,5,0,0,1,-5,5h-190a5,5,0,0,1,-5,-5v-12a5,5,0,0,1,5,-5z"></path><g id="node_text9" fill="black"><text id="kity_text_97" text-rendering="inherit" font-size="12" dy=".8em" y="337.5" x="558.5">为每台主机分配一个公开编码密钥</text></g></g><g id="minder_node12"><g id="node_expander12" style="cursor: pointer;"><path id="kity_path_194" fill="white" stroke="gray" d="M356.5,395.5A6,6,0,1,1,344.5,395.5A6,6,0,1,1,356.5,395.5"></path><path id="kity_path_195" fill="none" stroke="gray" d="M346,395.5L355,395.5"></path></g><path id="node_outline13" fill="none" stroke="none" d="M361.5,384.5h58a5,5,0,0,1,5,5v12a5,5,0,0,1,-5,5h-58a5,5,0,0,1,-5,-5v-12a5,5,0,0,1,5,-5z"></path><g id="node_text13" fill="black"><text id="kity_text_105" text-rendering="inherit" font-size="12" dy=".8em" y="389.5" x="366.5">数字签名</text></g></g><g id="minder_node13"><g id="node_expander11" style="cursor: pointer;"><path id="kity_path_191" fill="white" stroke="gray" d="M464.5,395.5A6,6,0,1,1,452.5,395.5A6,6,0,1,1,464.5,395.5"></path><path id="kity_path_192" fill="none" stroke="gray" d="M454,395.5L463,395.5"></path></g><path id="node_outline12" fill="none" stroke="none" d="M469.5,384.5h125a5,5,0,0,1,5,5v12a5,5,0,0,1,-5,5h-125a5,5,0,0,1,-5,-5v-12a5,5,0,0,1,5,-5z"></path><g id="node_text12" fill="black"><text id="kity_text_103" text-rendering="inherit" font-size="12" dy=".8em" y="389.5" x="474.5">签名=加密后的检验和</text></g></g><g id="minder_node14"><g id="node_expander10" display="none" style="cursor: pointer;"><path id="kity_path_188" fill="white" stroke="gray" d="M639.5,395.5A6,6,0,1,1,627.5,395.5A6,6,0,1,1,639.5,395.5"></path><path id="kity_path_189" fill="none" stroke="gray"></path></g><path id="node_outline11" fill="none" stroke="none" d="M644.5,384.5h118a5,5,0,0,1,5,5v12a5,5,0,0,1,-5,5h-118a5,5,0,0,1,-5,-5v-12a5,5,0,0,1,5,-5z"></path><g id="node_text11" fill="black"><text id="kity_text_101" text-rendering="inherit" font-size="12" dy=".8em" y="389.5" x="649.5">非对称公开密钥加密</text></g></g><g id="minder_node15"><g id="node_expander14" style="cursor: pointer;"><path id="kity_path_200" fill="white" stroke="gray" d="M356.5,447.5A6,6,0,1,1,344.5,447.5A6,6,0,1,1,356.5,447.5"></path><path id="kity_path_201" fill="none" stroke="gray" d="M346,447.5L355,447.5"></path></g><path id="node_outline15" fill="none" stroke="none" d="M361.5,436.5h58a5,5,0,0,1,5,5v12a5,5,0,0,1,-5,5h-58a5,5,0,0,1,-5,-5v-12a5,5,0,0,1,5,-5z"></path><g id="node_text15" fill="black"><text id="kity_text_109" text-rendering="inherit" font-size="12" dy=".8em" y="441.5" x="366.5">数字证书</text></g></g><g id="minder_node16"><g id="node_expander13" display="none" style="cursor: pointer;"><path id="kity_path_197" fill="white" stroke="gray" d="M464.5,447.5A6,6,0,1,1,452.5,447.5A6,6,0,1,1,464.5,447.5"></path><path id="kity_path_198" fill="none" stroke="gray"></path></g><path id="node_outline14" fill="none" stroke="none" d="M469.5,436.5h322a5,5,0,0,1,5,5v12a5,5,0,0,1,-5,5h-322a5,5,0,0,1,-5,-5v-12a5,5,0,0,1,5,-5z"></path><g id="node_text14" fill="black"><text id="kity_text_107" text-rendering="inherit" font-size="12" dy=".8em" y="441.5" x="474.5">对象名称、过期时间、证书发布者、来自发布者的数字签名</text></g></g><g id="minder_node17"><g id="node_expander26" style="cursor: pointer;"><path id="kity_path_236" fill="white" stroke="gray" d="M219.5,665.5A6,6,0,1,1,207.5,665.5A6,6,0,1,1,219.5,665.5"></path><path id="kity_path_237" fill="none" stroke="gray" d="M209,665.5L218,665.5"></path></g><path id="node_outline27" fill="rgb(238, 243, 246)" stroke="rgb(115, 161, 191)" d="M223.5,652.5h71a3,3,0,0,1,3,3v20a3,3,0,0,1,-3,3h-71a3,3,0,0,1,-3,-3v-20a3,3,0,0,1,3,-3z" stroke-width="1"></path><g id="node_text27" fill="black"><text id="kity_text_133" text-rendering="inherit" font-size="14" dy=".8em" y="658.5" x="240.5">HTTPS</text></g></g><g id="minder_node18"><g id="node_expander16" display="none" style="cursor: pointer;"><path id="kity_path_206" fill="white" stroke="gray" d="M337.5,509.5A6,6,0,1,1,325.5,509.5A6,6,0,1,1,337.5,509.5"></path><path id="kity_path_207" fill="none" stroke="gray"></path></g><path id="node_outline17" fill="none" stroke="none" d="M342.5,498.5h113a5,5,0,0,1,5,5v12a5,5,0,0,1,-5,5h-113a5,5,0,0,1,-5,-5v-12a5,5,0,0,1,5,-5z"></path><g id="node_text17" fill="black"><text id="kity_text_113" text-rendering="inherit" font-size="12" dy=".8em" y="503.5" x="347.5">HTTP--SSL/TSL--TCP</text></g></g><g id="minder_node19"><g id="node_expander21" style="cursor: pointer;"><path id="kity_path_221" fill="white" stroke="gray" d="M337.5,639.5A6,6,0,1,1,325.5,639.5A6,6,0,1,1,337.5,639.5"></path><path id="kity_path_222" fill="none" stroke="gray" d="M327,639.5L336,639.5"></path></g><path id="node_outline22" fill="none" stroke="none" d="M342.5,628.5h51a5,5,0,0,1,5,5v12a5,5,0,0,1,-5,5h-51a5,5,0,0,1,-5,-5v-12a5,5,0,0,1,5,-5z"></path><g id="node_text22" fill="black"><text id="kity_text_123" text-rendering="inherit" font-size="12" dy=".8em" y="633.5" x="347.5">SSL握手</text></g></g><g id="minder_node20"><g id="node_expander17" display="none" style="cursor: pointer;"><path id="kity_path_209" fill="white" stroke="gray" d="M438.5,561.5A6,6,0,1,1,426.5,561.5A6,6,0,1,1,438.5,561.5"></path><path id="kity_path_210" fill="none" stroke="gray"></path></g><path id="node_outline18" fill="none" stroke="none" d="M443.5,550.5h94a5,5,0,0,1,5,5v12a5,5,0,0,1,-5,5h-94a5,5,0,0,1,-5,-5v-12a5,5,0,0,1,5,-5z"></path><g id="node_text18" fill="black"><text id="kity_text_115" text-rendering="inherit" font-size="12" dy=".8em" y="555.5" x="448.5">交换协议版本号</text></g></g><g id="minder_node21"><g id="node_expander18" display="none" style="cursor: pointer;"><path id="kity_path_212" fill="white" stroke="gray" d="M438.5,613.5A6,6,0,1,1,426.5,613.5A6,6,0,1,1,438.5,613.5"></path><path id="kity_path_213" fill="none" stroke="gray"></path></g><path id="node_outline19" fill="none" stroke="none" d="M443.5,602.5h130a5,5,0,0,1,5,5v12a5,5,0,0,1,-5,5h-130a5,5,0,0,1,-5,-5v-12a5,5,0,0,1,5,-5z"></path><g id="node_text19" fill="black"><text id="kity_text_117" text-rendering="inherit" font-size="12" dy=".8em" y="607.5" x="448.5">选择两端都了解的密码</text></g></g><g id="minder_node22"><g id="node_expander19" display="none" style="cursor: pointer;"><path id="kity_path_215" fill="white" stroke="gray" d="M438.5,665.5A6,6,0,1,1,426.5,665.5A6,6,0,1,1,438.5,665.5"></path><path id="kity_path_216" fill="none" stroke="gray"></path></g><path id="node_outline20" fill="none" stroke="none" d="M443.5,654.5h118a5,5,0,0,1,5,5v12a5,5,0,0,1,-5,5h-118a5,5,0,0,1,-5,-5v-12a5,5,0,0,1,5,-5z"></path><g id="node_text20" fill="black"><text id="kity_text_119" text-rendering="inherit" font-size="12" dy=".8em" y="659.5" x="448.5">对两端身份进行认证</text></g></g><g id="minder_node23"><g id="node_expander20" display="none" style="cursor: pointer;"><path id="kity_path_218" fill="white" stroke="gray" d="M438.5,717.5A6,6,0,1,1,426.5,717.5A6,6,0,1,1,438.5,717.5"></path><path id="kity_path_219" fill="none" stroke="gray"></path></g><path id="node_outline21" fill="none" stroke="none" d="M443.5,706.5h142a5,5,0,0,1,5,5v12a5,5,0,0,1,-5,5h-142a5,5,0,0,1,-5,-5v-12a5,5,0,0,1,5,-5z"></path><g id="node_text21" fill="black"><text id="kity_text_121" text-rendering="inherit" font-size="12" dy=".8em" y="711.5" x="448.5">生成临时密钥，加密信道</text></g></g><g id="minder_node24"><g id="node_expander25" style="cursor: pointer;"><path id="kity_path_233" fill="white" stroke="gray" d="M337.5,821.5A6,6,0,1,1,325.5,821.5A6,6,0,1,1,337.5,821.5"></path><path id="kity_path_234" fill="none" stroke="gray" d="M327,821.5L336,821.5"></path></g><path id="node_outline26" fill="none" stroke="none" d="M342.5,810.5h70a5,5,0,0,1,5,5v12a5,5,0,0,1,-5,5h-70a5,5,0,0,1,-5,-5v-12a5,5,0,0,1,5,-5z"></path><g id="node_text26" fill="black"><text id="kity_text_131" text-rendering="inherit" font-size="12" dy=".8em" y="815.5" x="347.5">服务器证书</text></g></g><g id="minder_node25"><g id="node_expander22" display="none" style="cursor: pointer;"><path id="kity_path_224" fill="white" stroke="gray" d="M457.5,769.5A6,6,0,1,1,445.5,769.5A6,6,0,1,1,457.5,769.5"></path><path id="kity_path_225" fill="none" stroke="gray"></path></g><path id="node_outline23" fill="none" stroke="none" d="M462.5,758.5h65a5,5,0,0,1,5,5v12a5,5,0,0,1,-5,5h-65a5,5,0,0,1,-5,-5v-12a5,5,0,0,1,5,-5z"></path><g id="node_text23" fill="black"><text id="kity_text_125" text-rendering="inherit" font-size="12" dy=".8em" y="763.5" x="467.5">X.509证书</text></g></g><g id="minder_node26"><g id="node_expander23" display="none" style="cursor: pointer;"><path id="kity_path_227" fill="white" stroke="gray" d="M457.5,821.5A6,6,0,1,1,445.5,821.5A6,6,0,1,1,457.5,821.5"></path><path id="kity_path_228" fill="none" stroke="gray"></path></g><path id="node_outline24" fill="none" stroke="none" d="M462.5,810.5h94a5,5,0,0,1,5,5v12a5,5,0,0,1,-5,5h-94a5,5,0,0,1,-5,-5v-12a5,5,0,0,1,5,-5z"></path><g id="node_text24" fill="black"><text id="kity_text_127" text-rendering="inherit" font-size="12" dy=".8em" y="815.5" x="467.5">验证证书有效性</text></g></g><g id="minder_node27"><g id="node_expander24" display="none" style="cursor: pointer;"><path id="kity_path_230" fill="white" stroke="gray" d="M457.5,873.5A6,6,0,1,1,445.5,873.5A6,6,0,1,1,457.5,873.5"></path><path id="kity_path_231" fill="none" stroke="gray"></path></g><path id="node_outline25" fill="none" stroke="none" d="M462.5,862.5h94a5,5,0,0,1,5,5v12a5,5,0,0,1,-5,5h-94a5,5,0,0,1,-5,-5v-12a5,5,0,0,1,5,-5z"></path><g id="node_text25" fill="black"><text id="kity_text_129" text-rendering="inherit" font-size="12" dy=".8em" y="867.5" x="467.5">虚拟主机与证书</text></g></g></g></g></svg>