<svg id="kity_svg_6" xmlns="http://www.w3.org/2000/svg" xmlns:xlink="http://www.w3.org/1999/xlink" version="1.1" width="1293" height="1652" style="background: rgb(251, 251, 251); visibility: visible;" viewBox="0 0 1293 1652"><defs id="kity_defs_7"><linearGradient id="kity_linearGradient_17" x1="0" y1="0" x2="0" y2="1"><stop id="kity_stop_18" offset="0" stop-color="rgb(255, 255, 255)"></stop><stop id="kity_stop_19" offset="1" stop-color="rgb(204, 204, 204)"></stop></linearGradient><marker id="kity_marker_2" orient="auto" refX="6" refY="0" viewBox="-7 -7 14 14" markerWidth="7" markerHeight="7" markerUnits="userSpaceOnUse"><path id="kity_path_3" fill="rgb(115, 161, 191)" stroke="none" d="M6,0A6,6,0,1,1,-6,0A6,6,0,1,1,6,0"></path></marker></defs><g id="kity_g_8"><g id="minder1" text-rendering="optimize-speed"><g id="minder_connect_group1"><path id="kity_path_31" fill="none" stroke="rgb(115, 161, 191)" stroke-width="1" d="M60.5,689.5A158,606,0,0,1,218.5,83.5"></path><path id="kity_path_33" fill="none" stroke="rgb(115, 161, 191)" stroke-width="1" d="M288.5,83.5C308.5,83.5,308.5,31.5,328.5,31.5"></path><path id="kity_path_35" fill="none" stroke="none" display="none"></path><path id="kity_path_37" fill="none" stroke="none" display="none"></path><path id="kity_path_39" fill="none" stroke="none" display="none"></path><path id="kity_path_41" fill="none" stroke="none" display="none"></path><path id="kity_path_43" fill="none" stroke="none" display="none"></path><path id="kity_path_45" fill="none" stroke="none" display="none"></path><path id="kity_path_47" fill="none" stroke="none" display="none"></path><path id="kity_path_49" fill="none" stroke="none" display="none"></path><path id="kity_path_51" fill="none" stroke="rgb(115, 161, 191)" stroke-width="1" d="M288.5,83.5C308.5,83.5,308.5,83.5,328.5,83.5"></path><path id="kity_path_53" fill="none" stroke="none" display="none"></path><path id="kity_path_55" fill="none" stroke="none" display="none"></path><path id="kity_path_57" fill="none" stroke="none" display="none"></path><path id="kity_path_59" fill="none" stroke="none" display="none"></path><path id="kity_path_61" fill="none" stroke="none" display="none"></path><path id="kity_path_63" fill="none" stroke="none" display="none"></path><path id="kity_path_65" fill="none" stroke="none" display="none"></path><path id="kity_path_67" fill="none" stroke="rgb(115, 161, 191)" stroke-width="1" d="M288.5,83.5C308.5,83.5,308.5,135.5,328.5,135.5"></path><path id="kity_path_69" fill="none" stroke="rgb(115, 161, 191)" stroke-width="1" d="M60.5,689.5A158,297,0,0,1,218.5,392.5"></path><path id="kity_path_71" fill="none" stroke="rgb(115, 161, 191)" stroke-width="1" d="M288.5,392.5C308.5,392.5,308.5,197.5,328.5,197.5"></path><path id="kity_path_73" fill="none" stroke="rgb(115, 161, 191)" stroke-width="1" d="M370.5,197.5C390.5,197.5,390.5,197.5,410.5,197.5"></path><path id="kity_path_75" fill="none" stroke="rgb(115, 161, 191)" stroke-width="1" d="M288.5,392.5C308.5,392.5,308.5,249.5,328.5,249.5"></path><path id="kity_path_77" fill="none" stroke="rgb(115, 161, 191)" stroke-width="1" d="M380.5,249.5C400.5,249.5,400.5,249.5,420.5,249.5"></path><path id="kity_path_79" fill="none" stroke="rgb(115, 161, 191)" stroke-width="1" d="M288.5,392.5C308.5,392.5,308.5,301.5,328.5,301.5"></path><path id="kity_path_81" fill="none" stroke="rgb(115, 161, 191)" stroke-width="1" d="M368.5,301.5C388.5,301.5,388.5,301.5,408.5,301.5"></path><path id="kity_path_83" fill="none" stroke="rgb(115, 161, 191)" stroke-width="1" d="M288.5,392.5C308.5,392.5,308.5,353.5,328.5,353.5"></path><path id="kity_path_85" fill="none" stroke="rgb(115, 161, 191)" stroke-width="1" d="M385.5,353.5C405.5,353.5,405.5,353.5,425.5,353.5"></path><path id="kity_path_87" fill="none" stroke="rgb(115, 161, 191)" stroke-width="1" d="M288.5,392.5C308.5,392.5,308.5,405.5,328.5,405.5"></path><path id="kity_path_89" fill="none" stroke="rgb(115, 161, 191)" stroke-width="1" d="M399.5,405.5C419.5,405.5,419.5,405.5,439.5,405.5"></path><path id="kity_path_91" fill="none" stroke="rgb(115, 161, 191)" stroke-width="1" d="M288.5,392.5C308.5,392.5,308.5,457.5,328.5,457.5"></path><path id="kity_path_93" fill="none" stroke="rgb(115, 161, 191)" stroke-width="1" d="M387.5,457.5C407.5,457.5,407.5,457.5,427.5,457.5"></path><path id="kity_path_95" fill="none" stroke="rgb(115, 161, 191)" stroke-width="1" d="M288.5,392.5C308.5,392.5,308.5,587.5,328.5,587.5"></path><path id="kity_path_97" fill="none" stroke="rgb(115, 161, 191)" stroke-width="1" d="M396.5,587.5C416.5,587.5,416.5,509.5,436.5,509.5"></path><path id="kity_path_99" fill="none" stroke="rgb(115, 161, 191)" stroke-width="1" d="M396.5,587.5C416.5,587.5,416.5,561.5,436.5,561.5"></path><path id="kity_path_101" fill="none" stroke="rgb(115, 161, 191)" stroke-width="1" d="M396.5,587.5C416.5,587.5,416.5,613.5,436.5,613.5"></path><path id="kity_path_103" fill="none" stroke="rgb(115, 161, 191)" stroke-width="1" d="M396.5,587.5C416.5,587.5,416.5,665.5,436.5,665.5"></path><path id="kity_path_105" fill="none" stroke="rgb(115, 161, 191)" stroke-width="1" d="M60.5,689.5A158,142,0,0,0,218.5,831.5"></path><path id="kity_path_107" fill="none" stroke="rgb(115, 161, 191)" stroke-width="1" d="M302.5,831.5C322.5,831.5,322.5,727.5,342.5,727.5"></path><path id="kity_path_109" fill="none" stroke="rgb(115, 161, 191)" stroke-width="1" d="M302.5,831.5C322.5,831.5,322.5,779.5,342.5,779.5"></path><path id="kity_path_111" fill="none" stroke="rgb(115, 161, 191)" stroke-width="1" d="M302.5,831.5C322.5,831.5,322.5,831.5,342.5,831.5"></path><path id="kity_path_113" fill="none" stroke="rgb(115, 161, 191)" stroke-width="1" d="M302.5,831.5C322.5,831.5,322.5,883.5,342.5,883.5"></path><path id="kity_path_115" fill="none" stroke="rgb(115, 161, 191)" stroke-width="1" d="M302.5,831.5C322.5,831.5,322.5,935.5,342.5,935.5"></path><path id="kity_path_117" fill="none" stroke="rgb(115, 161, 191)" stroke-width="1" d="M60.5,689.5A158,607,0,0,0,218.5,1296.5"></path><path id="kity_path_119" fill="none" stroke="rgb(115, 161, 191)" stroke-width="1" d="M288.5,1296.5C308.5,1296.5,308.5,1023.5,328.5,1023.5"></path><path id="kity_path_121" fill="none" stroke="rgb(115, 161, 191)" stroke-width="1" d="M396.5,1023.5C416.5,1023.5,416.5,997.5,436.5,997.5"></path><path id="kity_path_123" fill="none" stroke="rgb(115, 161, 191)" stroke-width="1" d="M396.5,1023.5C416.5,1023.5,416.5,1049.5,436.5,1049.5"></path><path id="kity_path_125" fill="none" stroke="rgb(115, 161, 191)" stroke-width="1" d="M288.5,1296.5C308.5,1296.5,308.5,1205.5,328.5,1205.5"></path><path id="kity_path_127" fill="none" stroke="rgb(115, 161, 191)" stroke-width="1" d="M396.5,1205.5C416.5,1205.5,416.5,1101.5,436.5,1101.5"></path><path id="kity_path_129" fill="none" stroke="rgb(115, 161, 191)" stroke-width="1" d="M396.5,1205.5C416.5,1205.5,416.5,1153.5,436.5,1153.5"></path><path id="kity_path_131" fill="none" stroke="rgb(115, 161, 191)" stroke-width="1" d="M396.5,1205.5C416.5,1205.5,416.5,1205.5,436.5,1205.5"></path><path id="kity_path_133" fill="none" stroke="rgb(115, 161, 191)" stroke-width="1" d="M396.5,1205.5C416.5,1205.5,416.5,1257.5,436.5,1257.5"></path><path id="kity_path_135" fill="none" stroke="rgb(115, 161, 191)" stroke-width="1" d="M396.5,1205.5C416.5,1205.5,416.5,1309.5,436.5,1309.5"></path><path id="kity_path_137" fill="none" stroke="rgb(115, 161, 191)" stroke-width="1" d="M288.5,1296.5C308.5,1296.5,308.5,1413.5,328.5,1413.5"></path><path id="kity_path_139" fill="none" stroke="rgb(115, 161, 191)" stroke-width="1" d="M396.5,1413.5C416.5,1413.5,416.5,1361.5,436.5,1361.5"></path><path id="kity_path_141" fill="none" stroke="rgb(115, 161, 191)" stroke-width="1" d="M396.5,1413.5C416.5,1413.5,416.5,1413.5,436.5,1413.5"></path><path id="kity_path_143" fill="none" stroke="rgb(115, 161, 191)" stroke-width="1" d="M396.5,1413.5C416.5,1413.5,416.5,1465.5,436.5,1465.5"></path><path id="kity_path_145" fill="none" stroke="rgb(115, 161, 191)" stroke-width="1" d="M288.5,1296.5C308.5,1296.5,308.5,1569.5,328.5,1569.5"></path><path id="kity_path_147" fill="none" stroke="rgb(115, 161, 191)" stroke-width="1" d="M396.5,1569.5C416.5,1569.5,416.5,1517.5,436.5,1517.5"></path><path id="kity_path_149" fill="none" stroke="rgb(115, 161, 191)" stroke-width="1" d="M396.5,1569.5C416.5,1569.5,416.5,1569.5,436.5,1569.5"></path><path id="kity_path_151" fill="none" stroke="rgb(115, 161, 191)" stroke-width="1" d="M396.5,1569.5C416.5,1569.5,416.5,1621.5,436.5,1621.5"></path></g><g id="minder_node1"><path id="node_outline1" fill="rgb(115, 161, 191)" stroke="rgb(57, 80, 96)" d="M25.5,669.5h70a5,5,0,0,1,5,5v30a5,5,0,0,1,-5,5h-70a5,5,0,0,1,-5,-5v-30a5,5,0,0,1,5,-5z" stroke-width="3"></path><g id="node_text1" fill="white"><text id="kity_text_22" text-rendering="inherit" font-size="16" dy=".8em" y="681.5" x="44.5">报文</text></g></g><g id="kity_g_12"><path id="kity_path_13" fill="none" stroke="none" d="M44.5,689.5h0v0h0z"></path></g><g id="kity_g_14"><path id="kity_path_15" fill="none" stroke="none" d="M44.5,689.5h0v0h0z"></path><path id="kity_path_16" fill="none" stroke="none"></path></g><g id="minder_node2"><g id="node_expander19" style="cursor: pointer;"><path id="kity_path_390" fill="white" stroke="gray" d="M219.5,83.5A6,6,0,1,1,207.5,83.5A6,6,0,1,1,219.5,83.5"></path><path id="kity_path_391" fill="none" stroke="gray" d="M209,83.5L218,83.5"></path></g><path id="node_outline20" fill="rgb(238, 243, 246)" stroke="rgb(115, 161, 191)" d="M223.5,70.5h62a3,3,0,0,1,3,3v20a3,3,0,0,1,-3,3h-62a3,3,0,0,1,-3,-3v-20a3,3,0,0,1,3,-3z" stroke-width="1"></path><g id="node_text20" fill="black"><text id="kity_text_189" text-rendering="inherit" font-size="14" dy=".8em" y="76.5" x="240.5">组成</text></g></g><g id="minder_node3"><g id="node_expander9" style="cursor: pointer;"><path id="kity_path_360" fill="white" stroke="gray" d="M328.5,31.5A6,6,0,1,1,316.5,31.5A6,6,0,1,1,328.5,31.5"></path><path id="kity_path_361" fill="none" stroke="gray" d="M318,31.5L327,31.5M322.5,27L322.5,36"></path></g><path id="node_outline10" fill="none" stroke="none" d="M333.5,20.5h102a5,5,0,0,1,5,5v12a5,5,0,0,1,-5,5h-102a5,5,0,0,1,-5,-5v-12a5,5,0,0,1,5,-5z"></path><g id="node_text10" fill="black"><text id="kity_text_169" text-rendering="inherit" font-size="12" dy=".8em" y="25.5" x="338.5">起始行(start line)</text></g></g><g id="minder_node4" display="none"><g id="node_expander4" display="none" style="cursor: pointer;"><path id="kity_path_345" fill="white" stroke="gray" d="M480.5,1.5A6,6,0,1,1,468.5,1.5A6,6,0,1,1,480.5,1.5"></path><path id="kity_path_346" fill="none" stroke="gray"></path></g><path id="node_outline5" fill="none" stroke="none" d="M475.5,-9.5h34a5,5,0,0,1,5,5v12a5,5,0,0,1,-5,5h-34a5,5,0,0,1,-5,-5v-12a5,5,0,0,1,5,-5z"></path><g id="node_text5" fill="black"><text id="kity_text_159" text-rendering="inherit" font-size="12" dy=".8em" y="-4.5" x="480.5">请求</text></g></g><g id="minder_node5" display="none"><g id="node_expander1" display="none" style="cursor: pointer;"><path id="kity_path_336" fill="white" stroke="gray" d="M520.5,-58.5A6,6,0,1,1,508.5,-58.5A6,6,0,1,1,520.5,-58.5"></path><path id="kity_path_337" fill="none" stroke="gray"></path></g><path id="node_outline2" fill="none" stroke="none" d="M515.5,-69.5h34a5,5,0,0,1,5,5v12a5,5,0,0,1,-5,5h-34a5,5,0,0,1,-5,-5v-12a5,5,0,0,1,5,-5z"></path><g id="node_text2" fill="black"><text id="kity_text_153" text-rendering="inherit" font-size="12" dy=".8em" y="-64.5" x="520.5">方法</text></g></g><g id="minder_node6" display="none"><g id="node_expander2" display="none" style="cursor: pointer;"><path id="kity_path_339" fill="white" stroke="gray" d="M520.5,-28.5A6,6,0,1,1,508.5,-28.5A6,6,0,1,1,520.5,-28.5"></path><path id="kity_path_340" fill="none" stroke="gray"></path></g><path id="node_outline3" fill="none" stroke="none" d="M515.5,-39.5h55a5,5,0,0,1,5,5v12a5,5,0,0,1,-5,5h-55a5,5,0,0,1,-5,-5v-12a5,5,0,0,1,5,-5z"></path><g id="node_text3" fill="black"><text id="kity_text_155" text-rendering="inherit" font-size="12" dy=".8em" y="-34.5" x="520.5">请求URL</text></g></g><g id="minder_node7" display="none"><g id="node_expander3" display="none" style="cursor: pointer;"><path id="kity_path_342" fill="white" stroke="gray" d="M520.5,1.5A6,6,0,1,1,508.5,1.5A6,6,0,1,1,520.5,1.5"></path><path id="kity_path_343" fill="none" stroke="gray"></path></g><path id="node_outline4" fill="none" stroke="none" d="M515.5,-9.5h34a5,5,0,0,1,5,5v12a5,5,0,0,1,-5,5h-34a5,5,0,0,1,-5,-5v-12a5,5,0,0,1,5,-5z"></path><g id="node_text4" fill="black"><text id="kity_text_157" text-rendering="inherit" font-size="12" dy=".8em" y="-4.5" x="520.5">版本</text></g></g><g id="minder_node8" display="none"><g id="node_expander8" display="none" style="cursor: pointer;"><path id="kity_path_357" fill="white" stroke="gray" d="M480.5,31.5A6,6,0,1,1,468.5,31.5A6,6,0,1,1,480.5,31.5"></path><path id="kity_path_358" fill="none" stroke="gray"></path></g><path id="node_outline9" fill="none" stroke="none" d="M475.5,20.5h34a5,5,0,0,1,5,5v12a5,5,0,0,1,-5,5h-34a5,5,0,0,1,-5,-5v-12a5,5,0,0,1,5,-5z"></path><g id="node_text9" fill="black"><text id="kity_text_167" text-rendering="inherit" font-size="12" dy=".8em" y="25.5" x="480.5">响应</text></g></g><g id="minder_node9" display="none"><g id="node_expander5" display="none" style="cursor: pointer;"><path id="kity_path_348" fill="white" stroke="gray" d="M520.5,-28.5A6,6,0,1,1,508.5,-28.5A6,6,0,1,1,520.5,-28.5"></path><path id="kity_path_349" fill="none" stroke="gray"></path></g><path id="node_outline6" fill="none" stroke="none" d="M515.5,-39.5h34a5,5,0,0,1,5,5v12a5,5,0,0,1,-5,5h-34a5,5,0,0,1,-5,-5v-12a5,5,0,0,1,5,-5z"></path><g id="node_text6" fill="black"><text id="kity_text_161" text-rendering="inherit" font-size="12" dy=".8em" y="-34.5" x="520.5">版本</text></g></g><g id="minder_node10" display="none"><g id="node_expander6" display="none" style="cursor: pointer;"><path id="kity_path_351" fill="white" stroke="gray" d="M520.5,1.5A6,6,0,1,1,508.5,1.5A6,6,0,1,1,520.5,1.5"></path><path id="kity_path_352" fill="none" stroke="gray"></path></g><path id="node_outline7" fill="none" stroke="none" d="M515.5,-9.5h46a5,5,0,0,1,5,5v12a5,5,0,0,1,-5,5h-46a5,5,0,0,1,-5,-5v-12a5,5,0,0,1,5,-5z"></path><g id="node_text7" fill="black"><text id="kity_text_163" text-rendering="inherit" font-size="12" dy=".8em" y="-4.5" x="520.5">状态码</text></g></g><g id="minder_node11" display="none"><g id="node_expander7" display="none" style="cursor: pointer;"><path id="kity_path_354" fill="white" stroke="gray" d="M520.5,31.5A6,6,0,1,1,508.5,31.5A6,6,0,1,1,520.5,31.5"></path><path id="kity_path_355" fill="none" stroke="gray"></path></g><path id="node_outline8" fill="none" stroke="none" d="M515.5,20.5h58a5,5,0,0,1,5,5v12a5,5,0,0,1,-5,5h-58a5,5,0,0,1,-5,-5v-12a5,5,0,0,1,5,-5z"></path><g id="node_text8" fill="black"><text id="kity_text_165" text-rendering="inherit" font-size="12" dy=".8em" y="25.5" x="520.5">原因短语</text></g></g><g id="minder_node12"><g id="node_expander17" style="cursor: pointer;"><path id="kity_path_384" fill="white" stroke="gray" d="M328.5,83.5A6,6,0,1,1,316.5,83.5A6,6,0,1,1,328.5,83.5"></path><path id="kity_path_385" fill="none" stroke="gray" d="M318,83.5L327,83.5M322.5,79L322.5,88"></path></g><path id="node_outline18" fill="none" stroke="none" d="M333.5,72.5h86a5,5,0,0,1,5,5v12a5,5,0,0,1,-5,5h-86a5,5,0,0,1,-5,-5v-12a5,5,0,0,1,5,-5z"></path><g id="node_text18" fill="black"><text id="kity_text_185" text-rendering="inherit" font-size="12" dy=".8em" y="77.5" x="338.5">首部(header)</text></g></g><g id="minder_node13" display="none"><g id="node_expander15" display="none" style="cursor: pointer;"><path id="kity_path_378" fill="white" stroke="gray" d="M464.5,53.5A6,6,0,1,1,452.5,53.5A6,6,0,1,1,464.5,53.5"></path><path id="kity_path_379" fill="none" stroke="gray"></path></g><path id="node_outline16" fill="none" stroke="none" d="M459.5,42.5h34a5,5,0,0,1,5,5v12a5,5,0,0,1,-5,5h-34a5,5,0,0,1,-5,-5v-12a5,5,0,0,1,5,-5z"></path><g id="node_text16" fill="black"><text id="kity_text_181" text-rendering="inherit" font-size="12" dy=".8em" y="47.5" x="464.5">分类</text></g></g><g id="minder_node14" display="none"><g id="node_expander10" display="none" style="cursor: pointer;"><path id="kity_path_363" fill="white" stroke="gray" d="M504.5,-66.5A6,6,0,1,1,492.5,-66.5A6,6,0,1,1,504.5,-66.5"></path><path id="kity_path_364" fill="none" stroke="gray"></path></g><path id="node_outline11" fill="none" stroke="none" d="M499.5,-77.5h34a5,5,0,0,1,5,5v12a5,5,0,0,1,-5,5h-34a5,5,0,0,1,-5,-5v-12a5,5,0,0,1,5,-5z"></path><g id="node_text11" fill="black"><text id="kity_text_171" text-rendering="inherit" font-size="12" dy=".8em" y="-72.5" x="504.5">通用</text></g></g><g id="minder_node15" display="none"><g id="node_expander11" display="none" style="cursor: pointer;"><path id="kity_path_366" fill="white" stroke="gray" d="M504.5,-36.5A6,6,0,1,1,492.5,-36.5A6,6,0,1,1,504.5,-36.5"></path><path id="kity_path_367" fill="none" stroke="gray"></path></g><path id="node_outline12" fill="none" stroke="none" d="M499.5,-47.5h34a5,5,0,0,1,5,5v12a5,5,0,0,1,-5,5h-34a5,5,0,0,1,-5,-5v-12a5,5,0,0,1,5,-5z"></path><g id="node_text12" fill="black"><text id="kity_text_173" text-rendering="inherit" font-size="12" dy=".8em" y="-42.5" x="504.5">请求</text></g></g><g id="minder_node16" display="none"><g id="node_expander12" display="none" style="cursor: pointer;"><path id="kity_path_369" fill="white" stroke="gray" d="M504.5,-6.5A6,6,0,1,1,492.5,-6.5A6,6,0,1,1,504.5,-6.5"></path><path id="kity_path_370" fill="none" stroke="gray"></path></g><path id="node_outline13" fill="none" stroke="none" d="M499.5,-17.5h34a5,5,0,0,1,5,5v12a5,5,0,0,1,-5,5h-34a5,5,0,0,1,-5,-5v-12a5,5,0,0,1,5,-5z"></path><g id="node_text13" fill="black"><text id="kity_text_175" text-rendering="inherit" font-size="12" dy=".8em" y="-12.5" x="504.5">响应</text></g></g><g id="minder_node17" display="none"><g id="node_expander13" display="none" style="cursor: pointer;"><path id="kity_path_372" fill="white" stroke="gray" d="M504.5,23.5A6,6,0,1,1,492.5,23.5A6,6,0,1,1,504.5,23.5"></path><path id="kity_path_373" fill="none" stroke="gray"></path></g><path id="node_outline14" fill="none" stroke="none" d="M499.5,12.5h34a5,5,0,0,1,5,5v12a5,5,0,0,1,-5,5h-34a5,5,0,0,1,-5,-5v-12a5,5,0,0,1,5,-5z"></path><g id="node_text14" fill="black"><text id="kity_text_177" text-rendering="inherit" font-size="12" dy=".8em" y="17.5" x="504.5">实体</text></g></g><g id="minder_node18" display="none"><g id="node_expander14" display="none" style="cursor: pointer;"><path id="kity_path_375" fill="white" stroke="gray" d="M504.5,53.5A6,6,0,1,1,492.5,53.5A6,6,0,1,1,504.5,53.5"></path><path id="kity_path_376" fill="none" stroke="gray"></path></g><path id="node_outline15" fill="none" stroke="none" d="M499.5,42.5h34a5,5,0,0,1,5,5v12a5,5,0,0,1,-5,5h-34a5,5,0,0,1,-5,-5v-12a5,5,0,0,1,5,-5z"></path><g id="node_text15" fill="black"><text id="kity_text_179" text-rendering="inherit" font-size="12" dy=".8em" y="47.5" x="504.5">扩展</text></g></g><g id="minder_node19" display="none"><g id="node_expander16" display="none" style="cursor: pointer;"><path id="kity_path_381" fill="white" stroke="gray" d="M464.5,83.5A6,6,0,1,1,452.5,83.5A6,6,0,1,1,464.5,83.5"></path><path id="kity_path_382" fill="none" stroke="gray"></path></g><path id="node_outline17" fill="none" stroke="none" d="M459.5,72.5h46a5,5,0,0,1,5,5v12a5,5,0,0,1,-5,5h-46a5,5,0,0,1,-5,-5v-12a5,5,0,0,1,5,-5z"></path><g id="node_text17" fill="black"><text id="kity_text_183" text-rendering="inherit" font-size="12" dy=".8em" y="77.5" x="464.5">延续行</text></g></g><g id="minder_node20"><g id="node_expander18" display="none" style="cursor: pointer;"><path id="kity_path_387" fill="white" stroke="gray" d="M328.5,135.5A6,6,0,1,1,316.5,135.5A6,6,0,1,1,328.5,135.5"></path><path id="kity_path_388" fill="none" stroke="gray"></path></g><path id="node_outline19" fill="none" stroke="none" d="M333.5,124.5h34a5,5,0,0,1,5,5v12a5,5,0,0,1,-5,5h-34a5,5,0,0,1,-5,-5v-12a5,5,0,0,1,5,-5z"></path><g id="node_text19" fill="black"><text id="kity_text_187" text-rendering="inherit" font-size="12" dy=".8em" y="129.5" x="338.5">主体</text></g></g><g id="minder_node21"><g id="node_expander37" style="cursor: pointer;"><path id="kity_path_444" fill="white" stroke="gray" d="M219.5,392.5A6,6,0,1,1,207.5,392.5A6,6,0,1,1,219.5,392.5"></path><path id="kity_path_445" fill="none" stroke="gray" d="M209,392.5L218,392.5"></path></g><path id="node_outline38" fill="rgb(238, 243, 246)" stroke="rgb(115, 161, 191)" d="M223.5,379.5h62a3,3,0,0,1,3,3v20a3,3,0,0,1,-3,3h-62a3,3,0,0,1,-3,-3v-20a3,3,0,0,1,3,-3z" stroke-width="1"></path><g id="node_text38" fill="black"><text id="kity_text_225" text-rendering="inherit" font-size="14" dy=".8em" y="385.5" x="240.5">方法</text></g></g><g id="minder_node22"><g id="node_expander21" style="cursor: pointer;"><path id="kity_path_396" fill="white" stroke="gray" d="M328.5,197.5A6,6,0,1,1,316.5,197.5A6,6,0,1,1,328.5,197.5"></path><path id="kity_path_397" fill="none" stroke="gray" d="M318,197.5L327,197.5"></path></g><path id="node_outline22" fill="none" stroke="none" d="M333.5,186.5h32a5,5,0,0,1,5,5v12a5,5,0,0,1,-5,5h-32a5,5,0,0,1,-5,-5v-12a5,5,0,0,1,5,-5z"></path><g id="node_text22" fill="black"><text id="kity_text_193" text-rendering="inherit" font-size="12" dy=".8em" y="191.5" x="338.5">GET</text></g></g><g id="minder_node23"><g id="node_expander20" display="none" style="cursor: pointer;"><path id="kity_path_393" fill="white" stroke="gray" d="M410.5,197.5A6,6,0,1,1,398.5,197.5A6,6,0,1,1,410.5,197.5"></path><path id="kity_path_394" fill="none" stroke="gray"></path></g><path id="node_outline21" fill="none" stroke="none" d="M415.5,186.5h142a5,5,0,0,1,5,5v12a5,5,0,0,1,-5,5h-142a5,5,0,0,1,-5,-5v-12a5,5,0,0,1,5,-5z"></path><g id="node_text21" fill="black"><text id="kity_text_191" text-rendering="inherit" font-size="12" dy=".8em" y="191.5" x="420.5">请求服务器发送某个资源</text></g></g><g id="minder_node24"><g id="node_expander23" style="cursor: pointer;"><path id="kity_path_402" fill="white" stroke="gray" d="M328.5,249.5A6,6,0,1,1,316.5,249.5A6,6,0,1,1,328.5,249.5"></path><path id="kity_path_403" fill="none" stroke="gray" d="M318,249.5L327,249.5"></path></g><path id="node_outline24" fill="none" stroke="none" d="M333.5,238.5h42a5,5,0,0,1,5,5v12a5,5,0,0,1,-5,5h-42a5,5,0,0,1,-5,-5v-12a5,5,0,0,1,5,-5z"></path><g id="node_text24" fill="black"><text id="kity_text_197" text-rendering="inherit" font-size="12" dy=".8em" y="243.5" x="338.5">HEAD</text></g></g><g id="minder_node25"><g id="node_expander22" display="none" style="cursor: pointer;"><path id="kity_path_399" fill="white" stroke="gray" d="M420.5,249.5A6,6,0,1,1,408.5,249.5A6,6,0,1,1,420.5,249.5"></path><path id="kity_path_400" fill="none" stroke="gray"></path></g><path id="node_outline23" fill="none" stroke="none" d="M425.5,238.5h140a5,5,0,0,1,5,5v12a5,5,0,0,1,-5,5h-140a5,5,0,0,1,-5,-5v-12a5,5,0,0,1,5,-5z"></path><g id="node_text23" fill="black"><text id="kity_text_195" text-rendering="inherit" font-size="12" dy=".8em" y="243.5" x="430.5">与GET类似，只返回首部</text></g></g><g id="minder_node26"><g id="node_expander25" style="cursor: pointer;"><path id="kity_path_408" fill="white" stroke="gray" d="M328.5,301.5A6,6,0,1,1,316.5,301.5A6,6,0,1,1,328.5,301.5"></path><path id="kity_path_409" fill="none" stroke="gray" d="M318,301.5L327,301.5"></path></g><path id="node_outline26" fill="none" stroke="none" d="M333.5,290.5h30a5,5,0,0,1,5,5v12a5,5,0,0,1,-5,5h-30a5,5,0,0,1,-5,-5v-12a5,5,0,0,1,5,-5z"></path><g id="node_text26" fill="black"><text id="kity_text_201" text-rendering="inherit" font-size="12" dy=".8em" y="295.5" x="338.5">PUT</text></g></g><g id="minder_node27"><g id="node_expander24" display="none" style="cursor: pointer;"><path id="kity_path_405" fill="white" stroke="gray" d="M408.5,301.5A6,6,0,1,1,396.5,301.5A6,6,0,1,1,408.5,301.5"></path><path id="kity_path_406" fill="none" stroke="gray"></path></g><path id="node_outline25" fill="none" stroke="none" d="M413.5,290.5h106a5,5,0,0,1,5,5v12a5,5,0,0,1,-5,5h-106a5,5,0,0,1,-5,-5v-12a5,5,0,0,1,5,-5z"></path><g id="node_text25" fill="black"><text id="kity_text_199" text-rendering="inherit" font-size="12" dy=".8em" y="295.5" x="418.5">向服务器写入文档</text></g></g><g id="minder_node28"><g id="node_expander27" style="cursor: pointer;"><path id="kity_path_414" fill="white" stroke="gray" d="M328.5,353.5A6,6,0,1,1,316.5,353.5A6,6,0,1,1,328.5,353.5"></path><path id="kity_path_415" fill="none" stroke="gray" d="M318,353.5L327,353.5"></path></g><path id="node_outline28" fill="none" stroke="none" d="M333.5,342.5h47a5,5,0,0,1,5,5v12a5,5,0,0,1,-5,5h-47a5,5,0,0,1,-5,-5v-12a5,5,0,0,1,5,-5z"></path><g id="node_text28" fill="black"><text id="kity_text_205" text-rendering="inherit" font-size="12" dy=".8em" y="347.5" x="338.5">TRACE</text></g></g><g id="minder_node29"><g id="node_expander26" display="none" style="cursor: pointer;"><path id="kity_path_411" fill="white" stroke="gray" d="M425.5,353.5A6,6,0,1,1,413.5,353.5A6,6,0,1,1,425.5,353.5"></path><path id="kity_path_412" fill="none" stroke="gray"></path></g><path id="node_outline27" fill="none" stroke="none" d="M430.5,342.5h231a5,5,0,0,1,5,5v12a5,5,0,0,1,-5,5h-231a5,5,0,0,1,-5,-5v-12a5,5,0,0,1,5,-5z"></path><g id="node_text27" fill="black"><text id="kity_text_203" text-rendering="inherit" font-size="12" dy=".8em" y="347.5" x="435.5">观察经过代理/网关最终发给服务器的请求</text></g></g><g id="minder_node30"><g id="node_expander29" style="cursor: pointer;"><path id="kity_path_420" fill="white" stroke="gray" d="M328.5,405.5A6,6,0,1,1,316.5,405.5A6,6,0,1,1,328.5,405.5"></path><path id="kity_path_421" fill="none" stroke="gray" d="M318,405.5L327,405.5"></path></g><path id="node_outline30" fill="none" stroke="none" d="M333.5,394.5h61a5,5,0,0,1,5,5v12a5,5,0,0,1,-5,5h-61a5,5,0,0,1,-5,-5v-12a5,5,0,0,1,5,-5z"></path><g id="node_text30" fill="black"><text id="kity_text_209" text-rendering="inherit" font-size="12" dy=".8em" y="399.5" x="338.5">OPTIONS</text></g></g><g id="minder_node31"><g id="node_expander28" display="none" style="cursor: pointer;"><path id="kity_path_417" fill="white" stroke="gray" d="M439.5,405.5A6,6,0,1,1,427.5,405.5A6,6,0,1,1,439.5,405.5"></path><path id="kity_path_418" fill="none" stroke="gray"></path></g><path id="node_outline29" fill="none" stroke="none" d="M444.5,394.5h142a5,5,0,0,1,5,5v12a5,5,0,0,1,-5,5h-142a5,5,0,0,1,-5,-5v-12a5,5,0,0,1,5,-5z"></path><g id="node_text29" fill="black"><text id="kity_text_207" text-rendering="inherit" font-size="12" dy=".8em" y="399.5" x="449.5">询问服务器支持哪些方法</text></g></g><g id="minder_node32"><g id="node_expander31" style="cursor: pointer;"><path id="kity_path_426" fill="white" stroke="gray" d="M328.5,457.5A6,6,0,1,1,316.5,457.5A6,6,0,1,1,328.5,457.5"></path><path id="kity_path_427" fill="none" stroke="gray" d="M318,457.5L327,457.5"></path></g><path id="node_outline32" fill="none" stroke="none" d="M333.5,446.5h49a5,5,0,0,1,5,5v12a5,5,0,0,1,-5,5h-49a5,5,0,0,1,-5,-5v-12a5,5,0,0,1,5,-5z"></path><g id="node_text32" fill="black"><text id="kity_text_213" text-rendering="inherit" font-size="12" dy=".8em" y="451.5" x="338.5">DELETE</text></g></g><g id="minder_node33"><g id="node_expander30" display="none" style="cursor: pointer;"><path id="kity_path_423" fill="white" stroke="gray" d="M427.5,457.5A6,6,0,1,1,415.5,457.5A6,6,0,1,1,427.5,457.5"></path><path id="kity_path_424" fill="none" stroke="gray"></path></g><path id="node_outline31" fill="none" stroke="none" d="M432.5,446.5h175a5,5,0,0,1,5,5v12a5,5,0,0,1,-5,5h-175a5,5,0,0,1,-5,-5v-12a5,5,0,0,1,5,-5z"></path><g id="node_text31" fill="black"><text id="kity_text_211" text-rendering="inherit" font-size="12" dy=".8em" y="451.5" x="437.5">请求服务器删除指定URL的资源</text></g></g><g id="minder_node34"><g id="node_expander36" style="cursor: pointer;"><path id="kity_path_441" fill="white" stroke="gray" d="M328.5,587.5A6,6,0,1,1,316.5,587.5A6,6,0,1,1,328.5,587.5"></path><path id="kity_path_442" fill="none" stroke="gray" d="M318,587.5L327,587.5"></path></g><path id="node_outline37" fill="none" stroke="none" d="M333.5,576.5h58a5,5,0,0,1,5,5v12a5,5,0,0,1,-5,5h-58a5,5,0,0,1,-5,-5v-12a5,5,0,0,1,5,-5z"></path><g id="node_text37" fill="black"><text id="kity_text_223" text-rendering="inherit" font-size="12" dy=".8em" y="581.5" x="338.5">扩展方法</text></g></g><g id="minder_node35"><g id="node_expander32" display="none" style="cursor: pointer;"><path id="kity_path_429" fill="white" stroke="gray" d="M436.5,509.5A6,6,0,1,1,424.5,509.5A6,6,0,1,1,436.5,509.5"></path><path id="kity_path_430" fill="none" stroke="gray"></path></g><path id="node_outline33" fill="none" stroke="none" d="M441.5,498.5h43a5,5,0,0,1,5,5v12a5,5,0,0,1,-5,5h-43a5,5,0,0,1,-5,-5v-12a5,5,0,0,1,5,-5z"></path><g id="node_text33" fill="black"><text id="kity_text_215" text-rendering="inherit" font-size="12" dy=".8em" y="503.5" x="446.5">LOCK</text></g></g><g id="minder_node36"><g id="node_expander33" display="none" style="cursor: pointer;"><path id="kity_path_432" fill="white" stroke="gray" d="M436.5,561.5A6,6,0,1,1,424.5,561.5A6,6,0,1,1,436.5,561.5"></path><path id="kity_path_433" fill="none" stroke="gray"></path></g><path id="node_outline34" fill="none" stroke="none" d="M441.5,550.5h54a5,5,0,0,1,5,5v12a5,5,0,0,1,-5,5h-54a5,5,0,0,1,-5,-5v-12a5,5,0,0,1,5,-5z"></path><g id="node_text34" fill="black"><text id="kity_text_217" text-rendering="inherit" font-size="12" dy=".8em" y="555.5" x="446.5">MKCOL</text></g></g><g id="minder_node37"><g id="node_expander34" display="none" style="cursor: pointer;"><path id="kity_path_435" fill="white" stroke="gray" d="M436.5,613.5A6,6,0,1,1,424.5,613.5A6,6,0,1,1,436.5,613.5"></path><path id="kity_path_436" fill="none" stroke="gray"></path></g><path id="node_outline35" fill="none" stroke="none" d="M441.5,602.5h44a5,5,0,0,1,5,5v12a5,5,0,0,1,-5,5h-44a5,5,0,0,1,-5,-5v-12a5,5,0,0,1,5,-5z"></path><g id="node_text35" fill="black"><text id="kity_text_219" text-rendering="inherit" font-size="12" dy=".8em" y="607.5" x="446.5">COPY</text></g></g><g id="minder_node38"><g id="node_expander35" display="none" style="cursor: pointer;"><path id="kity_path_438" fill="white" stroke="gray" d="M436.5,665.5A6,6,0,1,1,424.5,665.5A6,6,0,1,1,436.5,665.5"></path><path id="kity_path_439" fill="none" stroke="gray"></path></g><path id="node_outline36" fill="none" stroke="none" d="M441.5,654.5h46a5,5,0,0,1,5,5v12a5,5,0,0,1,-5,5h-46a5,5,0,0,1,-5,-5v-12a5,5,0,0,1,5,-5z"></path><g id="node_text36" fill="black"><text id="kity_text_221" text-rendering="inherit" font-size="12" dy=".8em" y="659.5" x="446.5">MOVE</text></g></g><g id="minder_node39"><g id="node_expander43" style="cursor: pointer;"><path id="kity_path_462" fill="white" stroke="gray" d="M219.5,831.5A6,6,0,1,1,207.5,831.5A6,6,0,1,1,219.5,831.5"></path><path id="kity_path_463" fill="none" stroke="gray" d="M209,831.5L218,831.5"></path></g><path id="node_outline44" fill="rgb(238, 243, 246)" stroke="rgb(115, 161, 191)" d="M223.5,818.5h76a3,3,0,0,1,3,3v20a3,3,0,0,1,-3,3h-76a3,3,0,0,1,-3,-3v-20a3,3,0,0,1,3,-3z" stroke-width="1"></path><g id="node_text44" fill="black"><text id="kity_text_237" text-rendering="inherit" font-size="14" dy=".8em" y="824.5" x="240.5">状态码</text></g></g><g id="minder_node40"><g id="node_expander38" display="none" style="cursor: pointer;"><path id="kity_path_447" fill="white" stroke="gray" d="M342.5,727.5A6,6,0,1,1,330.5,727.5A6,6,0,1,1,342.5,727.5"></path><path id="kity_path_448" fill="none" stroke="gray"></path></g><path id="node_outline39" fill="none" stroke="none" d="M347.5,716.5h153a5,5,0,0,1,5,5v12a5,5,0,0,1,-5,5h-153a5,5,0,0,1,-5,-5v-12a5,5,0,0,1,5,-5z"></path><g id="node_text39" fill="black"><text id="kity_text_227" text-rendering="inherit" font-size="12" dy=".8em" y="721.5" x="352.5">100~199——信息性状态码</text></g></g><g id="minder_node41"><g id="node_expander39" display="none" style="cursor: pointer;"><path id="kity_path_450" fill="white" stroke="gray" d="M342.5,779.5A6,6,0,1,1,330.5,779.5A6,6,0,1,1,342.5,779.5"></path><path id="kity_path_451" fill="none" stroke="gray"></path></g><path id="node_outline40" fill="none" stroke="none" d="M347.5,768.5h141a5,5,0,0,1,5,5v12a5,5,0,0,1,-5,5h-141a5,5,0,0,1,-5,-5v-12a5,5,0,0,1,5,-5z"></path><g id="node_text40" fill="black"><text id="kity_text_229" text-rendering="inherit" font-size="12" dy=".8em" y="773.5" x="352.5">200~299——成功状态码</text></g></g><g id="minder_node42"><g id="node_expander40" display="none" style="cursor: pointer;"><path id="kity_path_453" fill="white" stroke="gray" d="M342.5,831.5A6,6,0,1,1,330.5,831.5A6,6,0,1,1,342.5,831.5"></path><path id="kity_path_454" fill="none" stroke="gray"></path></g><path id="node_outline41" fill="none" stroke="none" d="M347.5,820.5h153a5,5,0,0,1,5,5v12a5,5,0,0,1,-5,5h-153a5,5,0,0,1,-5,-5v-12a5,5,0,0,1,5,-5z"></path><g id="node_text41" fill="black"><text id="kity_text_231" text-rendering="inherit" font-size="12" dy=".8em" y="825.5" x="352.5">300~399——重定向状态码</text></g></g><g id="minder_node43"><g id="node_expander41" display="none" style="cursor: pointer;"><path id="kity_path_456" fill="white" stroke="gray" d="M342.5,883.5A6,6,0,1,1,330.5,883.5A6,6,0,1,1,342.5,883.5"></path><path id="kity_path_457" fill="none" stroke="gray"></path></g><path id="node_outline42" fill="none" stroke="none" d="M347.5,872.5h177a5,5,0,0,1,5,5v12a5,5,0,0,1,-5,5h-177a5,5,0,0,1,-5,-5v-12a5,5,0,0,1,5,-5z"></path><g id="node_text42" fill="black"><text id="kity_text_233" text-rendering="inherit" font-size="12" dy=".8em" y="877.5" x="352.5">400~499——客户端错误状态码</text></g></g><g id="minder_node44"><g id="node_expander42" display="none" style="cursor: pointer;"><path id="kity_path_459" fill="white" stroke="gray" d="M342.5,935.5A6,6,0,1,1,330.5,935.5A6,6,0,1,1,342.5,935.5"></path><path id="kity_path_460" fill="none" stroke="gray"></path></g><path id="node_outline43" fill="none" stroke="none" d="M347.5,924.5h177a5,5,0,0,1,5,5v12a5,5,0,0,1,-5,5h-177a5,5,0,0,1,-5,-5v-12a5,5,0,0,1,5,-5z"></path><g id="node_text43" fill="black"><text id="kity_text_235" text-rendering="inherit" font-size="12" dy=".8em" y="929.5" x="352.5">500~599——服务端错误状态码</text></g></g><g id="minder_node45"><g id="node_expander61" style="cursor: pointer;"><path id="kity_path_516" fill="white" stroke="gray" d="M219.5,1296.5A6,6,0,1,1,207.5,1296.5A6,6,0,1,1,219.5,1296.5"></path><path id="kity_path_517" fill="none" stroke="gray" d="M209,1296.5L218,1296.5"></path></g><path id="node_outline62" fill="rgb(238, 243, 246)" stroke="rgb(115, 161, 191)" d="M223.5,1283.5h62a3,3,0,0,1,3,3v20a3,3,0,0,1,-3,3h-62a3,3,0,0,1,-3,-3v-20a3,3,0,0,1,3,-3z" stroke-width="1"></path><g id="node_text62" fill="black"><text id="kity_text_273" text-rendering="inherit" font-size="14" dy=".8em" y="1289.5" x="240.5">首部</text></g></g><g id="minder_node46"><g id="node_expander46" style="cursor: pointer;"><path id="kity_path_471" fill="white" stroke="gray" d="M328.5,1023.5A6,6,0,1,1,316.5,1023.5A6,6,0,1,1,328.5,1023.5"></path><path id="kity_path_472" fill="none" stroke="gray" d="M318,1023.5L327,1023.5"></path></g><path id="node_outline47" fill="none" stroke="none" d="M333.5,1012.5h58a5,5,0,0,1,5,5v12a5,5,0,0,1,-5,5h-58a5,5,0,0,1,-5,-5v-12a5,5,0,0,1,5,-5z"></path><g id="node_text47" fill="black"><text id="kity_text_243" text-rendering="inherit" font-size="12" dy=".8em" y="1017.5" x="338.5">通用首部</text></g></g><g id="minder_node47"><g id="node_expander44" display="none" style="cursor: pointer;"><path id="kity_path_465" fill="white" stroke="gray" d="M436.5,997.5A6,6,0,1,1,424.5,997.5A6,6,0,1,1,436.5,997.5"></path><path id="kity_path_466" fill="none" stroke="gray"></path></g><path id="node_outline45" fill="none" stroke="none" d="M441.5,986.5h344a5,5,0,0,1,5,5v12a5,5,0,0,1,-5,5h-344a5,5,0,0,1,-5,-5v-12a5,5,0,0,1,5,-5z"></path><g id="node_text45" fill="black"><text id="kity_text_239" text-rendering="inherit" font-size="12" dy=".8em" y="991.5" x="446.5">信息：Connection/Date/MIME-Version/Trailer/Update/Via</text></g></g><g id="minder_node48"><g id="node_expander45" display="none" style="cursor: pointer;"><path id="kity_path_468" fill="white" stroke="gray" d="M436.5,1049.5A6,6,0,1,1,424.5,1049.5A6,6,0,1,1,436.5,1049.5"></path><path id="kity_path_469" fill="none" stroke="gray"></path></g><path id="node_outline46" fill="none" stroke="none" d="M441.5,1038.5h185a5,5,0,0,1,5,5v12a5,5,0,0,1,-5,5h-185a5,5,0,0,1,-5,-5v-12a5,5,0,0,1,5,-5z"></path><g id="node_text46" fill="black"><text id="kity_text_241" text-rendering="inherit" font-size="12" dy=".8em" y="1043.5" x="446.5">缓存：Cache-Control/Pragma</text></g></g><g id="minder_node49"><g id="node_expander52" style="cursor: pointer;"><path id="kity_path_489" fill="white" stroke="gray" d="M328.5,1205.5A6,6,0,1,1,316.5,1205.5A6,6,0,1,1,328.5,1205.5"></path><path id="kity_path_490" fill="none" stroke="gray" d="M318,1205.5L327,1205.5"></path></g><path id="node_outline53" fill="none" stroke="none" d="M333.5,1194.5h58a5,5,0,0,1,5,5v12a5,5,0,0,1,-5,5h-58a5,5,0,0,1,-5,-5v-12a5,5,0,0,1,5,-5z"></path><g id="node_text53" fill="black"><text id="kity_text_255" text-rendering="inherit" font-size="12" dy=".8em" y="1199.5" x="338.5">请求首部</text></g></g><g id="minder_node50"><g id="node_expander47" display="none" style="cursor: pointer;"><path id="kity_path_474" fill="white" stroke="gray" d="M436.5,1101.5A6,6,0,1,1,424.5,1101.5A6,6,0,1,1,436.5,1101.5"></path><path id="kity_path_475" fill="none" stroke="gray"></path></g><path id="node_outline48" fill="none" stroke="none" d="M441.5,1090.5h530a5,5,0,0,1,5,5v12a5,5,0,0,1,-5,5h-530a5,5,0,0,1,-5,-5v-12a5,5,0,0,1,5,-5z"></path><g id="node_text48" fill="black"><text id="kity_text_245" text-rendering="inherit" font-size="12" dy=".8em" y="1095.5" x="446.5">信息：Client-IP/From/Host/Referer/UA-Color/UA-CPU/UA-Disp/UA-OS/UA-Pixels/User-Agent</text></g></g><g id="minder_node51"><g id="node_expander48" display="none" style="cursor: pointer;"><path id="kity_path_477" fill="white" stroke="gray" d="M436.5,1153.5A6,6,0,1,1,424.5,1153.5A6,6,0,1,1,436.5,1153.5"></path><path id="kity_path_478" fill="none" stroke="gray"></path></g><path id="node_outline49" fill="none" stroke="none" d="M441.5,1142.5h450a5,5,0,0,1,5,5v12a5,5,0,0,1,-5,5h-450a5,5,0,0,1,-5,-5v-12a5,5,0,0,1,5,-5z"></path><g id="node_text49" fill="black"><text id="kity_text_247" text-rendering="inherit" font-size="12" dy=".8em" y="1147.5" x="446.5">Accept：Accept/Accept-Charset/Accept-Encoding/Accept-Language/TE</text></g></g><g id="minder_node52"><g id="node_expander49" display="none" style="cursor: pointer;"><path id="kity_path_480" fill="white" stroke="gray" d="M436.5,1205.5A6,6,0,1,1,424.5,1205.5A6,6,0,1,1,436.5,1205.5"></path><path id="kity_path_481" fill="none" stroke="gray"></path></g><path id="node_outline50" fill="none" stroke="none" d="M441.5,1194.5h573a5,5,0,0,1,5,5v12a5,5,0,0,1,-5,5h-573a5,5,0,0,1,-5,-5v-12a5,5,0,0,1,5,-5z"></path><g id="node_text50" fill="black"><text id="kity_text_249" text-rendering="inherit" font-size="12" dy=".8em" y="1199.5" x="446.5">条件请求：Expect/If-Match/If-Modified-Since/If-None-Match/If-Range/If-Unmodified-Since/Range</text></g></g><g id="minder_node53"><g id="node_expander50" display="none" style="cursor: pointer;"><path id="kity_path_483" fill="white" stroke="gray" d="M436.5,1257.5A6,6,0,1,1,424.5,1257.5A6,6,0,1,1,436.5,1257.5"></path><path id="kity_path_484" fill="none" stroke="gray"></path></g><path id="node_outline51" fill="none" stroke="none" d="M441.5,1246.5h247a5,5,0,0,1,5,5v12a5,5,0,0,1,-5,5h-247a5,5,0,0,1,-5,-5v-12a5,5,0,0,1,5,-5z"></path><g id="node_text51" fill="black"><text id="kity_text_251" text-rendering="inherit" font-size="12" dy=".8em" y="1251.5" x="446.5">安全请求：Authorization/Cookie/Cookie2</text></g></g><g id="minder_node54"><g id="node_expander51" display="none" style="cursor: pointer;"><path id="kity_path_486" fill="white" stroke="gray" d="M436.5,1309.5A6,6,0,1,1,424.5,1309.5A6,6,0,1,1,436.5,1309.5"></path><path id="kity_path_487" fill="none" stroke="gray"></path></g><path id="node_outline52" fill="none" stroke="none" d="M441.5,1298.5h372a5,5,0,0,1,5,5v12a5,5,0,0,1,-5,5h-372a5,5,0,0,1,-5,-5v-12a5,5,0,0,1,5,-5z"></path><g id="node_text52" fill="black"><text id="kity_text_253" text-rendering="inherit" font-size="12" dy=".8em" y="1303.5" x="446.5">代理请求：Max-Forward/Proxy-Authorization/Proxy-Connection</text></g></g><g id="minder_node55"><g id="node_expander56" style="cursor: pointer;"><path id="kity_path_501" fill="white" stroke="gray" d="M328.5,1413.5A6,6,0,1,1,316.5,1413.5A6,6,0,1,1,328.5,1413.5"></path><path id="kity_path_502" fill="none" stroke="gray" d="M318,1413.5L327,1413.5"></path></g><path id="node_outline57" fill="none" stroke="none" d="M333.5,1402.5h58a5,5,0,0,1,5,5v12a5,5,0,0,1,-5,5h-58a5,5,0,0,1,-5,-5v-12a5,5,0,0,1,5,-5z"></path><g id="node_text57" fill="black"><text id="kity_text_263" text-rendering="inherit" font-size="12" dy=".8em" y="1407.5" x="338.5">响应首部</text></g></g><g id="minder_node56"><g id="node_expander53" display="none" style="cursor: pointer;"><path id="kity_path_492" fill="white" stroke="gray" d="M436.5,1361.5A6,6,0,1,1,424.5,1361.5A6,6,0,1,1,436.5,1361.5"></path><path id="kity_path_493" fill="none" stroke="gray"></path></g><path id="node_outline54" fill="none" stroke="none" d="M441.5,1350.5h299a5,5,0,0,1,5,5v12a5,5,0,0,1,-5,5h-299a5,5,0,0,1,-5,-5v-12a5,5,0,0,1,5,-5z"></path><g id="node_text54" fill="black"><text id="kity_text_257" text-rendering="inherit" font-size="12" dy=".8em" y="1355.5" x="446.5">信息：Age/Public/Retry-After/Server/Title/Warning</text></g></g><g id="minder_node57"><g id="node_expander54" display="none" style="cursor: pointer;"><path id="kity_path_495" fill="white" stroke="gray" d="M436.5,1413.5A6,6,0,1,1,424.5,1413.5A6,6,0,1,1,436.5,1413.5"></path><path id="kity_path_496" fill="none" stroke="gray"></path></g><path id="node_outline55" fill="none" stroke="none" d="M441.5,1402.5h170a5,5,0,0,1,5,5v12a5,5,0,0,1,-5,5h-170a5,5,0,0,1,-5,-5v-12a5,5,0,0,1,5,-5z"></path><g id="node_text55" fill="black"><text id="kity_text_259" text-rendering="inherit" font-size="12" dy=".8em" y="1407.5" x="446.5">协商：Accept-Ranges/Vary</text></g></g><g id="minder_node58"><g id="node_expander55" display="none" style="cursor: pointer;"><path id="kity_path_498" fill="white" stroke="gray" d="M436.5,1465.5A6,6,0,1,1,424.5,1465.5A6,6,0,1,1,436.5,1465.5"></path><path id="kity_path_499" fill="none" stroke="gray"></path></g><path id="node_outline56" fill="none" stroke="none" d="M441.5,1454.5h446a5,5,0,0,1,5,5v12a5,5,0,0,1,-5,5h-446a5,5,0,0,1,-5,-5v-12a5,5,0,0,1,5,-5z"></path><g id="node_text56" fill="black"><text id="kity_text_261" text-rendering="inherit" font-size="12" dy=".8em" y="1459.5" x="446.5">安全响应：Proxy-Authorization/Set-Cookie/Set-Cookie2/WWW-Authenticate</text></g></g><g id="minder_node59"><g id="node_expander60" style="cursor: pointer;"><path id="kity_path_513" fill="white" stroke="gray" d="M328.5,1569.5A6,6,0,1,1,316.5,1569.5A6,6,0,1,1,328.5,1569.5"></path><path id="kity_path_514" fill="none" stroke="gray" d="M318,1569.5L327,1569.5"></path></g><path id="node_outline61" fill="none" stroke="none" d="M333.5,1558.5h58a5,5,0,0,1,5,5v12a5,5,0,0,1,-5,5h-58a5,5,0,0,1,-5,-5v-12a5,5,0,0,1,5,-5z"></path><g id="node_text61" fill="black"><text id="kity_text_271" text-rendering="inherit" font-size="12" dy=".8em" y="1563.5" x="338.5">实体首部</text></g></g><g id="minder_node60"><g id="node_expander57" display="none" style="cursor: pointer;"><path id="kity_path_504" fill="white" stroke="gray" d="M436.5,1517.5A6,6,0,1,1,424.5,1517.5A6,6,0,1,1,436.5,1517.5"></path><path id="kity_path_505" fill="none" stroke="gray"></path></g><path id="node_outline58" fill="none" stroke="none" d="M441.5,1506.5h134a5,5,0,0,1,5,5v12a5,5,0,0,1,-5,5h-134a5,5,0,0,1,-5,-5v-12a5,5,0,0,1,5,-5z"></path><g id="node_text58" fill="black"><text id="kity_text_265" text-rendering="inherit" font-size="12" dy=".8em" y="1511.5" x="446.5">信息：Allow/Location</text></g></g><g id="minder_node61"><g id="node_expander58" display="none" style="cursor: pointer;"><path id="kity_path_507" fill="white" stroke="gray" d="M436.5,1569.5A6,6,0,1,1,424.5,1569.5A6,6,0,1,1,436.5,1569.5"></path><path id="kity_path_508" fill="none" stroke="gray"></path></g><path id="node_outline59" fill="none" stroke="none" d="M441.5,1558.5h827a5,5,0,0,1,5,5v12a5,5,0,0,1,-5,5h-827a5,5,0,0,1,-5,-5v-12a5,5,0,0,1,5,-5z"></path><g id="node_text59" fill="black"><text id="kity_text_267" text-rendering="inherit" font-size="12" dy=".8em" y="1563.5" x="446.5">内容：Content-Base/Content-Encoding/Content-Language/Content-Length/Content-Location/Content-MD5/Content-Range/Content-Type</text></g></g><g id="minder_node62"><g id="node_expander59" display="none" style="cursor: pointer;"><path id="kity_path_510" fill="white" stroke="gray" d="M436.5,1621.5A6,6,0,1,1,424.5,1621.5A6,6,0,1,1,436.5,1621.5"></path><path id="kity_path_511" fill="none" stroke="gray"></path></g><path id="node_outline60" fill="none" stroke="none" d="M441.5,1610.5h225a5,5,0,0,1,5,5v12a5,5,0,0,1,-5,5h-225a5,5,0,0,1,-5,-5v-12a5,5,0,0,1,5,-5z"></path><g id="node_text60" fill="black"><text id="kity_text_269" text-rendering="inherit" font-size="12" dy=".8em" y="1615.5" x="446.5">实体缓存：ETag/Expires/Last-Modified</text></g></g></g></g></svg>